<?xml version="1.0" encoding="utf-8"?>
<!-- Generator: Adobe Illustrator 19.0.0, SVG Export Plug-In . SVG Version: 6.00 Build 0)  -->
<svg version="1.1" id="Calque_1" xmlns="http://www.w3.org/2000/svg" xmlns:xlink="http://www.w3.org/1999/xlink" x="0px" y="0px"
	 viewBox="0 0 360.3 346.9" style="enable-background:new 0 0 360.3 346.9;" xml:space="preserve">
<style type="text/css">
	.st0{fill:#683C11;}
	.st1{fill:#4AA834;}
	.st2{fill:#F9B233;}
	.st3{fill:#663366;}
	.st4{fill:#673266;stroke:#673266;stroke-width:14;stroke-linecap:round;}
	.st5{fill:#FFFFFF;stroke:#673266;}
	.st6{fill:#FFFFFF;}
</style>
<g id="XMLID_53_">
	<g id="XMLID_80_">
		<path id="XMLID_253_" class="st0" d="M360.3,250.5c-14.5,4.1-28.4,8-41.7,11.8l0,0c-3.9,1.4-7.4,3.3-10.4,5.5
			c-3.1,2.2-5.6,4.6-7.9,7.1c-4.4,5-7.3,10-9.3,14.5c-1,2.3-1.7,4.4-2.3,6.3c-0.3,1-0.5,1.9-0.7,2.8c-0.1,0.4-0.2,0.9-0.3,1.3
			c-0.1,0.4-0.2,0.8-0.3,1.2c-0.6,3.2-0.9,5.7-1.1,7.5c0,0.4-0.1,0.8-0.2,1.2c0,0.4-0.1,0.7-0.1,1c-0.1,0.6-0.2,0.9-0.3,1.2
			c-0.3,0.5-0.6,0.3-1-0.4c-0.8-1.4-1.8-5.1-2-10.1c-0.1-2.5,0.1-5.4,0.5-8.4c0.5-3,1.2-6.2,2.3-9.4c1.1-3.2,2.5-6.3,4.2-9.3
			c1-1.7,2-3.3,3.1-4.8c-1.9,0.5-3.7,1-5.6,1.5c-9.4,2.6-18.5,4.9-27.3,7c-8.9,2.1-17.4,3.9-25.8,5.4c-8.4,1.5-16.4,2.6-24.2,3.5
			c-2,0.2-3.9,0.4-5.8,0.5c-1,0.1-1.9,0.2-2.9,0.2c-1,0.1-1.9,0.1-2.8,0.2c-1.9,0.1-3.7,0.2-5.6,0.3c-1.8,0-3.7,0.1-5.5,0.1
			c-0.9,0-1.8,0.1-2.7,0.1c-0.9,0-1.8,0-2.7,0c-1.8,0-3.5,0-5.3-0.1c-3.5-0.1-6.9-0.3-10.2-0.6c-6.6-0.5-12.9-1.4-18.8-2.5
			c-5.9-1.1-11.5-2.5-16.7-4c-1.8-0.5-3.5-1.1-5.2-1.6c-80.4,28.3-36.9,5.5-14.5-5.6c-2.5-1.1-5-2.3-7.3-3.5c-3.8-1.9-7.3-4-10.4-6
			c-1.6-1-3.1-2-4.5-3c-0.7-0.5-1.4-1-2.1-1.5c-0.7-0.5-1.3-1-2-1.5C80,254.7,76,251,73,247.8c-3.1-3.3-5.3-6-6.8-8.2
			c-1.5-2.2-2.4-3.8-2.8-4.7c-0.8-1.9,0.4-1.5,3.2,0.8c1.4,1.1,3.2,2.7,5.5,4.6c0.6,0.5,1.2,1,1.8,1.5c0.6,0.5,1.3,1,2,1.6
			c1.4,1,2.9,2.2,4.5,3.3c3.2,2.3,6.9,4.8,11.2,7.2c4.2,2.4,8.9,4.8,14.1,7c5.2,2.2,10.8,4.3,16.8,6.1c6,1.8,12.4,3.3,19.1,4.4
			c3.3,0.6,6.7,1.1,10.2,1.4c1.7,0.2,3.5,0.3,5.2,0.5c0.9,0.1,1.8,0.1,2.7,0.2c0.9,0.1,1.8,0.1,2.7,0.2c0.9,0,1.8,0.1,2.7,0.1
			c0.9,0,1.8,0,2.7,0.1l1.4,0l1.4,0c0.9,0,1.8,0,2.7,0c3.6,0,7.3-0.2,11-0.4c1.9-0.1,3.7-0.3,5.6-0.4c0.9-0.1,1.9-0.1,2.8-0.2
			c0.9-0.1,1.9-0.2,2.8-0.3c0.9-0.1,1.9-0.2,2.8-0.3l1.4-0.2c0.5-0.1,0.9-0.1,1.4-0.2c1.9-0.3,3.8-0.5,5.6-0.8
			c0.9-0.1,1.9-0.3,2.8-0.4l2.8-0.5l2.8-0.5l2.8-0.5c1.9-0.4,3.7-0.7,5.6-1.1c1.9-0.4,3.7-0.8,5.6-1.2c6.1-1.4,12.2-2.9,18.2-4.5
			c-0.2-0.1-0.4-0.2-0.6-0.3c-0.5-0.2-1-0.4-1.4-0.7c-0.5-0.2-0.9-0.5-1.4-0.7c-0.9-0.5-1.8-0.9-2.7-1.4
			c-6.9-3.8-12.1-7.9-16.2-11.7c-0.5-0.5-1-0.9-1.5-1.4c-0.2-0.2-0.5-0.5-0.7-0.7c-0.2-0.2-0.4-0.5-0.7-0.7
			c-0.9-0.9-1.7-1.8-2.4-2.6c-0.7-0.9-1.4-1.7-2.1-2.5c-0.3-0.4-0.6-0.8-0.9-1.1c-0.3-0.4-0.6-0.8-0.8-1.1c-0.5-0.7-1-1.4-1.5-2
			c-0.4-0.6-0.8-1.3-1.2-1.8c-0.3-0.6-0.7-1.1-0.9-1.6c-0.1-0.2-0.3-0.5-0.4-0.7c-0.1-0.2-0.2-0.5-0.3-0.7c-1.6-3.4-1.4-4.2,0-3.4
			c0.7,0.4,1.6,1.3,2.9,2.5c0.6,0.6,1.3,1.2,2.1,1.9c0.4,0.3,0.7,0.7,1.2,1.1c0.4,0.4,0.8,0.8,1.3,1.1c3.5,3.2,8,6.9,13.2,10.2
			c5.1,3.3,10.8,6.2,16.2,8.2c5.4,2.1,10.4,3.3,14,4c0.5,0.1,0.9,0.2,1.3,0.2c0.2,0,0.4,0.1,0.6,0.1c0.2,0,0.4,0.1,0.6,0.1
			c0.5,0.1,1,0.1,1.4,0.2c2.1-0.6,4.1-1.2,6.2-1.9c37.9-12.1,70.7-22.5,87.9-28V250.5z"/>
		<g id="XMLID_85_">
			<path id="XMLID_252_" class="st0" d="M84.1,293.3"/>
		</g>
		<g id="XMLID_84_">
			<path id="XMLID_251_" class="st1" d="M200.2,220.5c1.4,3,5.6,5.4,8.6,4c3-1.4,3.8-6.2,2.3-9.2c-1.4-3-10.1-10.5-11.4-9.9
				C198.4,206.1,198.8,217.5,200.2,220.5z"/>
		</g>
		<g id="XMLID_83_">
			<path id="XMLID_250_" class="st1" d="M290.2,326.6c0.7-3.8-1-8.8-4.3-9.5c-3.3-0.6-6.8,3.4-7.6,7.1c-0.7,3.8,1.4,16.6,2.9,16.9
				C282.6,341.4,289.5,330.4,290.2,326.6z"/>
		</g>
		<g id="XMLID_82_">
			<path id="XMLID_249_" class="st1" d="M71.5,302.4c2.8-1.1,5.1-5,3.8-8.1c-1.3-3.1-5.6-4.3-8.4-3.1c-2.8,1.1-9.8,9-9.2,10.3
				C58.2,302.8,68.7,303.6,71.5,302.4z"/>
		</g>
		<g id="XMLID_81_">
			<path id="XMLID_248_" class="st1" d="M51.9,228.3c1.5,2.6,5.7,4.3,8.6,2.5c2.9-1.7,3.4-6.2,1.9-8.7c-1.5-2.6-10.3-8.3-11.6-7.6
				C49.5,215.3,50.4,225.8,51.9,228.3z"/>
		</g>
	</g>
</g>
<g id="XMLID_86_">
	<path id="XMLID_79_" class="st2" d="M173.5,250c0,0-5.1,0.2-5.8,6.5c0,0-4.2,9.4,2.5,16.5c0,0,3.3,4.1,6.2,2.6c0,0,2.5-1.7-0.7-5.1
		l-6.5-8.9l12.9,3.5c0,0,1.2,0.8,2.1,3.2c0.9,2.4-0.3,13.8-2.3,19.9c0,0-0.7,3.6,2.4,4.2c3.1,0.6,4.5-21.8,4.5-21.8
		s1.2,22.7,2.5,24.1c1.3,1.4,1.5,2.4,3.6,1.6c2.1-0.7-1.5-25.4-1.5-25.4l7.9,21.2c0,0,2.2,2.9,5.1,1.6c0,0-7.6-19.9-10.4-26.1
		C193.2,261.4,173.5,250,173.5,250z"/>
	<path id="XMLID_78_" class="st2" d="M151.1,251.3c0,0,3.5,1.3,3.7,7.5c0,0,2.5,10-2.4,15.4c0,0-2.4,3.2-4.4,1.1
		c0,0-1.7-2.2,0.7-4.7l4.9-7.2l-9.1,0.5c0,0-0.9,0.5-1.6,2.6c-0.7,2.2-0.4,13.3,0.7,19.7c0,0,0.4,3.7-1.8,3.5
		c-2.2-0.1-2.1-22-2.1-22s-1.8,21.7-2.8,22.7c-1,1.1-1.2,2-2.6,0.8c-1.4-1.2,2.2-24.2,2.2-24.2l-6.4,18.7c0,0-1.7,2.4-3.6,0.4
		c0,0,6.1-17.6,8.3-22.9C137,258,151.1,251.3,151.1,251.3z"/>
	
		<ellipse id="XMLID_77_" transform="matrix(-0.6774 0.7356 -0.7356 -0.6774 317.9237 297.8294)" class="st3" cx="93.7" cy="218.6" rx="41.9" ry="8.5"/>
	
		<ellipse id="XMLID_76_" transform="matrix(-0.8503 0.5263 -0.5263 -0.8503 275.7357 336.4266)" class="st3" cx="90" cy="207.4" rx="41.9" ry="8.5"/>
	
		<ellipse id="XMLID_75_" transform="matrix(-0.9628 0.2702 -0.2702 -0.9628 218.423 363.5473)" class="st3" cx="84.2" cy="196.8" rx="41.9" ry="8.5"/>
	<line id="XMLID_74_" class="st4" x1="79.9" y1="94.3" x2="98.8" y2="101.6"/>
	<line id="XMLID_73_" class="st4" x1="89.7" y1="85.2" x2="103.6" y2="99.9"/>
	<line id="XMLID_72_" class="st4" x1="98.3" y1="75" x2="104.8" y2="94.2"/>
	<line id="XMLID_71_" class="st4" x1="231.2" y1="70.4" x2="222.8" y2="88.9"/>
	<line id="XMLID_70_" class="st4" x1="239.7" y1="80.6" x2="224.3" y2="93.7"/>
	<line id="XMLID_69_" class="st4" x1="249.4" y1="89.8" x2="229.9" y2="95.2"/>
	<path id="XMLID_68_" class="st3" d="M240.9,116c0-19.6-16.6-32.8-36.5-35.9c-18.3-2.8-73.6,3.7-88.3,6.6
		c-13.1,2.5-24.2,10.5-24.2,23.5c0,12.5,5.5,129.6,5.5,140.4c0,12.6,9.5,21,23.5,22.8c8.4,1.1,82.3,6.4,93.4,6.4
		c14.9,0,27-11.7,27-26.2C241.3,239.9,240.9,133.6,240.9,116z"/>
	<circle id="XMLID_67_" class="st5" cx="183" cy="125.5" r="35.9"/>
	<circle id="XMLID_66_" cx="179" cy="125" r="28.1"/>
	<path id="XMLID_65_" d="M100,80.8"/>
	<circle id="XMLID_64_" class="st6" cx="196.6" cy="115.1" r="14.8"/>
	<g id="XMLID_60_">
		<circle id="XMLID_63_" class="st6" cx="125.4" cy="131.1" r="19.9"/>
		<circle id="XMLID_62_" cx="122.2" cy="131.4" r="14.9"/>
		<circle id="XMLID_61_" class="st6" cx="131.2" cy="123.9" r="6.8"/>
	</g>
	<path id="XMLID_59_" class="st2" d="M133.5,159.4L82.8,155l52.9,20.4C135.7,175.4,141.8,161.6,133.5,159.4z"/>
	<path id="XMLID_58_" class="st2" d="M133.6,177.2l-27.8,2l29.1-9.1C134.8,170.1,138.1,176.2,133.6,177.2z"/>
	
		<ellipse id="XMLID_57_" transform="matrix(0.8282 0.5604 -0.5604 0.8282 157.7787 -114.5836)" class="st3" cx="265.8" cy="200.1" rx="41.9" ry="8.5"/>
	
		<ellipse id="XMLID_56_" transform="matrix(0.647 0.7625 -0.7625 0.647 246.6893 -122.1535)" class="st3" cx="255.3" cy="205.3" rx="41.9" ry="8.5"/>
	
		<ellipse id="XMLID_55_" transform="matrix(0.4104 0.9119 -0.9119 0.4104 338.756 -98.5978)" class="st3" cx="245.6" cy="212.7" rx="41.9" ry="8.5"/>
	<path id="XMLID_54_" class="st3" d="M64.8,222.2"/>
</g>
</svg>
