<?xml version="1.0" encoding="utf-8"?>
<!-- Generator: Adobe Illustrator 19.0.0, SVG Export Plug-In . SVG Version: 6.00 Build 0)  -->
<svg version="1.1" id="Calque_1" xmlns="http://www.w3.org/2000/svg" xmlns:xlink="http://www.w3.org/1999/xlink" x="0px" y="0px"
	 viewBox="0 0 1332.3 850.4" style="enable-background:new 0 0 1332.3 850.4;" xml:space="preserve">
<style type="text/css">
	.st0{fill:#F7DB58;}
	.st1{fill:#49A834;}
	.st2{fill:#94BF20;}
	.st3{fill:#8A1F78;}
	.st4{fill:#DA076F;}
	.st5{fill:#C91051;}
	.st6{fill:#CA0E52;}
	.st7{fill:#029AD6;}
	.st8{fill:#336EA9;}
	.st9{fill:#9CBA8F;}
</style>
<g id="XMLID_53_">
	<polygon id="soleil_1_" class="st0" points="995.1,389 843.6,425.3 995.1,461.2 839.4,464.1 979.7,531.8 826.9,501 949.4,597.3 
		806.9,534.5 905.7,654.9 780.1,562.8 850.7,701.7 747.8,584.8 787,735.5 711.5,599.2 717.4,754.9 673,605.6 645.3,758.9 
		634.1,603.5 574.1,747.2 596.5,593.1 507,720.6 562,574.8 447.2,680.1 532.2,549.6 397.5,627.7 508.6,518.6 360.2,565.9 
		492.2,483.2 337.1,497.5 483.8,445.1 329.2,425.7 483.7,406.1 337,353.9 492.1,367.9 360,285.4 508.5,332.5 397.1,223.5 532,301.4 
		446.7,171.1 561.8,276.2 506.5,130.5 596.2,257.9 573.5,103.7 633.8,247.4 644.8,92 672.8,245.2 716.9,95.8 711.3,251.5 
		786.5,115.1 747.5,265.9 850.3,148.9 779.8,287.8 905.4,195.6 806.7,316.1 949.1,253 826.8,349.5 979.5,318.5 839.3,386.5 	"/>
	<path class="st1" d="M73.2,278.8l0.5,0.5v0.5l-0.9,0.7c0.3,0.9,1.1,1.4,2.5,1.4h0.5l0.7-0.9l-1.1-1.6l0.5-0.5h12.7
		c7.1,0,10.6,2.3,10.6,6.8l1.1,1.1h0.9l0.7-0.7v-0.5l-0.7-2.7l0.2-0.5h0.5c5.3,0,7.9,5.7,7.9,17c0,25.9,1.6,44.7,4.7,56.3h0.9
		l19.7-1.1c23.8,1.5,35.7,3.6,35.7,6.3c0.6,0,4.7,3.2,12.2,9.7c11.8,9.6,19.4,19.4,22.8,29.4c3.8,3.9,5.7,15.4,5.7,34.4l0.5,9.5
		c-6.2,12.8-9.3,20.5-9.3,23.1c0,7.8-8.4,17.9-25.3,30.1c-2.1,4.8-14.8,7.5-38,8.1c-10.6-1.8-17.8-2.7-21.7-2.7h-7
		c-3.5,0-5.2,1.4-5.2,4.1l-6.8,8.6c-3.2,1.1-6,1.6-8.6,1.6c-2.4,0-7.5-2-15.1-5.9v-1.1c1.4-2,2-3.7,2-5.2v-1.1l-1.1-5.7l0.7-4.3
		v-5.9l-1.1-6.1c2.4-13.4,3.6-22.6,3.6-27.6l1.1-3.2l-0.5-4.1l2.5-22.4v-1.4c0-4.4-1.4-21.3-4.1-50.9v-0.5l-0.5-0.5l0.5-2v-1.1
		c1.1-14.6,1.6-26.4,1.6-35.5L79,308.9l-0.2-1.6h-0.5c-8,4.2-13.8,6.3-17.4,6.3c-2.4,0-4-5.7-4.7-17c0-0.8,0.7-2,2-3.8v-0.9h-0.5
		l-1.1,0.5l-0.5-0.5c0-7.8,0.9-11.8,2.7-11.8C61.5,279.3,66.2,278.8,73.2,278.8z M58.9,285.2v0.5c0,0.8,2.3,1.6,6.8,2.5
		c4.2-0.1,6.3-0.7,6.3-1.6v-0.5c-2.4-0.6-5.6-0.9-9.5-0.9H58.9z M63.7,292.4l-0.5,2v2.7c0,0.8,1.1,1.3,3.2,1.6
		c3.2,0,4.9-0.9,5.2-2.7c-2.9-2.4-5.4-3.6-7.5-3.6H63.7z M73.2,293.5v0.5l1.1,1.1h2.5v-0.7l-0.9-0.9H73.2z M77.9,486.6v0.9l0.9,0.7
		h0.7v-0.7l-0.7-0.9H77.9z M80.4,295.1l1.1,1.1h3.2l1.6-1.6v-1.6l-1.1-1.1h-0.5C81.8,291.9,80.4,293,80.4,295.1z M81.1,284v0.5H82
		V284H81.1z M85.4,498.6v1.1l1.4,1.1h1.6v-1.1l-1.6-1.6L85.4,498.6z M86.9,285.2v0.5h2.5V284h-1.1L86.9,285.2z M90.6,290.8v5.2
		l0.9,0.7c1.8-1.2,2.7-2.9,2.7-5.2c0-1.4-0.4-2.1-1.1-2.3h-0.9L90.6,290.8z M91,318.8c0.6,4.5,1.4,6.8,2.3,6.8h0.5v-0.5
		c-0.3-5-1-7.5-2-7.5C91.2,317.7,91,318.1,91,318.8z M93,498.6l1.1,0.2c1.8-0.6,2.7-1.5,2.7-2.7h-1.6C93.8,496.1,93,496.9,93,498.6z
		 M96.2,479.1v2l0.7,0.7h0.5l0.7-0.7v-0.5c0-1.4-0.4-2.2-1.1-2.5L96.2,479.1z M101,279.3v0.9l-1.6,0.2l-0.5-0.2v-0.5l0.5-0.5H101z
		 M105.7,434.8c0,6.2,0.2,10.9,0.7,14.2l-0.5,7.9v14.2c0,2.7,4.9,5.5,14.7,8.4c2.7,0.8,6.7,1.1,12,1.1c10.9,0,23.9-3.3,39.1-9.9
		c5.1-4.2,10.8-12.7,17-25.3l2-7.5c0-10.5-3.3-21.8-9.9-33.7c-1.4-6.6-4.7-12.4-9.9-17.4l-14.2-10.2c-14.8,0-29.9,3.2-45.4,9.7
		c-1.8,0-3,7.3-3.6,21.9C106.3,415.6,105.7,424.4,105.7,434.8z M108,492.9v0.9c0,0.8,1.7,1.3,5.2,1.6h0.7v-0.9
		c0-0.8-1.3-1.3-3.8-1.6H108z M108.4,478v0.2c0.3,0.9,1.1,1.4,2.3,1.4v-0.5C110.5,478.4,109.8,478,108.4,478z M114.7,373.6v1.1h0.5
		c5.3-1.1,7.9-2,7.9-2.7v-0.9h-0.5C120.5,371.1,117.9,371.9,114.7,373.6z M129,364.3l0.7,0.9h2l2.7-0.9v-1.6l-1.6-0.2
		C130.9,362.5,129.6,363.1,129,364.3z M136,494l0.5,0.5h3.2c4.8-0.3,7.6-1.1,8.4-2.3v-0.9h-1.1C141.7,491.3,138.1,492.2,136,494z
		 M151.8,360.9v0.7c0.5,1.1,1.7,1.6,3.6,1.6h0.5v-0.7l-1.6-1.6H151.8z M158.1,489.3v0.9h2.9l1.1-1.1v-0.5h-3.2L158.1,489.3z
		 M161.3,501.3v0.7h0.9v-0.7H161.3z M162.9,372.2c0,2.1,2.9,4,8.8,5.7c4.4,5.6,7.4,8.4,9,8.4v-0.5c-1.1-4.4-2.9-7.4-5.4-9
		c-5.6-3-9.3-4.5-11.1-4.5H162.9z M164.5,478.2v0.9l0.9,0.7h0.5c2.9-0.3,4.3-0.9,4.3-1.8l-1.1-1.4h-1.6
		C165.9,476.6,164.9,477.2,164.5,478.2z M174,487v1.1c6.8-2,10.5-3.5,11.1-4.7v-0.7C183.2,482.7,179.5,484.2,174,487z M186.6,470.8
		v0.5l0.9,0.7c2.4-1.1,3.6-2.3,3.6-3.8l-0.9-0.9h-1.1C187.5,468.2,186.6,469.4,186.6,470.8z M191.4,410.2v0.9l0.9,0.7h0.7v-0.7
		l-0.7-0.9H191.4z M194.3,476v0.5c3,0,5.1-4.7,6.3-14.2h-2c-0.8,0-2,3.9-3.6,11.8C194.5,473.9,194.3,474.6,194.3,476z M202.2,402
		v1.1c0,1.5,0.8,2.3,2.3,2.3h0.5v-0.2c0-1.5-0.7-2.6-2-3.2H202.2z"/>
	<path class="st2" d="M285.5,360.9c2.7,13.4,2.6,20.2-0.3,20.2c-2.9,0.1,0.8,12.1,11.2,36.1c4.8,12.1,8.5,20.5,11.1,25.3
		c5.7,14.8,9.7,22.2,12,22.2c0.5,0,1.5,1.4,3.2,4.1l0.5,0.5h3.2c2.4,0,6.3-9.1,11.8-27.4c21.8-40.2,27.1-59.2,15.8-57
		c1.1-8.3,1.4-15.5,0.9-21.7l1.6-0.9c27.1,0.5,40.7,1.4,40.7,2.9c1.2,0,1.8,5.4,1.8,16.3c-1.5,6.2-3.4,9.3-5.7,9.3
		c-4.4-0.3-5.2,0-2.5,0.9h-2c-8.1,13.9-12.2,22.8-12.2,26.9c-2.7,10.1-6,17.3-9.9,21.7c-6.6,19-11.6,31.9-14.9,38.7
		c-1.4,1.5-2.9,6.9-4.5,16.3l-13.3,22.2c-6.6,14.6-15.6,28.6-26.9,42l-15.1,10.2c-6.3,1.7-11.3,2.5-14.9,2.5
		c-15.5,0-23.3-1.5-23.3-4.5c-1.7-1.1-3-4.1-4.1-9c-2.9-2.6-6.7-13.5-11.5-32.8v-0.5c0-2.1,2.1-3.2,6.3-3.2c3.6,0,9.9-2,18.8-5.9
		c2.7,0,6.5,9.6,11.3,28.9c1.5,4.4,2.7,6.6,3.6,6.6h2.5c1.8-0.6,3.5-3.1,5-7.5c1.1,0,5.2-5.4,12.4-16.3c3.3-6.9,6.7-13.1,10.2-18.5
		l0.9-3.6v-6.3c-0.2-3.2-2.4-7.9-6.8-14.2c-4.5-8.1-7.8-14.8-9.9-20.1c-9.9-27-21.1-51.5-33.5-73.5c-1.1-0.8-2-1.1-2.9-1.1
		l-19.2,0.7l-0.9-0.7l-0.5-10.6l-0.9-13.6l5.7-2.3l31-2.9h0.5l5.4,0.5L285.5,360.9z M238.7,381.5l-0.5,0.2v2.5l1.4,1.1h4.3
		c4.2-0.1,6.3-0.7,6.3-1.6C250.2,382.7,246.4,381.9,238.7,381.5z M251.8,527.3c1.4,2,2.3,4.1,2.7,6.3l2.3,2.3l1.4-0.2v-1.4
		c0-3-1.4-5.7-4.1-7.9h-1.6L251.8,527.3z M258.2,542v0.7c0,2.3,0.9,4,2.7,5.2l0.7-0.9v-0.7c0-1.7-0.9-3.1-2.7-4.3H258.2z
		 M265.2,553.7v0.9l1.6,1.6h2.7l0.9-0.9c0-0.8-1.1-1.3-3.2-1.6H265.2z M266.7,385.3c0,2.9,1.5,6.2,4.5,9.9h0.2v-3.6
		c0-3.6-0.9-6-2.7-7h-1.1L266.7,385.3z M270.8,563.2c0.8,1.7,2.2,2.5,4.3,2.5h4.3l0.9-0.9v-0.7c0-0.8-1.4-1.3-4.1-1.6h-4.7
		L270.8,563.2z M282.1,559.6l5.7,4.1h1.6c0.8-0.3,1.1-1.1,1.1-2.5v-1.6c-0.3-0.8-1.1-1.1-2.3-1.1h-2.9
		C283.3,558.5,282.3,558.8,282.1,559.6z M293.6,452.9v0.7l0.9,0.9h0.2l0.9-0.9v-0.2l-1.1-1.4L293.6,452.9z M293.6,546.3v0.5
		c2.1,0,4.2-2.6,6.3-7.7v-0.2h-0.5C296.8,540.2,294.8,542.6,293.6,546.3z M295.7,439.3v0.5c4.5,12.4,7.2,18.5,7.9,18.5l0.5-0.2v-0.5
		c-4.1-12.2-6.7-18.3-7.9-18.3H295.7z M298.4,556.9l0.5,0.5h0.5c5.6-2.7,9-5.7,10.2-8.8c-0.9-0.8-1.8-1.1-2.7-1.1h-1.1
		c-2.1,0-3.6,1.9-4.5,5.7L298.4,556.9z M303.1,460.8v0.5l2,1.8c0.5,0,0.7-0.4,0.7-1.1c-0.5-1.2-1-1.9-1.6-2H304L303.1,460.8z
		 M315.1,498.8v0.7h0.2c1.7,0,2.5-0.8,2.5-2.3v-2h-1.1C315.6,495.6,315.1,496.8,315.1,498.8z M321.4,523.7l0.7,0.9
		c1.8-1.4,2.7-2.9,2.7-4.5h-0.7L321.4,523.7z M326.9,508.7v0.7h1.6c1.7,0,4.6-5.3,8.8-15.8v-0.5
		C334.6,493.1,331.1,498.3,326.9,508.7z M330,488.4h1.6c3.2,0,7.5-10,13.1-30.1c0-0.5,1.1-1.6,3.2-3.4c0-1.8,0.5-3,1.6-3.6v-0.5
		l-0.9-2.3c3-5.9-0.7,0.7-11.1,19.7c-0.6,3.3-3.1,9.5-7.5,18.5V488.4z M351.1,467.1h0.5c3.3,0,6-7.9,8.1-23.7h-0.2
		c-0.9,0-2,2.6-3.2,7.9C353.1,458.7,351.4,464,351.1,467.1z M361.2,369l7.5,3.2l4.5-0.9h0.7l5.2,0.5v-0.7c0-0.9-2.1-1.4-6.3-1.6H368
		c-1.8,0-2.7,0.2-2.7,0.7L361.2,369z M374.8,398.2c-7.7,15.5-12.1,23.9-13.1,25.1v1.8c0,0.9,0.8,2.4,2.5,4.5l-2,6.3h0.7
		c3.2-5,7.3-15.8,12.4-32.6l0.7-5.2H374.8z M375.5,389.2v1.6h1.6v-1.6H375.5z M377.5,379.2v1.4c0.6,1.2,1.8,1.8,3.6,1.8l0.5-0.2
		v-1.6l-2-2h-1.1L377.5,379.2z M382.7,379.9v0.9l1.1,1.1h0.5c7.1-1.7,10.6-3,10.6-4.1v-0.2l-0.9-0.9h-1.1
		C386.7,377.3,383.3,378.4,382.7,379.9z M386.6,369.7v0.2c0.1,0.6,0.8,1.1,2,1.6l5.4-0.7v-0.9c-0.2-0.8-0.9-1.1-2.3-1.1h-4.3
		L386.6,369.7z"/>
	<path class="st3" d="M482.3,346.2c2.4,0.3,3.6,0.7,3.6,1.1l-1.4,2v0.7h0.5l16.3-0.5c18.2,0,30.4,4.5,36.4,13.6
		c4.1,5.3,6.7,9,7.9,11.1l1.1,0.5c1.8,0,13.7-5.7,35.7-17.2c2.9-1.2,5.2-1.8,7-1.8c8.4,0,17.4,3.2,26.9,9.5
		c17.6,14.3,26.4,26.3,26.4,35.9c1.7,3.6,5,25,9.9,64.2v8.8c0,2,0.5,3,1.4,3.2h1.1c1.8,0,5.2-0.8,10.2-2.5c3.5,0,5.2,6.1,5.2,18.3
		c0.3,5,0.5,9.7,0.5,14.2c-1.7,0-2.9,0-3.6,0h-0.7c-9.6,1.5-17.5,2.3-23.5,2.3l-9.7-1.1l-18.3,0.5H612c-0.5,0-0.7-0.8-0.7-2.5
		l-4.1-3.8v-0.5l0.9-3.2v-0.7l-1.6-8.4v-4.1c0-2.9,2.2-4.3,6.6-4.3c7.4,1.1,10.5-1.7,9.3-8.4c-0.3-16.3,0.3-28.6,1.8-36.8v-0.5
		l-0.7-19c0-3.2-2.8-7-8.4-11.5l-2.7-0.7h-2l-2.5,1.6c-0.5,0-0.7-1.1-0.7-3.2c-4.7-6.2-12.4-9.3-23.3-9.3
		c-13.4,1.2-21.5,5.2-24.2,12c-0.8,2.3-1.3,7.2-1.6,14.9l0.7,7.2v22.6l-0.2,9c0,9.6,2.6,15.1,7.9,16.3c2.3,0.5,3.4,1.2,3.4,2.3
		c-2.1,9.9-3.5,15.8-4.3,17.4l-7.9,1.6l-26.9-2.3l-3.2,0.7c-3.5,0-5.2-5.4-5.2-16.3v-1.1c0-1.2,3.2-2.8,9.5-4.7
		c1.7,0,2.5-0.8,2.5-2.3c-1.1-4.7-1.6-10.6-1.6-17.9l0.5-34.4c-1.1-4.7-1.6-8.4-1.6-11.1c0.1-5.3,0.8-7.9,1.8-7.9h0.5l2.5,1.6h0.7
		v-0.5c0-4.7-7.2-11.3-21.7-19.9c-4.1-1.5-7.8-2.3-11.1-2.3c-5.7,0-12.4,2.6-19.9,7.9l-0.2,1.6v25.3l0.7,66l1.6,1.1h1.1
		c0.6,0,1.1-0.8,1.4-2.3h0.7c5.6,0,8.9,1.4,9.9,4.3v2.7l0.7,7.2c0.5,8.7-1.8,13.1-6.8,13.1c-1.7,0.6-7.3,1-17,1.1l-40.7-2.7
		c-2.1,0-4.1-6.3-5.9-18.8V485c0-1.7,4.2-3.8,12.7-6.3c0-1.7,4.2-3,12.7-4.1c1.5-0.6,2.3-1.7,2.3-3.2l2-73.5l0.5-17.4
		c0-1.8-2-2.7-5.9-2.7c-4.5,0-9.4,0.5-14.7,1.6c-3.5-2-5.2-4-5.2-6.1c1.7-1.1,2.5-2.7,2.5-5v-2.5c-0.9-5.6-2.1-8.4-3.6-8.4l-0.5-0.2
		v-0.5c1.4-0.8,2.8-2.7,4.3-5.9C449.4,349.1,464.5,347.6,482.3,346.2z M438,483.9c0,2-0.9,3.8-2.7,5.4c1.5,7.2,3,10.8,4.5,10.8h1.1
		l-1.8-16l-0.5-0.2H438z M440,369c0,2.1,1.8,3.2,5.4,3.2c5,0,10-1.6,15.1-4.7v-0.7l-1.4-0.5C446.4,366.3,440,367.2,440,369z
		 M441.1,360.4v1.1l0.7,0.7c8.4,0,12.7-0.5,12.7-1.6l-0.7-0.7H447L441.1,360.4z M443.4,482.5l0.5,4.5h0.5c1.8-2.3,3.9-3.8,6.3-4.5
		v-1.1l-2.7-0.5h-3.2C444,480.9,443.5,481.5,443.4,482.5z M445,492.7v2.3l0.7,0.9h0.9v-2l-1.1-1.1H445z M449,491.3
		c0,2.4,3.6,2.9,10.9,1.4c1.2,1.5,2.4,2.3,3.6,2.3c6.5-0.3,11.9-0.8,16.3-1.6v-1.1l-15.4-0.9v-0.7l4.3-0.9l7,0.5h2.9v-0.5
		c-2.3,2.3-10.9,2.8-25.8,1.6l-1.6-1.1h-1.1L449,491.3z M453.3,353.2l0.9,0.9c4.4-0.3,6.6-0.8,6.6-1.6l-1.8-0.5
		C455.2,352.2,453.3,352.6,453.3,353.2z M458.1,485v1.1l2,0.5h2.7l2-0.5V485l-2-0.5h-2.7L458.1,485z M462.1,471.2
		c0.1,3.2,0.7,4.7,1.6,4.7h0.7c2.6,0,4-1.6,4.3-4.7C471.1,471.2,468.9,471.2,462.1,471.2z M466.4,364.7v0.5h0.7l0.9-0.9v-0.5h-0.9
		L466.4,364.7z M468.7,374.9v15.8c0,3.2-0.5,6.3-1.6,9.3l2,3.4l-0.7,4.7v3.2l0.7,0.9h0.5c1.2,0,2.1-11.5,2.7-34.4v-0.5
		c0-2.3-0.8-3.8-2.3-4.7C469.2,373,468.7,373.7,468.7,374.9z M469.2,413.8v1.6l0.9,0.7h0.2v-1.6l-0.7-0.7H469.2z M473.4,472.3v0.5
		c0,4.2,1.4,6.3,4.1,6.3h1.6c0.5,0,0.7-0.5,0.7-1.4L473.4,472.3z M476.6,356.8v0.5l0.9,0.7h0.5l1.1-0.7l-0.5-1.4h-1.1L476.6,356.8z
		 M477.5,386.9c-0.6,2.6-0.9,6.1-0.9,10.6v4.1l0.5,1.8h0.5c1.4,0,2-2.9,2-8.6v-2.5c0-3.6-0.5-5.4-1.6-5.4H477.5z M477.1,350.9v0.7
		l1.1,1.1c1.7,0,2.5-0.8,2.5-2.3l-0.5-0.5H478L477.1,350.9z M477.1,412.2v1.6l1.6,1.6h0.5l0.7-0.9v-1.6l-1.6-1.6H478L477.1,412.2z
		 M479.5,488.8v0.9h5.9l4.7-0.5v-1.1h-2.5L479.5,488.8z M482,500.1v0.5l0.9,0.7c1.7-0.6,3.1-1.7,4.3-3.2v-0.7
		C485.4,497.4,483.7,498.3,482,500.1z M482.9,364.7l-0.7,1.1l0.7,0.9h0.5l0.9-0.9v-0.7L482.9,364.7z M482.7,374.2v0.7h1.6
		c2.6-0.3,3.8-0.8,3.8-1.6v-0.7h-2.3C483.8,373,482.7,373.5,482.7,374.2z M483.4,356.8l1.1,0.5l20.3-3.6v-0.5h-9.3
		c-8.1,0-12.2,1.1-12.2,3.2V356.8z M483.4,491.8c0,1.7,2,2.7,5.9,3.2l1.6-1.4v-1.1c0-0.9-2.1-1.4-6.3-1.6L483.4,491.8z M490.9,482.5
		v1.6l2,0.5l0.9-1.1l-0.9-0.9H490.9z M492.2,365.2v0.2l16-1.6c5,0,9.7,2,14.2,6.1h0.9v-1.4c-1.2-4.2-3.3-6.3-6.3-6.3h-3.2
		C499.7,362.2,492.5,363.2,492.2,365.2z M499.7,370.2c0,0.5,3,1.4,9,2.9c4.2,2.1,7.7,3.2,10.4,3.2h0.2l0.9-0.9
		c-5-4.2-10.4-6.3-16.3-6.3h-2C500.4,369.2,499.7,369.6,499.7,370.2z M515,356.4v0.9c4.4,1.2,7.4,1.8,9,1.8h0.5v-0.7
		c0-1.2-2.6-1.9-7.9-2H515z M525.4,370.2c0,2,0.9,2.9,2.7,2.9v-0.5c0-1.5-0.7-2.6-2-3.2L525.4,370.2z M529.7,367.9v1.1
		c2,3,3.7,4.9,5.2,5.7h0.7v-0.5c-0.8-2.1-2.6-4.2-5.4-6.3H529.7z M530.9,375.4v0.5c0,2.3,1.9,4.1,5.7,5.4h0.2v-3.2
		c0-0.6-1.8-1.5-5.4-2.7H530.9z M539.2,429.2l-0.5,2.7v11.5l0.5,5.9h1.1c0.8-2.3,1.1-4.9,1.1-7.9v-0.2c-0.2-8-0.8-12-1.8-12H539.2z
		 M539.9,391.2c0,1.7,0.8,2.5,2.5,2.5h0.7v-0.9c-0.5-1.1-1.4-1.6-2.7-1.6H539.9z M540.8,489.7v0.7l2,0.5l1.6-0.5v-0.7l-0.9-0.9h-2
		L540.8,489.7z M547.1,476.6l1.1,1.1h2l1.6-1.6V476L551,475h-2.3L547.1,476.6z M549.2,379.7v2.9l1.1,1.1c2.6,0,5.9-1.9,9.9-5.7v-0.2
		h-7.9C550.8,377.8,549.8,378.5,549.2,379.7z M549.4,397.5l-0.2,1.1c0.1,1.7,0.5,2.5,1.1,2.5h0.7l1.6-1.6v-0.9
		C552.4,397.9,551.4,397.5,549.4,397.5z M549.2,469.6v0.7l1.1,0.5l0.7-1.1l-0.7-0.9h-0.5L549.2,469.6z M562.1,373.8l0.5,0.5h1.6
		c2.9-0.3,4.3-1.2,4.3-2.7l-1.1-0.5C564.2,371.8,562.5,372.7,562.1,373.8z M570.9,370.2v0.5h0.5c1.5,0,5-2.5,10.6-7.5v-0.9
		C574.6,364.4,570.9,367,570.9,370.2z M589,374.7v0.7c0.6,1.1,1.3,1.6,2,1.6c8.4,0,13-0.5,13.8-1.6c-0.8-1.8-4.1-2.7-10.2-2.7h-0.5
		C591.1,372.6,589.4,373.3,589,374.7z M593.5,364.7v0.7c0.1,0.9,1.2,1.4,3.2,1.4h1.1l0.7-0.9c-0.2-0.8-1.2-1.1-3.2-1.1H593.5z
		 M594.6,361.6c0,0.3,1.8,1.1,5.4,2.3c2,2.7,4.2,4.1,6.8,4.1h6.3V367c0-2.1-5.4-4.4-16.3-7h-0.2C595.4,360.4,594.8,361,594.6,361.6z
		 M602.1,386.9c4.5,5,8.7,7.5,12.7,7.5l0.9-0.7v-1.4c-1.4-2.1-3.6-4.2-6.8-6.3H603L602.1,386.9z M618.3,379.7v2
		c1.2,2.6,3.3,5,6.3,7.2v1.1h2v-0.5c0-2.7-2.4-6-7.2-9.9H618.3z M619.5,493.6v0.7h8.4c2,0,3.2-0.5,3.6-1.6c-0.3-0.8-1.1-1.1-2.5-1.1
		h-5C623.1,491.6,621.6,492.2,619.5,493.6z M625.4,398v0.7c1.5,5.6,3,8.4,4.5,8.4h0.2v-0.5c0-2.9-1.4-5.7-4.3-8.6H625.4z
		 M629.4,432.8l-0.5,1.1l0.9,12.2v0.9l1.1,1.1h0.5l1.6-1.6v-12.2l-1.6-1.6H629.4z M629.9,460.8v1.1l0.7,0.9h0.9v-3.2H631
		L629.9,460.8z M630.6,411.8l3.6,5.7h1.1l0.5-2v-2.7c0-1.4-0.4-2.2-1.1-2.5h-2.9C631.1,410.2,630.7,410.7,630.6,411.8z M631,469.9
		v0.2l1.1,1.4l0.9-1.4v-0.7l-0.9-0.9L631,469.9z M632.1,489.1v0.9h4.1c6-0.1,9-0.8,9-2l-1.1-0.7h-0.9
		C635.8,487.3,632.1,487.9,632.1,489.1z M641,478v0.5l1.1,1.1h0.9l1.6-1.6v-1.8l-0.9-0.9h-1.1C641.5,475.7,641,476.6,641,478z
		 M649.5,488.8l0.5,0.2h1.1c1.4,0,2.2-0.4,2.5-1.1v-0.5c0-1.4-0.4-2.1-1.1-2.3C651.4,485.2,650.4,486.4,649.5,488.8z M658.8,483.2
		v3.6l1.1,1.1c0.6,0,1-1.6,1.1-4.7l-0.5-1.1h-0.7L658.8,483.2z"/>
	<path class="st4" d="M772.6,335.1c3.6,0,10.6,1.5,21,4.5c12.2,11.6,19.4,20.6,21.5,26.9c4.4,4.5,8.1,14.1,11.1,28.7
		c3.3,3.2,5,10.6,5,22.4l0.5,7.5l-1.1,31.2c0,6,3.8,13.9,11.5,23.5c6.9,6.8,11.5,10.2,13.8,10.2v0.5c0,2.6-3.7,6.6-11.1,12.2
		c-5.4,5.3-8.9,7.9-10.4,7.9h-0.2c-3.2-0.2-11.6-6.3-25.3-18.5c-12.2,4.5-24.6,9.5-37.3,14.9c-8.3,2.4-17.5,3.6-27.6,3.6h-1.6
		c-11.5-2-21.1-6.3-28.9-13.1c-1.4-1.4-4.4-6.6-9-15.8c-3.8-4.5-5.7-10.2-5.7-17v-9c0-5.7,1.6-11.1,4.7-16.3
		c2.9-8.3,7.6-16.4,14.2-24.4c3.3-4.1,6.6-6.6,9.9-7.7c11-5.7,21.8-8.6,32.3-8.6l14.2-0.5h1.6c8.3,0,14,1.2,17.2,3.6h1.8
		c0.9,0,1.4-0.5,1.4-1.6c-2.1-9.5-5.8-18.9-11.1-28.3c-4.5-7.7-13.1-11.5-25.8-11.5l-12.7-1.6c-11.2,2.1-16.7,4.4-16.7,6.8
		c-4.2,5.4-6.9,12.4-7.9,21c-0.5,1.1-4.2,1.6-11.3,1.6l-2,0.5c-0.8,0-1.8,1.8-3.2,5.4c-5.9-0.9-8.8-2.1-8.8-3.6
		c0.8-1.8,1.6-9.4,2.5-22.8c3.3-9.5,11.2-18.3,23.7-26.4c6-3.5,9.6-5.2,10.6-5.2L772.6,335.1z M710.7,379.4v4.7h0.2
		c0.9-0.1,1.4-0.9,1.4-2.3v-2.5l-0.9-0.7L710.7,379.4z M714.1,356.1h0.5c1.8,0,4.6-2,8.4-5.9v-1.1h-0.5c-2,0-4.7,2.2-8.4,6.6V356.1z
		 M718.1,482.1v0.5l0.7,0.7h1.6v-0.7l-1.1-1.1h-0.5L718.1,482.1z M718.8,498.8v0.2c1.1,2.1,6.3,4.5,15.8,7.2
		c3.5,1.5,7.6,2.3,12.4,2.3v-0.2c0-0.9-4-2.1-12-3.6c-5.1-1.8-9.9-4.1-14.2-6.8h-1.1L718.8,498.8z M722.9,418.3v1.4h0.7
		c1.5,0,2.6-0.7,3.2-2v-0.9h-0.2L722.9,418.3z M722.9,446.6c1.4,12.7,3.1,19,5.2,19l3.2,3.8v0.5l-2.9-0.5v0.9
		c4.4,5.3,12.6,10.4,24.6,15.4c1.7,0.8,3.8,1.3,6.3,1.6c4.2,0,18.7-6.1,43.4-18.3c1.7-0.9,2.5-2.1,2.5-3.6v-1.6
		c-1.8-8.4-3.4-18.5-4.7-30.1l-0.5-0.2c0-2.3-2.3-4.1-7-5.7c-15.4-4.4-25.9-6.6-31.6-6.6c-15.7,3.6-26.7,8.9-33,15.8
		C724.7,441,722.9,444.2,722.9,446.6z M742.3,345.5v0.7c0.1,0.9,1.2,1.4,3.2,1.4c2,0,4.6-0.7,7.9-2v-1.1H752
		C747.7,344.4,744.4,344.8,742.3,345.5z M752.9,494.3c0.5,1.1,1.4,1.6,2.7,1.6c2.1-0.1,3.2-0.7,3.2-1.6V494l-0.7-0.9h-4.1
		L752.9,494.3z M756.1,354.6l1.1,1.6h4.1l0.7-0.7V355l-1.6-1.6h-2.7L756.1,354.6z M767.9,342.4l1.4,1.1h1.6l0.7-0.7l-1.1-1.4h-1.6
		L767.9,342.4z M778.9,490v0.5h1.6c3,0,6.9-1.2,11.5-3.6v-0.5h-1.1C783.7,487.4,779.7,488.6,778.9,490z M792,343.9v0.7
		c1.5,1.7,2.9,2.5,4.3,2.5h0.5v-0.9c-1.5-1.5-2.9-2.3-4.3-2.3H792z M807.2,451.5v1.6l1.1,1.4h0.5l1.1-1.4v-1.6l-0.9-0.7h-1.1
		L807.2,451.5z M807.9,440.9l0.9,1.1l1.1-0.2v-0.9l-0.9-0.7h-0.2L807.9,440.9z M816.7,425.5v1.1h0.7v-0.5L816.7,425.5z M816.9,432.3
		v1.1l0.9,0.7l0.7-0.7v-1.1H816.9z M817.4,415.6v0.9c0.9,3.2,1.8,4.7,2.7,4.7h0.5c0-2.7-0.7-4.8-2-6.3h-0.2L817.4,415.6z
		 M818.9,440.9v0.5c0.3,7.8,1.1,11.8,2.5,11.8l0.7-0.7V452c0-4.2-0.7-7.9-2-11.1H818.9z M823.7,486.4c0.6,1.5,1.4,2.5,2.5,2.9h0.2
		l1.4-1.4v-0.7l-1.6-1.6h-1.6L823.7,486.4z M825.3,403.8v0.7c0.1,1.7,0.5,2.5,1.1,2.5l0.5-1.6c-0.5-1.1-0.8-1.6-1.1-1.6H825.3z
		 M830.9,492v0.7l1.1,1.4h1.6l0.7-0.9v-0.5l-1.6-1.6h-1.1L830.9,492z M833.6,480.5v2c0.8,2.6,1.7,3.8,2.7,3.8h0.9v-0.7
		c-0.9-3.5-1.9-5.2-2.9-5.2H833.6z"/>
	<path class="st5" d="M1003.3,359.8c8.1,0,15,5.8,20.6,17.4c1.2,0,2.7,1.4,4.5,4.1l4.3,23.3c-1.8,2.4-7.4,3.6-16.7,3.6h-3.2
		c-7.8-1.1-11.8-3.7-11.8-7.9c0-3-2.4-7-7.2-12c-0.6-1.1-5.1-1.6-13.3-1.6c-8.3,0-17.9,2.1-28.9,6.3c-7.5,7.7-12.8,14.2-15.8,19.4
		c1.5,38,2,60.4,1.6,67.4c0,1.8,1.3,2.7,3.8,2.7h7.7c3.3,0.2,5,0.7,5,1.6v0.5l1.1,4.3l-0.7,17.4l-1.8,2.5l-14.7,1.4h-1.4l-6.3,2
		c-24-0.8-35.9-1.7-35.9-2.7c-4.2,0-6.3-1.9-6.3-5.7c-0.5-2.9-0.7-6.8-0.7-11.8c0-3.9,4.1-6.6,12.2-7.9c0-1.7,2.8-2.5,8.4-2.5
		l1.1-0.2v-0.5l-2-85.9c0-5.3-1.3-7.9-3.8-7.9h-2c-2.6,0-6.8,1.1-12.7,3.2l-0.5-0.5v-0.7c0-0.5,0.8-1,2.5-1.6v-0.5
		c-2.1,0-3.2-6-3.2-17.9c-0.3,0-0.6-1.8-0.9-5.4c8.6-6.6,17.3-9.9,26.2-9.9h7.9c2.7,0,8,1.1,15.8,3.2l0.5,1.1
		c-2,2.6-2.9,4.7-2.9,6.3v2C950.5,358.9,973.7,356.6,1003.3,359.8z M891.4,497.9l-0.9,1.1v1.4l0.9,0.7h1.1v-2L891.4,497.9z
		 M894.5,366.1c1.2,1.7,2.9,2.5,5.2,2.5l0.5-0.5v-2.3l-1.6-1.4C895.9,364.8,894.5,365.3,894.5,366.1z M898.2,502.6v0.5
		c0,1.1,3,1.6,9,1.6h9.5l2-0.5c0-1.1-5.6-1.8-16.7-2.3L898.2,502.6z M899.3,378.5v0.7h1.1c2.1,0,3.3-0.5,3.6-1.6l-0.7-0.7h-0.5
		C900.8,376.9,899.6,377.5,899.3,378.5z M899.3,497.9l0.5,0.5h17.4v-0.9l-10.9-0.2H900L899.3,497.9z M907.6,359.8v1.6l2,2h2.7v-0.7
		l-3.6-2.9H907.6z M921,407.2v1.6c1.1,1.8,1.6,4.1,1.6,6.8c-0.5,0.9-0.8,5.1-1.1,12.7l0.9,12.7h0.2c0.9,0,1.7-9.6,2.5-28.9
		c0.5,0,0.7-2.2,0.7-6.6c-0.3-2-0.8-2.9-1.6-2.9h-0.7C921.8,403.5,921,405.1,921,407.2z M923.5,390.7l-1.6,6.3c0,1.4,0.7,2.4,2,3.2
		h0.2c0.9,0,1.4-1.4,1.6-4.3l-1.1-5.2H923.5z M926.2,499.5l0.7,0.9h4.7l1.4-1.4c0-0.6-0.5-1-1.6-1.1
		C927.9,498.2,926.2,498.7,926.2,499.5z M928.2,367v0.5l0.7,0.7l1.4-1.1v-1.1h-0.9L928.2,367z M928.9,360.7v1.6h1.4l1.1-1.1v-0.5
		l-1.1-0.5L928.9,360.7z M928.9,465.8v2.5h1.1l1.4-1.1v-1.6l-0.9-0.9H930L928.9,465.8z M929.3,471.9v1.1h0.7v-1.1H929.3z
		 M935.2,380.8v0.9l0.9,0.7h1.1l0.9-0.7v-0.9l-1.6-0.5L935.2,380.8z M956.7,373.3v0.7c1.8,0,4.2-3,7.2-9v-1.6h-0.2
		C958.1,364.9,955.8,368.2,956.7,373.3z M968.5,366.5l1.4,6.3h2.7l-0.2-6.8l-0.7-0.9h-0.9C969.2,365.5,968.5,365.9,968.5,366.5z
		 M975.9,364.1v0.5l0.7,0.7h3.2c1.4,0,2.2-0.4,2.5-1.1l-0.5-0.5h-2L975.9,364.1z M986.1,363.4v0.7h2l1.1-1.1l-0.7-0.9
		C986.9,362.3,986.1,362.8,986.1,363.4z M994,365.2v0.5h1.4l0.7-0.7v-0.5h-1.1L994,365.2z M996.9,383.5h1.4c1.4-0.5,3.5-2.9,6.3-7.5
		v-0.5c0-0.5-0.5-0.7-1.4-0.7c-3.6,1.5-5.4,3.8-5.4,6.8C997.4,381.7,997.1,382.3,996.9,383.5z M1005.8,391.9v0.9h0.7l1.4-1.4v-0.7
		h-0.5C1006.3,391.2,1005.8,391.6,1005.8,391.9z M1006,364.1v0.5l0.7,0.7h1.4l0.7-0.7v-0.5l-0.7-0.7h-1.4L1006,364.1z M1015.7,374.5
		v0.9c1.2,1.8,2.6,2.7,4.3,2.7h0.7v-0.9c-1.4-1.8-2.8-2.7-4.3-2.7H1015.7z"/>
	<path class="st6" d="M1119.5,360.9c2.7,13.4,2.6,20.2-0.3,20.2c-2.9,0.1,0.8,12.1,11.2,36.1c4.8,12.1,8.5,20.5,11.1,25.3
		c5.7,14.8,9.7,22.2,12,22.2c0.5,0,1.5,1.4,3.2,4.1l0.5,0.5h3.2c2.4,0,6.3-9.1,11.8-27.4c21.8-40.2,27.1-59.2,15.8-57
		c1.1-8.3,1.4-15.5,0.9-21.7l1.6-0.9c27.1,0.5,40.7,1.4,40.7,2.9c1.2,0,1.8,5.4,1.8,16.3c-1.5,6.2-3.4,9.3-5.7,9.3
		c-4.4-0.3-5.2,0-2.5,0.9h-2c-8.1,13.9-12.2,22.8-12.2,26.9c-2.7,10.1-6,17.3-9.9,21.7c-6.6,19-11.6,31.9-14.9,38.7
		c-1.4,1.5-2.9,6.9-4.5,16.3l-13.3,22.2c-6.6,14.6-15.6,28.6-26.9,42l-15.1,10.2c-6.3,1.7-11.3,2.5-14.9,2.5
		c-15.5,0-23.3-1.5-23.3-4.5c-1.7-1.1-3-4.1-4.1-9c-2.9-2.6-6.7-13.5-11.5-32.8v-0.5c0-2.1,2.1-3.2,6.3-3.2c3.6,0,9.9-2,18.8-5.9
		c2.7,0,6.5,9.6,11.3,28.9c1.5,4.4,2.7,6.6,3.6,6.6h2.5c1.8-0.6,3.5-3.1,5-7.5c1.1,0,5.2-5.4,12.4-16.3c3.3-6.9,6.7-13.1,10.2-18.5
		l0.9-3.6v-6.3c-0.2-3.2-2.4-7.9-6.8-14.2c-4.5-8.1-7.8-14.8-9.9-20.1c-9.9-27-21.1-51.5-33.5-73.5c-1.1-0.8-2-1.1-2.9-1.1
		l-19.2,0.7l-0.9-0.7l-0.5-10.6l-0.9-13.6l5.7-2.3l31-2.9h0.5l5.4,0.5L1119.5,360.9z M1072.8,381.5l-0.5,0.2v2.5l1.4,1.1h4.3
		c4.2-0.1,6.3-0.7,6.3-1.6C1084.3,382.7,1080.4,381.9,1072.8,381.5z M1085.9,527.3c1.4,2,2.3,4.1,2.7,6.3l2.3,2.3l1.4-0.2v-1.4
		c0-3-1.4-5.7-4.1-7.9h-1.6L1085.9,527.3z M1092.2,542v0.7c0,2.3,0.9,4,2.7,5.2l0.7-0.9v-0.7c0-1.7-0.9-3.1-2.7-4.3H1092.2z
		 M1099.2,553.7v0.9l1.6,1.6h2.7l0.9-0.9c0-0.8-1.1-1.3-3.2-1.6H1099.2z M1100.8,385.3c0,2.9,1.5,6.2,4.5,9.9h0.2v-3.6
		c0-3.6-0.9-6-2.7-7h-1.1L1100.8,385.3z M1104.9,563.2c0.8,1.7,2.2,2.5,4.3,2.5h4.3l0.9-0.9v-0.7c0-0.8-1.4-1.3-4.1-1.6h-4.7
		L1104.9,563.2z M1116.2,559.6l5.7,4.1h1.6c0.8-0.3,1.1-1.1,1.1-2.5v-1.6c-0.3-0.8-1.1-1.1-2.3-1.1h-2.9
		C1117.4,558.5,1116.3,558.8,1116.2,559.6z M1127.7,452.9v0.7l0.9,0.9h0.2l0.9-0.9v-0.2l-1.1-1.4L1127.7,452.9z M1127.7,546.3v0.5
		c2.1,0,4.2-2.6,6.3-7.7v-0.2h-0.5C1130.9,540.2,1128.9,542.6,1127.7,546.3z M1129.7,439.3v0.5c4.5,12.4,7.2,18.5,7.9,18.5l0.5-0.2
		v-0.5c-4.1-12.2-6.7-18.3-7.9-18.3H1129.7z M1132.4,556.9l0.5,0.5h0.5c5.6-2.7,9-5.7,10.2-8.8c-0.9-0.8-1.8-1.1-2.7-1.1h-1.1
		c-2.1,0-3.6,1.9-4.5,5.7L1132.4,556.9z M1137.2,460.8v0.5l2,1.8c0.5,0,0.7-0.4,0.7-1.1c-0.5-1.2-1-1.9-1.6-2h-0.2L1137.2,460.8z
		 M1149.2,498.8v0.7h0.2c1.7,0,2.5-0.8,2.5-2.3v-2h-1.1C1149.7,495.6,1149.2,496.8,1149.2,498.8z M1155.5,523.7l0.7,0.9
		c1.8-1.4,2.7-2.9,2.7-4.5h-0.7L1155.5,523.7z M1160.9,508.7v0.7h1.6c1.7,0,4.6-5.3,8.8-15.8v-0.5
		C1168.6,493.1,1165.1,498.3,1160.9,508.7z M1164.1,488.4h1.6c3.2,0,7.5-10,13.1-30.1c0-0.5,1.1-1.6,3.2-3.4c0-1.8,0.5-3,1.6-3.6
		v-0.5l-0.9-2.3c3-5.9-0.7,0.7-11.1,19.7c-0.6,3.3-3.1,9.5-7.5,18.5V488.4z M1185.1,467.1h0.5c3.3,0,6-7.9,8.1-23.7h-0.2
		c-0.9,0-2,2.6-3.2,7.9C1187.1,458.7,1185.4,464,1185.1,467.1z M1195.3,369l7.5,3.2l4.5-0.9h0.7l5.2,0.5v-0.7c0-0.9-2.1-1.4-6.3-1.6
		h-4.7c-1.8,0-2.7,0.2-2.7,0.7L1195.3,369z M1208.8,398.2c-7.7,15.5-12.1,23.9-13.1,25.1v1.8c0,0.9,0.8,2.4,2.5,4.5l-2,6.3h0.7
		c3.2-5,7.3-15.8,12.4-32.6l0.7-5.2H1208.8z M1209.5,389.2v1.6h1.6v-1.6H1209.5z M1211.6,379.2v1.4c0.6,1.2,1.8,1.8,3.6,1.8l0.5-0.2
		v-1.6l-2-2h-1.1L1211.6,379.2z M1216.8,379.9v0.9l1.1,1.1h0.5c7.1-1.7,10.6-3,10.6-4.1v-0.2l-0.9-0.9h-1.1
		C1220.7,377.3,1217.4,378.4,1216.8,379.9z M1220.6,369.7v0.2c0.1,0.6,0.8,1.1,2,1.6l5.4-0.7v-0.9c-0.2-0.8-0.9-1.1-2.3-1.1h-4.3
		L1220.6,369.7z"/>
	<path class="st7" d="M294.6,609.8h0.7c2.7,0,5.5,0.9,8.6,2.7c1.7,1.6,2.7,2.4,3.2,2.4h0.4c0.5-0.2,0.7-0.5,0.7-0.9v-0.1l-0.4-1.2
		c0-0.2,0.2-0.3,0.5-0.4c0.3,0.1,0.7,0.3,1,0.6h0.1v-0.2c0-0.6-0.4-1.2-1.2-1.9c0.3-0.2,0.8-0.2,1.6-0.2c0.3,0,1.3,0.5,3,1.6
		c0.3,0,0.5,0.2,0.5,0.6v7.5c0,3.5-0.3,5.5-0.8,6l-0.1,0.3l0.2,0.3v0.1c0,0.8-1.2,1.2-3.5,1.2c-0.5,0.3-0.8,0.4-1,0.4h-0.3
		c0-0.9-0.6-2.4-1.8-4.6c-0.8-3.5-1.7-5.5-2.6-6.2c-0.8-1-3.2-1.9-7.1-2.5l-2.4-0.2l-3.1,0.3l-0.6-0.6c-1,0.1-2.7,1.2-5.1,3.5
		l-0.2,0.7v0.1h0.3c2.3-1.9,3.9-3,4.7-3.3v0.1c-1.2,1.2-3.5,3-7,5.3c-1.5,1.1-2.6,2.6-3.3,4.4c-1.3,3.1-1.9,6.1-1.9,9
		c0,5.1,0.6,8.8,1.8,11c2.2,5.8,4.6,10,7.4,12.4c3.6,2,7,2.9,10.2,2.9h1.2c1.6,0,3.3-0.6,5.2-1.7c0.5-1.1,1.9-2.6,4.2-4.4
		c1.8-1.4,2.7-2.6,2.7-3.5v-0.3l-0.1-2.1c0-0.2,0.3-0.5,1-0.9c0-0.2,0.1-0.4,0.4-0.5h0.2l1.9,0.3h1.4c0.4,0,0.6,0.4,0.6,1.1
		c0.5,2.6,0.8,4.4,0.8,5.5c0,2.7-0.3,4.9-1,6.7v0.3l0.1,0.6l-0.4,0.6v0.1c0,0.1,0.4,0.2,1.3,0.4v0.2l-5.2,2.5h-0.2
		c-0.7-1-1.4-2.2-1.9-3.9l-0.1-0.1h-0.1c-0.9,0.3-2.1,1-3.6,1.9c-4.1,1.8-6.7,2.7-7.7,2.7l-4.8-1.5l-0.9-0.1h-0.5l-1,0.3
		c-1.3,0-3.3-0.6-6-1.7c-2.2-0.6-4.1-2-5.5-4.4c-3.8-5.5-5.6-9.6-5.6-12.5c-0.5-2-0.7-3.4-0.7-4.4c0.1-0.5,0.4-0.8,1-0.8l0.1,0.7
		v0.5h0.4l0.3-0.3v-0.3c0-0.8-0.6-1.3-1.8-1.5c-0.2,0-0.3-2.9-0.4-8.7c0-1.3,0.7-3.6,2.2-7.1c0.2,0,0.3-0.7,0.4-2.2
		c0.2-0.1,0.4-0.7,0.6-1.9c1.5-1.8,3.5-3.4,5.9-5c1.1-1,2.7-2,4.7-2.8C290.2,610.7,293,609.8,294.6,609.8z M273.5,633.6v0.4h0.3
		l0.2-0.2l-0.2-0.2H273.5z M274.1,630.9l-0.3,1.2v0.7h0.2c0.2,0,0.3-0.3,0.3-0.8v-1.1H274.1z M274.1,643.3v0.2l0.3,0.3h0.1v-0.3
		l-0.2-0.2H274.1z M274.5,637.4l-0.1,0.5v0.7l0.3,0.3l0.2-0.2v-0.5C274.9,637.7,274.8,637.4,274.5,637.4L274.5,637.4z M276,646.6
		c0,0.3,0.1,0.6,0.4,0.7h0.1l0.2-0.2v-0.2l-0.4-0.4L276,646.6z M276.1,640.1v1.4c0.1,1.2,0.8,2.8,2.2,4.7l0.1,0.1h0.3V646
		c-1-3.1-1.7-6.1-2.1-9.2h-0.1C276.2,636.9,276.1,637.9,276.1,640.1z M276.1,648.7v0.2c0.3,1.2,0.6,1.7,0.9,1.7h0.1
		c0.2,0,0.2-0.1,0.2-0.3L276.1,648.7L276.1,648.7z M276.7,630.1v0.2h0.3l0.3-0.3v-0.6h-0.2C276.8,629.5,276.7,629.8,276.7,630.1z
		 M277.6,654.1l0.2,0.2h0.1l0.2-0.2l-0.2-0.2h-0.1L277.6,654.1z M278,620.3c0.6,0,1.1-0.2,1.4-0.7v-0.2h-0.3
		C278.5,619.4,278.1,619.7,278,620.3z M278.5,655.1v0.1c0,0.2,0.2,0.6,0.5,1.1h0.3v-0.1C279.3,655.8,279.1,655.5,278.5,655.1
		L278.5,655.1z M279.8,657c0.3,1.2,0.9,2,1.6,2.4h0.4v-0.5c-0.4-0.7-1-1.4-1.8-1.9H279.8z M280.4,653.6L280.4,653.6
		c0.9,1.7,1.6,2.6,2.2,2.6v-0.4C281.5,654.4,280.8,653.7,280.4,653.6z M283.1,656.7c0,0.7,0.5,1.1,1.5,1.4h0.2l0.3-0.3
		c-0.5-0.6-1-1-1.7-1.2L283.1,656.7z M283.3,618.4h0.3l0.3-0.3v-0.2C283.5,617.9,283.3,618.1,283.3,618.4z M283.8,661.6v0.1
		c0,0.2,1.2,0.6,3.5,1.3c0,0.2,0.5,0.3,1.4,0.3l0.3-0.1v-0.1c-0.1-0.2-1.1-0.7-2.9-1.4c-0.2-0.2-0.6-0.3-1.3-0.3H284L283.8,661.6z
		 M284.2,617.4h0.2c0.3-0.1,0.5-0.2,0.5-0.4v-0.1h-0.1C284.6,617,284.4,617.1,284.2,617.4z M285,614.1v0.2h0.1c1-0.3,2-0.8,3.1-1.5
		v-0.1l-0.1-0.1H288C286.7,612.8,285.7,613.4,285,614.1z M285.5,659.3L285.5,659.3c0,0.3,0.7,0.5,2.1,0.8V660
		c-0.3-0.5-0.8-0.7-1.7-0.7H285.5z M287.8,661.3l-0.1,0.1v0.1c1.3,0.9,3.1,1.4,5.1,1.4h0.5l0.2-0.2
		C290.8,661.8,288.9,661.3,287.8,661.3z M291.9,611.6v0.2h0.2c0.7-0.1,1-0.2,1-0.4l-0.2-0.2h-0.1C292.3,611.2,292,611.3,291.9,611.6
		z M294.3,662.3c0.7,0.7,1.7,1,3.2,1c1.8-0.2,2.7-0.4,2.7-0.8v-0.1c0-0.3-0.7-0.4-2-0.4h-1.2C295.2,662,294.3,662.1,294.3,662.3z
		 M296.4,665.1v0.3l1.2,0.2h0.5c0.5,0,1.8-0.6,4-1.7v-0.3h-0.1c-0.5,0-1.6,0.3-3.3,1L296.4,665.1z M296.7,613.3
		c0,0.2,1.2,0.5,3.5,0.9l0.4,0.3h0.5l0.3-0.3v-0.1c-0.5,0-1.1-0.3-1.7-0.9c-1-0.4-1.7-0.6-2.2-0.6
		C297,612.7,296.7,612.9,296.7,613.3z M297.2,611.2l-0.1,0.1v0.2l1.2,0.2h0.2l0.2-0.2C298.7,611.3,298.2,611.2,297.2,611.2z
		 M303.5,662.5L303.5,662.5l0.3,0.1l0.2-0.2l-0.1-0.1h-0.2L303.5,662.5z M306,615.7v0.2c0.4,0.6,0.8,0.9,1.2,0.9h0.1l0.2-0.2v-0.1
		c-0.5-0.5-0.9-0.8-1.3-0.8H306z M307,618.4v0.2l0.3,0.1l0.2-0.3l-0.2-0.2h-0.1L307,618.4z M307.5,660.4v0.1h0.1
		c0.4,0,0.7-0.2,0.8-0.5v-0.1h-0.1C308,659.8,307.7,660,307.5,660.4z M308.6,625.3v0.2c0.9-0.3,1.4-0.5,1.4-0.8
		c0-0.2-0.2-0.3-0.5-0.5h-0.2C308.9,624.5,308.6,624.9,308.6,625.3z M308.6,626.9v0.4h0.3c0.3,0,0.6-0.1,0.7-0.4v-0.1l-0.2-0.2h-0.5
		L308.6,626.9z M309.2,656.2v0.1h0.2l0.4-0.2v-0.3h-0.1C309.3,656,309.2,656.1,309.2,656.2z M309.7,623.5v0.2l0.3,0.1l0.2-0.2
		l-0.1-0.3H310L309.7,623.5z M309.7,654.9v0.2h0.4l0.2-0.2v-0.2H310L309.7,654.9z M311.8,663.3v0.3l0.4,0.4h0.4
		c1.3-0.3,1.9-0.5,1.9-0.7v-0.1H313L311.8,663.3z M312.2,650.9v0.1l0.4,0.4h0.1c0.7-0.1,1-0.2,1-0.4v-0.1l-0.2-0.2h-1.1L312.2,650.9
		z M312.2,653v1l0.3,0.3h0.1l0.2-0.2v-0.6c0-0.3-0.1-0.6-0.4-0.7L312.2,653z M312.4,654.7v0.3h0.2l0.2-0.2v-0.1H312.4z M312.7,660.5
		l0.2,0.3l0.3-0.1v-0.2l-0.2-0.2h-0.1L312.7,660.5z M313,656.7v0.6l0.2,0.2h0.1v-0.6l-0.2-0.2H313z M313.2,652.6v0.3
		c0.2,0.3,0.4,0.5,0.6,0.5c0.2-0.2,0.3-0.5,0.3-0.9V652c0-0.2-0.1-0.2-0.3-0.2C313.5,651.9,313.2,652.2,313.2,652.6z"/>
	<path class="st7" d="M354.7,625.3c2.1,0,3.8,1.5,5.2,4.4c0.3,0,0.7,0.3,1.2,1l1.1,5.9c-0.5,0.6-1.9,0.9-4.3,0.9h-0.8
		c-2-0.3-3-0.9-3-2c0-0.8-0.6-1.8-1.8-3.1c-0.2-0.3-1.3-0.4-3.4-0.4c-2.1,0-4.6,0.5-7.4,1.6c-1.9,2-3.3,3.6-4,5
		c0.4,9.7,0.5,15.4,0.4,17.2c0,0.5,0.3,0.7,1,0.7h2c0.8,0,1.3,0.2,1.3,0.4v0.1l0.3,1.1l-0.2,4.4l-0.5,0.6l-3.7,0.3h-0.3l-1.6,0.5
		c-6.1-0.2-9.2-0.4-9.2-0.7c-1.1,0-1.6-0.5-1.6-1.4c-0.1-0.7-0.2-1.7-0.2-3c0-1,1-1.7,3.1-2c0-0.4,0.7-0.6,2.1-0.6l0.3-0.1v-0.1
		l-0.5-21.9c0-1.3-0.3-2-1-2h-0.5c-0.7,0-1.7,0.3-3.2,0.8l-0.1-0.1v-0.2c0-0.1,0.2-0.2,0.6-0.4v-0.1c-0.5,0-0.8-1.5-0.8-4.6
		c-0.1,0-0.2-0.5-0.2-1.4c2.2-1.7,4.4-2.5,6.7-2.5h2c0.7,0,2,0.3,4,0.8l0.1,0.3c-0.5,0.7-0.7,1.2-0.7,1.6v0.5
		C341.3,625.1,347.2,624.5,354.7,625.3z M326.2,660.5l-0.2,0.3v0.3l0.2,0.2h0.3v-0.5L326.2,660.5z M327,626.9
		c0.3,0.4,0.8,0.6,1.3,0.6l0.1-0.1v-0.6l-0.4-0.3C327.3,626.6,327,626.8,327,626.9z M327.9,661.7v0.1c0,0.3,0.8,0.4,2.3,0.4h2.4
		l0.5-0.1c0-0.3-1.4-0.5-4.3-0.6L327.9,661.7z M328.2,630.1v0.2h0.3c0.5,0,0.8-0.1,0.9-0.4l-0.2-0.2h-0.1
		C328.6,629.7,328.3,629.8,328.2,630.1z M328.2,660.5l0.1,0.1h4.4v-0.2l-2.8-0.1h-1.6L328.2,660.5z M330.3,625.3v0.4l0.5,0.5h0.7
		v-0.2l-0.9-0.7H330.3z M333.7,637.4v0.4c0.3,0.5,0.4,1,0.4,1.7c-0.1,0.2-0.2,1.3-0.3,3.2l0.2,3.2h0.1c0.2,0,0.4-2.5,0.6-7.4
		c0.1,0,0.2-0.6,0.2-1.7c-0.1-0.5-0.2-0.7-0.4-0.7h-0.2C333.9,636.5,333.7,636.9,333.7,637.4z M334.4,633.2l-0.4,1.6
		c0,0.3,0.2,0.6,0.5,0.8h0.1c0.2,0,0.4-0.4,0.4-1.1l-0.3-1.3H334.4z M335,660.9l0.2,0.2h1.2l0.3-0.3c0-0.2-0.1-0.2-0.4-0.3
		C335.5,660.6,335,660.7,335,660.9z M335.6,627.2v0.1l0.2,0.2l0.3-0.3v-0.3h-0.2L335.6,627.2z M335.7,625.6v0.4h0.3l0.3-0.3v-0.1
		l-0.3-0.1L335.7,625.6z M335.7,652.4v0.6h0.3l0.3-0.3v-0.4l-0.2-0.2H336L335.7,652.4z M335.9,653.9v0.3h0.2v-0.3H335.9z
		 M337.4,630.7v0.2l0.2,0.2h0.3l0.2-0.2v-0.2l-0.4-0.1L337.4,630.7z M342.8,628.8v0.2c0.5,0,1.1-0.8,1.8-2.3v-0.4h-0.1
		C343.2,626.6,342.6,627.5,342.8,628.8z M345.8,627.1l0.3,1.6h0.7l-0.1-1.7l-0.2-0.2h-0.2C346,626.8,345.8,626.9,345.8,627.1z
		 M347.7,626.4v0.1l0.2,0.2h0.8c0.3,0,0.6-0.1,0.6-0.3l-0.1-0.1h-0.5L347.7,626.4z M350.3,626.3v0.2h0.5l0.3-0.3l-0.2-0.2
		C350.5,626,350.3,626.1,350.3,626.3z M352.3,626.7v0.1h0.3l0.2-0.2v-0.1h-0.3L352.3,626.7z M353.1,631.4h0.3
		c0.3-0.1,0.9-0.7,1.6-1.9v-0.1c0-0.1-0.1-0.2-0.3-0.2c-0.9,0.4-1.4,1-1.4,1.7C353.2,630.9,353.1,631.1,353.1,631.4z M355.3,633.5
		v0.2h0.2l0.3-0.3v-0.2h-0.1C355.5,633.3,355.3,633.4,355.3,633.5z M355.4,626.4v0.1l0.2,0.2h0.3l0.2-0.2v-0.1l-0.2-0.2h-0.3
		L355.4,626.4z M357.9,629.1v0.2c0.3,0.5,0.7,0.7,1.1,0.7h0.2v-0.2c-0.3-0.5-0.7-0.7-1.1-0.7H357.9z"/>
	<path class="st7" d="M390,622.5c2.2,0,5,0.9,8.2,2.8c2.7,2,4.1,3.4,4.1,4.2c2.1,4.6,3.2,7.3,3.2,8.1l0.1,0.6
		c-0.8,1.8-1.2,3.1-1.2,3.8l-0.5,0.1H397c-0.7,0-1.4,0.1-2.2,0.3c-7.7-0.6-13.1-0.9-16.1-0.9h-1.7c-0.7,1-1,1.6-1,2
		c0.4,0.7,0.6,1.6,0.6,2.8c0,2.1,0.3,3.3,0.9,3.6l0.1,0.4v0.1l-0.5-0.2v0.2l0.8,0.8c0,0.8,0.5,1.7,1.4,2.7c1.7,3.1,3.6,5,5.7,5.8
		c1.7,0.6,3.7,0.9,6,0.9c0.3,0,1.1-0.3,2.2-1c1-0.3,3.1-2.1,6-5.2V654c0-0.1-0.3-0.2-1-0.3l-0.2-0.4c1.2-2.4,2.7-3.9,4.4-4.6
		c0.2,0.2,1.2,1,2.9,2.2c1.2,1.9,2.8,4,4.7,6.5v0.3c-1.7,2.2-3,3.3-3.7,3.3h-0.3c0-1.2-0.7-1.9-2.1-2c-0.3,0-1.5,0.9-3.5,2.7
		c-1.1,0.9-3.2,1.8-6.3,2.7c-3.6,0.7-6,1.1-7.4,1.1l-4.6-1.6c-2.5,0-4.9-1.4-7-4.1c-0.9-0.9-1.7-2.1-2.2-3.5c0-0.3-0.6-2.6-1.8-6.6
		c-0.3-1.7-0.5-3.2-0.5-4.4V645c0-7.2,2.1-13.4,6.3-18.7c0.6-1.3,1.9-2.3,3.7-2.9c1.1-0.3,2.7-0.6,4.6-0.9
		C385.8,622.3,387.4,622.3,390,622.5z M372.1,642.8L372,643v0.2l0.1,0.1c-0.1,0.3-0.2,0.6-0.2,1.1v0.3c0,0.9,0.3,1.7,0.8,2.6h0.2
		C372.9,644.7,372.6,643.2,372.1,642.8z M372.1,639.9l-0.1,0.5c0,0.3,0.1,0.5,0.3,0.5c0.2,0,0.3-0.3,0.4-0.8l-0.3-0.2H372.1z
		 M373.1,635.6c-0.4,0.4-0.8,1.5-1,3.2h0.1c0.3,0,0.8-0.9,1.4-2.8C373.5,635.7,373.4,635.6,373.1,635.6z M373.2,649.8v0.2l0.2,0.2
		h0.2V650l-0.2-0.2H373.2z M374,651.2l-0.1,0.1v0.1c0.3,0.9,0.6,1.3,0.9,1.3l0.1-0.1v-0.1C374.9,652.1,374.6,651.7,374,651.2z
		 M376.3,640.7L376.3,640.7l0.1,0.1l1.4-0.2v-0.1l-0.3-0.3h-0.2C376.8,640.1,376.5,640.3,376.3,640.7z M376.4,631L376.4,631l0.2,0.1
		l0.2-0.2v-0.1h-0.2L376.4,631z M376.4,636.1v0.3l0.2,0.2h0.1c0.4-0.2,0.7-0.5,0.9-0.9v-0.2h-0.3
		C376.9,635.5,376.6,635.7,376.4,636.1z M377.2,634v0.2c0,0.7,4.8,1.4,14.5,2l0.8,0.3l1-0.1c2.3,0.7,3.7,1.1,4.3,1.1
		c0,0.2,0.2,0.3,0.5,0.3c0.3-0.4,0.5-0.9,0.5-1.3V635c0-0.7-1.3-2.3-4-4.7c-1.2-1.2-2.5-1.9-4.1-2.1l-2.7-0.4
		c-4.4,0.8-7.3,1.9-8.7,3.2C378.8,632,378.1,633,377.2,634z M377.3,632.8v0.1c0.3-0.1,0.4-0.3,0.4-0.7v-0.1
		C377.4,632.2,377.3,632.4,377.3,632.8z M377.5,660.2v0.3c0,0.3,0.5,0.6,1.4,0.9l0.3,0.3v-0.1c-0.7-0.8-1.1-1.3-1.4-1.4H377.5z
		 M378.1,629.2v0.2h0.1c0.7-0.2,1.1-0.4,1.1-0.6v-0.1h-0.4C378.6,628.7,378.3,628.9,378.1,629.2z M378.5,640.1v0.4h0.4v-0.3
		l-0.1-0.1V640L378.5,640.1z M379.4,625.5v0.1l0.2,0.2h0.1c1.1-0.3,1.6-0.5,1.6-0.8v-0.5l-0.3-0.3h-0.2
		C379.9,624.5,379.4,624.9,379.4,625.5z M380.5,639.3v0.2c1.3,0.3,4.1,0.5,8.5,0.7l0.1,0.1v0.1l-1.7,0.2c0,0.2,0.7,0.3,2.1,0.3
		c2.2,0,3.3-0.1,3.3-0.4C392.7,640,388.7,639.6,380.5,639.3z M381.3,636.6v0.2c1,0.7,2.9,1,5.5,1h0.7l1-0.1v-0.3
		C386.1,636.9,383.7,636.7,381.3,636.6z M381.5,628.7c0.5-0.4,1.6-0.9,3.2-1.4v-0.1l-0.1-0.1h-0.8
		C382.2,627.4,381.5,628,381.5,628.7z M382.7,624.3h0.1c1,0,2.6-0.3,4.8-1c0.5,0,0.7-0.2,0.7-0.3l-0.2-0.2H388
		c-1.5,0-3.2,0.4-5.2,1.2l-0.1,0.1V624.3z M388.7,614.3l-0.6,0.1l-0.1,0.1l0.4,0.6c0.7-0.9,1.1-1.1,1-0.7l-0.1,0.3l-2.8,3.1
		l-0.7,0.8l-3.2-1.8l3.2-4.3c0,0.1-0.1,0.1-0.1,0.2c0.2-0.4,0.3-0.7,0.4-0.7c1.5-1.4,2.6-2.5,3.1-3.4c0.5-0.9,1.3-1.7,2.4-2.6
		c1,0.4,1.8,1,2.4,1.6c-1.1,3.4-2.8,5.8-5.2,7.3l0.1-0.2l0.1-0.2l0.1-0.2H388.7z M383.3,660.5v0.1c0,0.2,0.6,0.5,1.7,0.7l0.1-0.1
		v-0.1C384.3,660.7,383.7,660.5,383.3,660.5L383.3,660.5z M386.1,625.9v0.1c0,0.2,1.1,0.5,3.3,0.8l0.1-0.1v-0.3
		c-0.4-0.6-1.1-0.9-2.1-0.9h-0.3C386.4,625.6,386.1,625.7,386.1,625.9z M386.9,616.2l-0.1,0.2l0.3,0.5h0.1l-0.2-0.7H386.9z
		 M387.7,613.1h-0.2v0.2l0.1,0.1h0.2v-0.2L387.7,613.1z M387.8,661.4v0.2h0.3v-0.2H387.8z M388.3,615l-0.3,0.3v0.1l0.2,0.3l0.2-0.2
		l0.1-0.3L388.3,615z M390.8,663.4l-1.7-0.2h-0.3c-0.5,0-0.8,0.1-0.8,0.3v0.1l0.3,0.3h1.4c1.8,0,3.7-0.3,5.8-0.8V663
		c-0.1-0.3-0.4-0.4-0.9-0.4h-0.4C393,662.6,391.9,662.9,390.8,663.4z M388.5,610.5l-0.2,0.1c0,0.3,0,0.4,0.1,0.5l0.2-0.1v-0.2
		L388.5,610.5z M388.9,614.9c-0.2,0.1-0.3,0.2-0.5,0.3l0.2,0.3L388.9,614.9L388.9,614.9z M389.2,611.7c0.1-0.4,0-0.6-0.2-0.7h-0.2
		l-0.2,0.2c-0.1,0.5,0,0.7,0.5,0.6L389.2,611.7L389.2,611.7z M389.4,624.7v0.2c0,0.2,1.1,0.3,3.2,0.5l0.1-0.1v-0.2
		c0-0.2-0.3-0.3-1-0.4H389.4z M390.3,609.5c0.8-0.8,0.8-1.2,0.1-1.2h-0.2v0.2l0.3,0.5v0.1l-0.3,0.1h-0.6l-0.2,0.2l-0.1,0.1l0.1,0.1
		c0.4,0.3,0.7,0.6,0.9,0.9c0-0.2,0.3-0.2,0.9,0L390.3,609.5z M391,626.4v0.1c3,1.7,4.7,2.6,4.9,2.6h0.1l0.8-0.3l0.4,0.1l0.1-0.1
		v-0.1c-0.3-0.2-0.7-0.4-1.3-0.5l-1.6-0.7c-0.4-0.9-1.2-1.4-2.6-1.4h-0.2C391.2,626.2,391,626.3,391,626.4z M395.7,638.7v0.2h0.3
		v-0.2H395.7z M395.8,640.8c0,0.2,0.5,0.3,1.4,0.3l0.8-0.1v-0.1c0-0.3-0.5-0.4-1.6-0.4C396,640.6,395.8,640.7,395.8,640.8z
		 M395.8,659.1h0.2c0.3-0.2,0.5-0.4,0.7-0.8l-0.1-0.1C396.1,658.5,395.8,658.8,395.8,659.1z M396.4,662.6c0.5,0,1-0.4,1.3-1.2h-0.2
		C396.7,661.8,396.4,662.2,396.4,662.6z M397.2,630.3c0.2,0.4,0.4,0.6,0.8,0.6h0.1l0.2-0.2v-0.5l-0.4-0.4
		C397.4,629.8,397.2,630,397.2,630.3z M398.3,656.6l0.1,0.1h0.1c0.5,0,0.9-0.4,1.1-1.1v-0.1C399,655.5,398.6,655.8,398.3,656.6z
		 M398.9,631.4c0.5,1.7,1,2.6,1.3,2.8h0.3l0.2-0.2c-0.4-1.7-0.9-2.5-1.4-2.5l-0.1-0.1H398.9z M400.1,652l0.2,0.2h0.3
		c0.3,0,0.5-0.1,0.6-0.3l-0.3-0.3h-0.1C400.5,651.5,400.2,651.7,400.1,652z M400.5,659.5h0.3c0.5-0.5,0.8-0.9,0.8-1.1h-0.1
		C400.9,658.6,400.5,659,400.5,659.5z M401.7,635.2v0.5l0.2,0.3c0.3-0.1,0.4-0.3,0.4-0.6v-0.2l-0.2-0.2h-0.2L401.7,635.2z
		 M402,657.3l0.2,0.2c0.8-0.3,1.2-0.6,1.2-1.1v-0.1h-0.1C402.6,656.3,402.1,656.6,402,657.3z M403.9,656.4L403.9,656.4l0.3,0.1
		c0.3-0.2,0.5-0.4,0.5-0.8v-0.1h-0.2C404.1,655.8,403.9,656.1,403.9,656.4z M406.7,655.6l-0.1,0.1v0.1c0.2,0.7,0.4,1,0.7,1h0.1
		l0.2-0.2v-0.1C407.4,655.9,407.2,655.6,406.7,655.6z"/>
	<path class="st7" d="M437.8,619.1c0.9,0,2.7,0.4,5.4,1.2c3.1,3,4.9,5.2,5.5,6.9c1.1,1.2,2.1,3.6,2.8,7.3c0.8,0.8,1.3,2.7,1.3,5.7
		l0.1,1.9l-0.3,8c0,1.5,1,3.5,2.9,6c1.8,1.7,2.9,2.6,3.5,2.6v0.1c0,0.7-0.9,1.7-2.8,3.1c-1.4,1.3-2.3,2-2.7,2h-0.1
		c-0.8,0-3-1.6-6.5-4.7c-3.1,1.2-6.3,2.4-9.5,3.8c-2.1,0.6-4.5,0.9-7,0.9H430c-2.9-0.5-5.4-1.6-7.4-3.3c-0.3-0.3-1.1-1.7-2.3-4
		c-1-1.2-1.4-2.6-1.4-4.3v-2.3c0-1.5,0.4-2.8,1.2-4.1c0.7-2.1,1.9-4.2,3.6-6.2c0.8-1,1.7-1.7,2.5-2c2.8-1.5,5.5-2.2,8.2-2.2l3.6-0.1
		h0.4c2.1,0,3.6,0.3,4.4,0.9h0.5c0.2,0,0.3-0.1,0.3-0.4c-0.5-2.4-1.5-4.8-2.8-7.2c-1.2-2-3.3-2.9-6.6-2.9l-3.2-0.4
		c-2.8,0.5-4.3,1.1-4.3,1.7c-1.1,1.4-1.7,3.2-2,5.4c-0.1,0.3-1.1,0.4-2.9,0.4l-0.5,0.1c-0.2,0-0.5,0.5-0.8,1.4
		c-1.5-0.2-2.2-0.5-2.2-0.9c0.2-0.5,0.4-2.4,0.6-5.8c0.8-2.4,2.9-4.7,6-6.7c1.5-0.9,2.4-1.3,2.7-1.3L437.8,619.1z M422,630.3v1.2
		h0.1c0.2,0,0.3-0.2,0.3-0.6v-0.6l-0.2-0.2L422,630.3z M422.8,624.4h0.1c0.5,0,1.2-0.5,2.1-1.5v-0.3H425c-0.5,0-1.2,0.6-2.1,1.7
		V624.4z M423.9,656.5v0.1l0.2,0.2h0.4v-0.2l-0.3-0.3h-0.1L423.9,656.5z M424.1,660.8L424.1,660.8c0.3,0.6,1.6,1.2,4,1.9
		c0.9,0.4,1.9,0.6,3.2,0.6v-0.1c0-0.2-1-0.5-3.1-0.9c-1.3-0.5-2.5-1-3.6-1.7h-0.3L424.1,660.8z M425.1,640.3v0.3h0.2
		c0.4,0,0.7-0.2,0.8-0.5v-0.2H426L425.1,640.3z M425.1,647.5c0.3,3.2,0.8,4.8,1.3,4.8l0.8,1v0.1l-0.7-0.1v0.2
		c1.1,1.3,3.2,2.7,6.3,3.9c0.4,0.2,1,0.3,1.6,0.4c1.1,0,4.8-1.6,11.1-4.7c0.4-0.2,0.6-0.5,0.6-0.9v-0.4c-0.5-2.2-0.9-4.7-1.2-7.7
		l-0.1-0.1c0-0.6-0.6-1.1-1.8-1.4c-3.9-1.1-6.6-1.7-8.1-1.7c-4,0.9-6.8,2.3-8.4,4C425.6,646,425.1,646.8,425.1,647.5z M430,621.7
		v0.2c0,0.2,0.3,0.3,0.8,0.3c0.5,0,1.2-0.2,2-0.5v-0.3h-0.3C431.4,621.4,430.6,621.5,430,621.7z M432.8,659.6
		c0.1,0.3,0.3,0.4,0.7,0.4c0.5,0,0.8-0.2,0.8-0.4v-0.1l-0.2-0.2h-1L432.8,659.6z M433.6,624l0.3,0.4h1l0.2-0.2v-0.1l-0.4-0.4H434
		L433.6,624z M436.6,620.9l0.3,0.3h0.4l0.2-0.2l-0.3-0.3h-0.4L436.6,620.9z M439.4,658.5v0.1h0.4c0.8,0,1.7-0.3,2.9-0.9v-0.1h-0.3
		C440.6,657.9,439.6,658.2,439.4,658.5z M442.7,621.3v0.2c0.4,0.4,0.7,0.6,1.1,0.6h0.1v-0.2c-0.4-0.4-0.7-0.6-1.1-0.6H442.7z
		 M446.6,648.7v0.4l0.3,0.3h0.1l0.3-0.3v-0.4l-0.2-0.2h-0.3L446.6,648.7z M446.8,646l0.2,0.3l0.3-0.1V646l-0.2-0.2H447L446.8,646z
		 M449,642.1v0.3h0.2v-0.1L449,642.1z M449.1,643.8v0.3l0.2,0.2l0.2-0.2v-0.3H449.1z M449.2,639.6v0.2c0.2,0.8,0.5,1.2,0.7,1.2h0.1
		c0-0.7-0.2-1.2-0.5-1.6h-0.1L449.2,639.6z M449.6,646v0.1c0.1,2,0.3,3,0.6,3l0.2-0.2v-0.1c0-1.1-0.2-2-0.5-2.8H449.6z M450.8,657.6
		c0.2,0.4,0.4,0.6,0.6,0.7h0.1l0.3-0.3v-0.2l-0.4-0.4H451L450.8,657.6z M451.2,636.6v0.2c0,0.4,0.1,0.6,0.3,0.6l0.1-0.4
		c-0.1-0.3-0.2-0.4-0.3-0.4H451.2z M452.6,659v0.2l0.3,0.3h0.4l0.2-0.2v-0.1l-0.4-0.4h-0.3L452.6,659z M453.3,656.1v0.5
		c0.2,0.7,0.4,1,0.7,1h0.2v-0.2c-0.2-0.9-0.5-1.3-0.7-1.3H453.3z"/>
	<path class="st7" d="M477,602.3c1.2,0,2.2,0.3,2.9,0.9c-0.6,1.5-1.1,4.2-1.3,8.1l-0.7,7.3c0,0.4,1,0.6,3.1,0.6
		c6.3,0,9.5,0.3,9.5,0.8c0.2,0,0.5,0.2,1,0.5c-0.5,0.8-0.8,1.3-0.8,1.5v0.3l0.2,1.6l-1,3.5c0,0.3,0.4,0.9,1.2,1.6v0.1
		c-1.2,0.4-2.2,0.6-3.1,0.6c-0.9-0.1-1.3-0.2-1.3-0.4v-0.1l0.7-0.1h0.6l0.3-0.3v-0.2l-0.3-0.1l-5.4,0.1l-4.5-0.1
		c-0.2,0-0.5,1.5-0.8,4.5h-0.1l-1.1-1.2l-0.2,0.8v0.5c0.1,1.5,0.3,2.3,0.5,2.4c0.2,0,0.4-0.5,0.6-1.5v-0.5h0.2l0.1,0.3l-0.6,7.6
		c0.5,8.5,1,12.7,1.4,12.7c0.2,1.7,0.9,2.5,2,2.5c0.7,0.3,1.4,0.5,2.2,0.5h1.4l4.7-0.2c0.2,0,0.4,1.4,0.6,4.3
		c0.2,1.7-0.7,2.5-2.8,2.5l-6.2,0.2c-3.5,0-6.3-0.9-8.5-2.8c-1.5-0.6-2.2-2.2-2.2-4.8c-0.2-2.1-0.4-6.4-0.6-12.8l1.3-7l0.2-4.7v-0.6
		c-0.3-2.2-1-3.3-1.9-3.3l-2.4-0.1h-2.8c-0.8,0-1.6,0.2-2.5,0.6c-0.5-0.1-1.2-0.8-2-2.1l1.6-7.1c0-0.2,3.2-0.3,9.7-0.4
		c0-0.7,0.4-1.6,1.2-2.6c0.2-8.3,0.5-12.4,0.8-12.4v-0.3c0-0.1-0.1-0.2-0.3-0.2V603C471.7,602.8,473.5,602.6,477,602.3z M461,620
		c0,0.4,0.2,0.6,0.6,0.6h1.2c2,0,4-0.1,6.1-0.3v-0.1c0-0.3-1.3-0.5-3.9-0.5h-3.4C461.2,619.8,461,619.9,461,620z M462,621.8v0.4
		c0,0.5,1.8,0.8,5.4,0.8c1.8,0,2.7-0.1,2.7-0.4c0-0.6-2.3-0.9-7-1h-0.9L462,621.8z M462.6,624.6c0,0.2,0.1,0.3,0.4,0.3l2,0.1
		l2.1-0.1l0.1-0.1v-0.1c-0.7-0.3-1.9-0.4-3.6-0.4h-0.8L462.6,624.6z M462.6,625.7v0.2c0,0.3,2,0.5,6,0.5l0.7-0.1v-0.1l-0.2-0.2
		L462.6,625.7z M469.9,643.2l0.3,2.2l-0.1,2.8l0.1,0.8h0.2c0.3,0,0.5-1.2,0.5-3.7v-1.9c0.2,0.2,0.2,0.3-0.1,0.3
		C470.5,643.7,470.2,643.6,469.9,643.2z M472.5,653.5v1.2l0.1,0.5h0.1l0.2-0.2v-1.3l-0.2-0.2H472.5z M472.9,659v0.3
		c0.2,1.3,0.7,2,1.7,2h0.8l0.2-0.2v-0.1c0-0.2-0.5-0.4-1.5-0.6l-1-1.4H472.9z M473.6,629.9v0.6l0.2,0.2c0.2,0,0.3-0.2,0.3-0.6v-0.3
		l-0.1-0.5h-0.1C473.7,629.4,473.6,629.6,473.6,629.9z M473.7,631.4l-0.1,0.5v0.3l0.1,0.5h0.3l0.1-0.7v-0.4l-0.2-0.2H473.7z
		 M473.9,604.4v0.5h0.3v-0.3l-0.2-0.2H473.9z M473.9,637v0.7l0.2,0.2h0.2v-0.2l-0.1-0.7H473.9z M474.3,607.3
		c-0.1,0.4-0.2,1.1-0.2,2.1v0.3h0.2l0.2-1.4v-0.8L474.3,607.3z M474.6,610.9l-0.3,7.9v0.1l0.2,0.2h0.2c0.3,0,0.5-0.7,0.5-2v-1.8
		l-0.1-4c-0.1-0.3-0.2-0.4-0.3-0.4H474.6z M475,649.6l-0.1,0.5v0.6c0,0.4,0.1,0.6,0.4,0.7h0.1c0.2,0,0.3-0.2,0.3-0.6
		c-0.1-0.8-0.3-1.2-0.5-1.2H475z M475.1,658.6L475.1,658.6l-0.1,0.6c0.1,0.3,0.3,0.5,0.6,0.6h0.5v-0.1
		C476.1,659.1,475.8,658.7,475.1,658.6z M475.8,652.9l-0.3,1c0,1.2,0.3,1.9,0.8,2.2l0.2-0.3v-0.7C476.4,653.8,476.1,653,475.8,652.9
		z M476.1,631v0.2l0.3,0.3h0.1v-0.2L476.1,631L476.1,631z M477.1,604.9v0.1l0.2,1.9h0.2c0.6-0.7,0.9-1.2,0.9-1.7v-0.3l-0.3-0.3h-0.8
		L477.1,604.9z M479,622.6L479,622.6c0,0.3,1,0.5,2.9,0.6l1.3-0.1l1.8,0.3h0.3c0.4,0,0.6-0.2,0.6-0.5h-0.1l-6.1-0.5h-0.6L479,622.6z
		 M480.2,626.2v0.2c0.1,0.2,1,0.5,2.8,0.8h0.2v-0.1c-0.8-0.6-1.6-0.9-2.5-0.9H480.2z M484.9,620.2l-1-0.1h-1.3v0.3
		c1.2,0.3,2.2,0.5,3,0.5h1.8c0.1,0,0.2-0.1,0.2-0.3c-0.1-0.6-0.4-0.9-0.9-0.9h-0.8L484.9,620.2z M483.9,660.2l0.3,0.1
		c2-0.3,3-0.7,3-1.1L487,659C484.9,659.5,483.9,659.9,483.9,660.2z M484.6,627c1.5,0.5,2.8,0.7,3.9,0.7l0.3-0.3v-0.5l-0.2-0.2h-1.8
		C485.3,626.7,484.6,626.8,484.6,627z M487.6,624.4v0.1l0.3,0.3h0.3c0.5,0,0.8-0.2,1-0.5l-0.3-0.2h-1L487.6,624.4z M487.9,620.7v0.1
		l0.2,0.2c0.5,0,0.8-0.1,0.9-0.4v-0.1h-0.9L487.9,620.7z"/>
	<path class="st7" d="M503.8,621.5c0.5,0.3,1,0.5,1.6,0.5l1-0.5c7.3,0,10.9,0.2,10.9,0.6l0.1,0.5v1.4c0.4,1,0.6,2,0.6,3.1v1.2
		c-0.5,7.4-0.9,14.5-1.2,21.2c-0.2,0.3-0.3,0.8-0.3,1.6c0.1,0.3,0.4,0.4,0.7,0.4h0.3c2.9,0,4.3,0.3,4.3,1l-0.1,0.1v0.5
		c0.6,1.3,0.9,3.3,0.9,6l0.3,3.2l-0.2,0.2l-3.5,0.1h-8c-6,0-9-0.5-9-1.4c0-0.6-0.1-1.2-0.4-1.7c0.2-0.4,0.4-0.7,0.8-0.9h0.2
		c0.3,0.2,0.5,0.3,0.7,0.3h0.2c1.8,0,3.6-0.1,5.5-0.4v-0.2c-4.6-0.3-6.9-0.6-6.9-1l-0.1-0.7v-0.9l-0.2-2c0-0.6,2-0.9,6-0.9
		c0.5,0,0.8-1.2,0.8-3.6l0.9-21h-0.1c-2,0-2.7-0.2-2.1-0.6c-3.2,0-4.8-0.4-4.8-1.1c-0.2-0.1-0.3-0.3-0.3-0.6l0.4-1
		c0-0.2-0.2-0.5-0.5-0.8v-0.1c0.5-0.3,0.8-1.2,0.9-2.5l0.1-0.1H503.8z M504,655.8L504,655.8c0.4,0.5,2,0.7,5,0.8h0.5
		c0.5,0,0.8-0.1,0.8-0.3V656c-2-0.3-3.9-0.4-5.8-0.4L504,655.8z M504.8,623.1v0.2h0.4c1.4,0,2.1-0.1,2.1-0.3l-0.2-0.2h-0.2
		C505.5,622.8,504.8,622.9,504.8,623.1z M505.1,624.2v0.2c0,0.2,0.4,0.3,1.1,0.3h0.9h0.3h2.5c0.8,0,1.3-0.1,1.3-0.3v-0.1
		c0-0.3-1.6-0.4-4.7-0.2L505.1,624.2z M514.6,605.8c1.8,0,3.3,0.9,4.4,2.8l0.5,2.7c-0.1,0.9-0.7,2.2-1.7,3.9c-0.7,0.7-1.8,1-3.2,1
		c-3.3,0-5.4-0.5-6.3-1.6c-0.8-1-1.2-2.5-1.1-4.4c-0.2,0-0.3-0.1-0.3-0.2v-0.1c1.6-2.5,3.2-3.7,5-3.7
		C512.3,606,513.2,605.9,514.6,605.8z M510.2,608.2L510.2,608.2c1.8-0.2,2.7-0.4,2.7-0.6l-0.4-0.2
		C511,607.6,510.2,607.9,510.2,608.2z M510.6,646.6c0.1,0.4,0.2,0.6,0.3,0.6c0.2,0,0.3-0.2,0.3-0.7l-0.1-1.2
		c0.2-0.3,0.5-1.3,0.9-3.2v-0.5l-0.2-1.2c0.3-0.2,0.5-0.4,0.5-0.6c-0.2-0.6-0.3-1.2-0.3-1.7v-0.1c0.2,0,0.5-3,0.7-9
		c-0.2-0.4-0.3-0.6-0.4-0.6h-0.1c-0.7,0-1.2,2.6-1.3,7.9L510.6,646.6z M512.4,658.7h-1.2v0.3l1.2,0.1l2.3-0.2v-0.2h-0.4l-0.9-0.1
		L512.4,658.7z M511.7,610.5l0.4,0.1h0.1c0.7,0,1.1-0.2,1.2-0.6l-0.1-0.1h-0.9c-0.5,0-0.7,0.2-0.8,0.6H511.7z M512,656.6l0.3,0.3
		h0.1c0.5,0,0.7-0.2,0.7-0.7h-0.4C512.3,656.2,512,656.3,512,656.6z M512.8,651.4v0.4h0.3l0.3-0.3v-0.2l-0.2-0.2h-0.1L512.8,651.4z
		 M512.8,649.9v0.5h0.2c0.3-0.1,0.4-0.4,0.4-0.9v-0.6h-0.2C513,648.9,512.9,649.2,512.8,649.9z M512.9,624.2v0.2
		c0.3,0,0.7,0.3,1.3,0.8h0.2c0.2,0,0.2-0.1,0.2-0.3h0.1c0.2,0,0.3,0.3,0.5,0.8h0.1l1.1-0.9v-0.4l-1.7-0.1h-1.2L512.9,624.2z
		 M513.4,628.7l0.4,1.3l-0.5,1.3c0.2,0.5,0.4,0.8,0.5,0.8h0.1l0.1-0.5v-0.5c0-2,0.3-2.9,0.9-2.9l0.2-0.3v-0.3l-0.2-0.2h-0.5
		C513.7,627.4,513.4,627.8,513.4,628.7z M514,642.3c-0.5,1.8-0.7,3.3-0.7,4.4h0.1c0.3,0,0.6-1.1,1-3.3v-0.6l-0.1-0.5H514z
		 M513.5,614.1v0.2h1.4l0.2-0.2l-0.2-0.2h-1.2L513.5,614.1z M514.4,629.4v0.4c0,0.3,0.1,0.6,0.4,0.7h0.2l0.3-0.3v-0.4
		c-0.1-0.2-0.3-0.4-0.6-0.5L514.4,629.4z M515.5,612.4v0.3h0.3c0.4,0,0.7-0.2,0.9-0.6v-0.3h-0.2C516.1,611.8,515.8,612,515.5,612.4z
		 M515.5,622.7l0.3,0.3h0.1v-0.3l-0.2-0.2L515.5,622.7z M517.1,610.2v0.3h0.1l0.3-0.3v-0.3h-0.1L517.1,610.2z M518.8,656.6
		c0.1,0.7,0.5,1,1.4,1h0.3v-0.2l-0.2-0.3c0-0.1,0.2-0.2,0.7-0.4v-0.4c0-0.3-0.1-0.6-0.4-0.7h-0.3c-0.2,0-0.3,0.3-0.5,0.8
		L518.8,656.6z M519.2,653.1c0.3,0.2,0.9,0.3,1.7,0.4v-0.2c0-0.2-0.3-0.3-1-0.4h-0.5L519.2,653.1z M519.3,658.5v0.2h0.1l0.3-0.3
		v-0.1h-0.2L519.3,658.5z M521.2,661.7v0.2h0.4l0.2-0.2v-0.1l-0.2-0.2h-0.1L521.2,661.7z"/>
	<path class="st7" d="M554.6,625.4h0.7c2.8,1.3,5.7,3.2,8.5,5.4c2.7,2.3,4,4.1,4,5.2h-0.1c-0.4-0.7-0.9-1.1-1.3-1.1h-0.1
		c-0.2,0-0.2,0.1-0.2,0.3c0.2,0.7,0.7,1.7,1.4,3.1h0.2c0.1,0,0.2-0.3,0.4-0.8h0.1c0.1,0,0.3,0.8,0.6,2.3l0.6,1.6l-0.1,1l0.2,2.9
		c-0.3,0.8-0.6,2.6-1,5.2c-0.2,1-2.7,4.8-7.4,11.4c-2.1,2-4.2,3-6.3,3c-2.1,0.3-4.2,0.4-6.3,0.4h-1.5c-1,0-3.3-0.8-7.1-2.3
		c-4.8-4.4-7.3-7.7-7.3-10c-0.7-1.5-1.3-2.8-1.7-4c0-0.6,0.7-2.9,2.2-6.9c0-2.5,0.6-4.2,1.7-5.1c2.5-5.4,5.6-8.9,9.5-10.5
		c3.3-1.2,6-1.8,8.1-1.8L554.6,625.4z M531.9,648.6c0.1,0.5,0.2,0.8,0.3,0.8l0.1-0.1v-0.4l-0.1-0.5h-0.1L531.9,648.6z M533.7,652.4
		v0.6c0.1,1.7,0.6,2.7,1.5,3l0.1-0.1v-0.1c-0.4-2.5-0.9-3.7-1.3-3.7L533.7,652.4z M534.5,639.7c0.3,0,0.5-0.2,0.7-0.5V639
		C534.8,639,534.5,639.3,534.5,639.7z M536.1,637L536.1,637c0.3-0.1,0.4-0.3,0.4-0.6h-0.1C536.2,636.5,536.1,636.7,536.1,637z
		 M536.3,647v0.1h0.2l0.2-0.2v-0.2h-0.1L536.3,647z M536.7,657.7v0.1c0.2,0.3,0.4,0.5,0.6,0.6h0.3c0-0.4-0.2-0.7-0.6-0.9h-0.1
		L536.7,657.7z M537.9,649.9v0.5c0.6,1.3,1.4,2.8,2.4,4.6c0,0.5,1,1.3,3.1,2.3c1,1.1,2.8,1.9,5.4,2.5l1.4,0.2c2.2-0.5,4-1,5.2-1.5
		l2.9-2.4c3-3.2,4.4-5.9,4.3-8v-0.7c-0.3-0.9-0.5-2.3-0.5-4.2c0-1.4,0.1-2.6,0.3-3.5c0-0.3-1-1.2-3.1-2.8c-1.5-2.1-3.1-3.4-4.7-3.9
		h-0.9c-6.2,0.2-9.3,0.7-9.3,1.5c-1.4,1.4-2.4,2.8-2.9,4.1c-1.7,1.7-2.5,2.9-2.5,3.5C538.6,644.1,538.2,646.7,537.9,649.9z
		 M538.2,660.3v0.3c0.8,0.7,2,1.1,3.7,1.1h0.9v-0.1c-0.3-0.3-1.6-0.7-4.1-1.3H538.2z M539.4,636.5v0.5h0.2c0.7-0.6,1.1-1.1,1.1-1.5
		l-0.1-0.1h-0.3C539.8,635.7,539.6,636,539.4,636.5z M540.2,631v0.3c0.3,0,1.9-1.1,4.9-3.3l0.6-0.3l0.4,0.1c3.6-0.3,5.4-0.7,5.4-1
		v-0.1l-1.3-0.2c-3.7,0-7,1.4-9.9,4.1L540.2,631z M541,634.6v0.3h0.2l0.2-0.2v-0.1H541z M541,632.4c0.5,0,0.9-0.3,1.3-1v-0.2
		C541.5,631.4,541,631.8,541,632.4z M542.5,662.4L542.5,662.4l1,0.1l0.2-0.2l-0.2-0.2h-0.2C542.8,662.1,542.5,662.2,542.5,662.4z
		 M544.1,661.3v0.2c0,0.3,0.8,0.5,2.3,0.5l0.1-0.1v-0.1C545.8,661.5,545,661.3,544.1,661.3z M546.5,629.5v0.3
		c4.1-0.5,6.2-0.8,6.2-0.9l-0.6-0.2h-0.1C549.4,628.7,547.6,629,546.5,629.5z M546.6,632.3L546.6,632.3l0.2,0.3h1.1l5.6-1.3v-0.2
		l-1.5-0.2C548.4,631.3,546.6,631.8,546.6,632.3z M551.9,663.2v0.2c0,0.2,0.4,0.3,1.2,0.4c0.9,0,1.4-0.2,1.4-0.4v-0.2
		c-0.1-0.3-0.3-0.5-0.6-0.6h-0.7C552.6,662.6,552.2,662.8,551.9,663.2z M553.2,626.5c0.2,0.7,0.8,1,1.7,1l0.9,0.1l0.1-0.1v-0.3
		c0-0.7-0.5-1-1.6-1.1C553.6,626.2,553.2,626.3,553.2,626.5z M553.9,629v0.2l0.2,0.2l-0.8,0.7V630c-0.1-0.2,0.4-0.6,1.3-1H553.9z
		 M554.7,629.1l-0.1,0.1v0.1c1,0.8,1.8,1.2,2.4,1.2l0.1-0.1v-0.1C556.2,629.4,555.4,629.1,554.7,629.1z M556.2,663.8L556.2,663.8
		l0.1,0.1c0.9-0.3,1.4-0.6,1.4-0.9l-0.1-0.1C556.8,663.1,556.3,663.4,556.2,663.8z M557.4,632.9c0.3,0.5,0.7,0.7,1.1,0.7l0.2-0.2
		v-0.1c0-0.5-0.2-0.7-0.7-0.7C557.6,632.7,557.4,632.8,557.4,632.9z M558.7,628.4v0.1c0.5,0.7,1.1,1,1.7,1c0-0.6-0.5-1-1.4-1.3h-0.1
		L558.7,628.4z M560,631.8v0.1c0.2,0.7,1,1.3,2.3,2h0.2l0.2-0.2v-0.1C562.5,633.3,561.6,632.7,560,631.8z M561.5,634.2v0.1
		c0.3,0.7,1.1,1.2,2.4,1.7h0.3l0.2-0.2v-0.1c-0.8-1-1.7-1.5-2.5-1.5H561.5z M565.2,653.9l0.1,0.1c0.3,0,0.7-0.4,1-1.3v-0.1H566
		C565.7,652.5,565.4,653,565.2,653.9z M566.4,652.5l0.1-1.4l0.1,0.5h0.1c0.3-0.2,0.4,0.2,0.3,1.1l-0.3-0.2H566.4z M567.1,648
		c0.1,1.7,0.2,2.5,0.5,2.5h0.1c0-0.6,0.2-1.2,0.7-2v-0.2l-0.9-1.2h-0.1C567.2,647.2,567.1,647.5,567.1,648z M568.2,642.6v0.4
		l0.2,0.2l0.3-0.3v-0.3l-0.2-0.2h-0.1L568.2,642.6z"/>
	<path class="st7" d="M577.5,622.2c1.3,0.2,2.6,0.3,3.8,0.3h6.6l0.2,0.2c-0.3,1-0.4,1.8-0.4,2.3v1.4c0.2,1.5,0.6,2.2,1.2,2.2
		c0.3-0.6,1.4-1.2,3.2-1.7c4.3-1.9,7.8-2.8,10.6-2.8c1.8,0,3.8,0.8,5.9,2.4c1.5,0.6,3,1.9,4.4,3.7c2.2,3.4,3.2,7.5,3.2,12.3v0.6
		l-0.5,5.8l0.5,4.2l-0.8,3.7v0.1l0.1,0.7l3.1,0.1h1.3c0.9,0,1.4,0.1,1.7,0.3c-0.3,3.9-0.7,5.8-1.3,5.8c-1,0.6-2.2,0.9-3.5,0.9h-1.6
		c-2.5,0-5.1,0.3-8.1,1c-1.9-0.2-2.8-1.2-2.8-2.8l-0.1-2.8c0-1.8,0.4-3.1,1.3-3.9c0.5-2.5,1-4.9,1.7-7.1l0.5-7.1
		c0.1,0,0.2-0.6,0.2-1.8c0-1.4-1.1-3.4-3.4-6.2c-1.7-0.7-2.7-1.1-3.1-1.1c-3,0-5.8,1.3-8.4,3.9c-0.2,0-1.5,1.3-3.9,3.9
		c-0.8,0.6-1.2,2.4-1.2,5.4c0.1,5.4,0.3,8.1,0.6,8.1c2.1,0.4,3.1,0.8,3.1,1.2v0.4l-1.7-0.2l-1.3,0.2v0.2c0,0.2,1,0.5,3.1,0.8
		c0.3,0.4,0.5,1,0.5,1.9v0.1c0,1.2-0.3,2.6-0.8,4l-9.3,0.2c-1,0-1.7-0.5-2-1.4c-0.3-1.1-0.5-3-0.7-5.9c0-0.3,0.8-0.6,2.4-1l0.4-0.5
		v-0.1c0-0.3-0.2-0.7-0.7-1.3l0.1-2.5V646l0.3-7.4c0-5-0.2-7.5-0.7-7.5H581l-3.7,0.5c-0.4,0-0.9-0.3-1.5-1v-0.3
		c0.3-0.3,0.4-0.8,0.4-1.3l-0.1-2.9l1.2-3.6L577.5,622.2z M577.1,627.6v0.1c0,0.2,0.2,0.3,0.5,0.4c0.3,0,0.8-0.2,1.4-0.7v-0.1h-1.3
		C577.3,627.3,577.1,627.4,577.1,627.6z M577.7,624.8v0.2c0,0.2,0.4,0.3,1.2,0.3c3.5,0,5.2-0.2,5.2-0.7l0.3-0.5v-0.2h-0.2v-0.1
		L577.7,624.8z M577.8,630.1v0.1h0.8l0.3-0.3v-0.1l-0.4-0.1C578,629.8,577.8,630,577.8,630.1z M579.3,626.8l0.2,0.2h0.2
		c0.7-0.1,1-0.2,1-0.4l-0.3-0.1C579.7,626.5,579.3,626.6,579.3,626.8z M580,628.6l1.6-0.1h0.3c0.5,0,0.8,0.1,0.9,0.4v0.2
		c-0.3,0.3-0.4,0.5-0.4,0.8c0.3,0.2,0.6,0.3,1,0.3c0.2,0,0.2-0.1,0.2-0.3l0.1-2.7l-0.1-0.3h-0.2c-0.4,0.3-1.5,0.7-3.2,1.3l-0.1,0.1
		V628.6z M580.8,656.4v0.1c0.1,1,0.4,1.5,1.1,1.5h0.4l0.3-0.3v-0.1c-0.5-0.5-0.8-1-0.8-1.4h-0.8L580.8,656.4z M582.9,631.8l0.1,0.3
		h0.2l0.2-1.1h-0.2C583.1,631,583,631.3,582.9,631.8z M584.3,660c0,0.3,0.7,0.4,2.1,0.4c2.6,0,3.9-0.1,3.9-0.4
		c0-0.3-0.9-0.5-2.7-0.5C585.6,659.4,584.5,659.6,584.3,660z M585.4,628.8l-0.1,0.5v1.4c0,0.6-0.1,1-0.3,1.2v0.5l0.3,1.2l-0.1,0.6
		c0,0.4,0.2,0.7,0.5,0.9c0.1,0,0.3-0.6,0.5-1.8c0.7-0.5,1.1-1,1.1-1.4c0-0.3-0.3-0.8-0.9-1.7c-0.2-0.9-0.4-1.3-0.6-1.3H585.4z
		 M586.5,633.9l0.1,0.5c0,0.4-0.2,0.8-0.7,1.2c0.3,0.3,0.4,0.5,0.4,0.8c0,2.7,0.2,4,0.5,4h0.2c0.3-0.9,0.5-2.1,0.5-3.7
		c0-2-0.3-3-0.7-3.1h-0.1C586.5,633.6,586.5,633.7,586.5,633.9z M588.6,629.5v0.3c0.8,0,1.6-0.5,2.4-1.4v-0.1l-0.1-0.1h-0.1
		C590.3,628.2,589.5,628.7,588.6,629.5z M588.7,634v0.2c1.3-0.2,3.3-1.3,5.8-3.5v-0.1h-0.5c-0.3,0-0.9,0.4-1.9,1.1
		C589.8,632.6,588.7,633.3,588.7,634z M589.2,636.2l0.2,0.3l0.3-0.1v-0.2l-0.2-0.2h-0.1L589.2,636.2z M591.1,635.9v0.1l0.2,0.2h0.3
		l0.2-0.9h-0.2L591.1,635.9z M592.6,634.7v0.1h0.2c0.8-0.7,1.3-1.3,1.3-1.7h-0.2v-0.1C593.5,632.9,593,633.5,592.6,634.7z
		 M593.3,627.5l0.1,0.1v0.1c0.5-0.2,0.7-0.3,0.7-0.4v-0.1h-0.2C593.5,627.3,593.3,627.4,593.3,627.5z M594.8,626.8l0.2,0.2
		c2.5-0.6,3.7-1.1,3.7-1.3v-0.1h-0.1C597.3,625.6,596,625.9,594.8,626.8L594.8,626.8z M595.2,633.7c1.2-0.3,1.7-0.6,1.7-0.9
		l-0.2-0.2h-0.2C595.7,632.6,595.3,633,595.2,633.7z M598.9,629.2v0.2h0.4c0.8-0.1,1.2-0.3,1.2-0.5v-0.2H600
		C599.3,628.8,598.9,629,598.9,629.2z M600.2,625.3v0.1c0.4,0,1,0.3,2,1l0.9,0.2l2.5-0.1l0.1-0.1v-0.2c-0.1-0.3-0.4-0.4-0.9-0.4
		h-0.3l-0.8,0.2c-1.2-0.7-2-1.1-2.5-1.1C600.6,624.9,600.3,625,600.2,625.3z M600.3,630.9l0.1,0.1h0.1c1.2,0,1.8-0.1,1.8-0.3
		l-0.7-0.2C600.7,630.6,600.3,630.7,600.3,630.9z M603.1,632.4v0.2h2l0.2-0.2v-0.3l-0.3-0.3h-0.4C603.6,632,603.1,632.2,603.1,632.4
		z M604.7,628.9c0,0.3,0.5,0.4,1.4,0.5c0.3-0.2,0.4-0.5,0.4-0.7c0-0.3-0.4-0.5-1.3-0.6C604.9,628.3,604.7,628.6,604.7,628.9z
		 M605.4,664.1v0.2c0,0.3,0.7,0.5,2.1,0.5h0.4l0.7-0.1v-0.1c-0.6-0.5-1.4-0.8-2.6-0.8h-0.3L605.4,664.1z M605.8,660.2v0.5l0.2,0.2
		h0.2l0.2-0.2v-0.1l-0.4-0.4H605.8z M605.9,630.1l-0.1,0.1v0.1l0.3,0.2h0.1l0.2-0.2L605.9,630.1z M607.5,628.7
		c0.1,0.3,0.3,0.4,0.6,0.4h0.5l0.3-0.3v-0.1c-0.1-0.2-0.3-0.3-0.8-0.3h-0.3L607.5,628.7z M607.7,630.9v0.2c0,0.2,0.4,0.9,1.1,2.2
		c0,0.5,0.1,0.7,0.3,0.7l0.3-0.3v-0.4c0-0.8-0.5-1.6-1.6-2.4H607.7z M607.7,662.3c0.2,0.4,0.5,0.6,0.9,0.6c2.9-0.1,4.3-0.3,4.3-0.5
		c-0.4-0.5-1.1-0.7-2-0.7C608.7,661.8,607.7,662,607.7,662.3z M608.6,652.5c0.3,0.4,0.4,0.9,0.4,1.5h0.2l0.2-0.9v-1.4
		C608.9,651.7,608.6,652,608.6,652.5z M609,634.8v0.3c0.7,2.4,1.1,3.6,1.2,3.7l0.2-0.6v-0.7C609.9,635.8,609.5,634.8,609,634.8z
		 M609,651.2l0.1,0.1h0.1c0.2,0,0.3-0.3,0.3-0.8v-0.9h-0.1C609.2,649.6,609.1,650.1,609,651.2z M611.7,657.4v0.3l0.3,0.3h0.1
		l0.2-0.2v-0.1l-0.3-0.3H611.7z M611.8,655.9v0.1h0.1l0.3-0.9v-0.2h-0.1C611.9,654.9,611.8,655.3,611.8,655.9z M611.9,651.8v0.3h0.2
		v-0.3H611.9z M612,645.4v0.1l0.3,1h0.4C612.6,645.8,612.4,645.4,612,645.4z M612.5,635.1c0.1,2.8,0.4,4.2,0.8,4.2h0.2
		c-0.2-2.8-0.5-4.2-0.9-4.2H612.5z M613.9,652.1l-0.2,1.7v2h0.1c0.7-0.8,1-1.6,1-2.4v-0.1C614.8,652.5,614.5,652.1,613.9,652.1z
		 M616.3,659.2v0.2c2.4,0,3.6-0.2,3.6-0.5v-0.2h-1.1C617.1,658.7,616.3,658.9,616.3,659.2z M617.1,660.8v0.3
		c0.1,0.3,0.3,0.4,0.7,0.4c0.9,0,1.4-0.2,1.6-0.6v-0.2c-0.1-0.3-0.4-0.4-0.9-0.4H618C617.5,660.2,617.2,660.4,617.1,660.8z"/>
	<path class="st7" d="M646.2,614.4c1.4,0,5.4,0.8,11.9,2.4c3.1,1.4,5,2.1,5.4,2.1c0.4-0.5,0.6-1.2,0.6-2.2v-0.1l-0.1-0.6
		c0-0.7,0.5-1,1.5-1c0.7-0.5,1.6-0.7,2.7-0.7c1.6,0,2.4,0.2,2.4,0.5l0.7,7.5v2.3c0,1.9-0.3,3.1-0.8,3.5c-0.5,0.5-0.9,0.7-1.2,0.7
		c-3-0.2-4.4-0.6-4.4-1.2c-0.5-1.3-1.4-2.2-2.8-2.8c-5.1-2.5-8.8-3.8-11.1-3.8l-2.2-0.1c-2.7,0-4.2,0.5-4.7,1.5c-0.7,0.9-1,2-1,3.5
		v0.1c0,2.9,1.5,5.3,4.6,7.3c3,1.2,5.6,1.8,7.9,1.8c0,0.5,1.2,1.1,3.6,1.8c0.5,0.8,1.5,1.2,3.1,1.2c1.7,0.7,4.1,2.7,7.1,6l0.3,0.4
		v0.2c0,0.1-0.2,0.2-0.5,0.2v0.1c0.7,1.5,1.1,2.4,1.1,2.8c0,4.8-0.8,7.9-2.3,9.1c-0.6,1.4-2.1,2.8-4.4,4.2c-2.6,2.3-5.1,3.5-7.7,3.5
		h-2.8c-4.2-0.7-6.3-1.2-6.3-1.6c-2.4-1.7-3.8-2.5-4.2-2.5c-2.6-1.3-4.4-2.6-5.5-3.9h-0.3c-0.7,1.8-1.2,2.8-1.6,2.8
		c-3.4-0.5-5.1-1.1-5.1-1.7c-0.3-0.7-0.5-3.1-0.6-7l0.8-5c0-1.8,0.2-2.7,0.7-2.7l5.1-0.6c0.4,0,0.7,1.5,1.1,4.4l2.3,4
		c0,0.2,2.4,1.8,7.1,4.8c1.2,1.3,2.9,2,5,2h2.8c2.8,0,4.7-0.9,5.8-2.8c1.3-1.3,2.2-3.3,2.7-5.8v-0.2c0-1.6-1.3-3.5-4-5.8
		c-1.2-1.3-2.7-2-4.6-2c-0.8-0.5-3.2-1-7.1-1.5l-6.5-3.3l-3.1-2.7c-1.3-2-2-3.5-2.1-4.3l0.1-1.3l-0.3-3.1c0-0.7,0.5-1.6,1.4-2.6
		c0-0.7,1.3-2.1,3.9-4.4c2.4-1.3,3.8-2.3,4.2-3.1L646.2,614.4z M631,651.9l0.1,2h0.1c0.3-0.3,0.5-1.6,0.5-3.9v-0.6l-0.2-0.2h-0.1
		C631.2,649.2,631.1,650.1,631,651.9z M633.2,656v0.3l0.3,0.3h0.1l0.2-0.2v-0.1l-0.3-0.3H633.2z M633.7,645.4v0.3l0.2,0.2l0.3-0.2
		l-0.1-0.3H633.7z M637,624.2c0.1,0.8,0.2,1.5,0.4,2.1h0.3v-0.1l-0.2-2.2h-0.3L637,624.2z M637.1,653.3v0.3c0.8,1,1.6,1.5,2.3,1.5
		h0.1v-0.2c-1.1-1.1-1.9-1.6-2.2-1.6H637.1z M637.6,622.2l-0.2,0.6v0.2l0.2,0.2l0.3-0.8v-0.1L637.6,622.2z M638.9,631.8L638.9,631.8
		l0.2,0.3h0.2v-0.3l-0.2-0.2L638.9,631.8z M639.1,625v0.2h0.2l0.3-0.3v-0.2h-0.2L639.1,625z M640,621.4l0.1,0.1v0.1l0.3-0.1v-0.3
		h-0.2L640,621.4z M640.4,632.1v0.2c0.4,1.2,0.7,1.7,1.1,1.7h0.3l0.4-0.4v-0.1C641.5,632.6,641,632.1,640.4,632.1L640.4,632.1z
		 M640.6,622.6l0.1,0.1h0.3c1.2-0.8,1.8-1.5,1.8-2l-0.1-0.1h-0.1c-0.6,0-1.3,0.6-2,1.9V622.6z M642.5,631.5v0.1l0.2,0.2h0.8v-0.2
		c0-0.2-0.3-0.3-0.8-0.3L642.5,631.5z M644.4,632.1l-0.1,0.1v0.5l0.5,0.5h0.2l0.2-0.2v-0.4C645.1,632.3,644.8,632.1,644.4,632.1z
		 M644.5,636.3L644.5,636.3c-0.1,0.4,0.3,0.7,1,1l0.1-0.1C645.7,636.9,645.3,636.6,644.5,636.3z M645,660.4v0.1
		c0,0.2,0.7,0.5,2.1,0.8l0.3,0.3h0.4c-0.1-0.7-0.3-1-0.5-1L645,660.4z M645.8,615.6v0.3c0,0.2,0.3,0.4,1,0.5
		c1.5-0.1,2.2-0.2,2.2-0.5v-0.3c0-0.4-0.8-0.6-2.3-0.6C646.4,615,646.1,615.2,645.8,615.6z M647,634l-0.1,0.1v0.1
		c0.7,0.7,1.7,1.2,3.1,1.7l0.2-0.3C650.1,635.4,649.1,634.8,647,634z M648.1,619c0.3,0.3,0.5,0.4,0.8,0.4c0.6,0,1.1-0.3,1.7-0.9
		l-0.4-0.4h-0.9C648.5,618.1,648.1,618.4,648.1,619z M649.2,662.5L649.2,662.5l0.3,0.4h0.6v-0.1c-0.1-0.2-0.3-0.3-0.8-0.3H649.2z
		 M649.7,661.3v0.4h0.3v-0.2L649.7,661.3L649.7,661.3z M650.9,663c0.7,0.4,1.7,0.6,3,0.6h0.1l3.5-0.1v-0.2c-0.2-0.4-2-0.6-5.5-0.6
		C651.3,662.7,650.9,662.8,650.9,663z M651.5,620.3c0,0.4,0.9,0.6,2.8,0.7v-0.2c0-0.3-0.8-0.5-2.4-0.8h-0.1L651.5,620.3z M651.5,636
		c0,0.3,1.9,0.8,5.6,1.6l1,0.1h0.3v-0.1c-1.7-1.2-3.6-1.9-5.9-2.1C651.8,635.8,651.5,636,651.5,636z M652.4,638.4v0.3l1.3,0.4h0.9
		v-0.2C653.5,638.5,652.8,638.4,652.4,638.4z M658.3,662.7v0.2l0.2,0.2h0.3c1-0.1,1.5-0.2,1.5-0.4l-0.2-0.2h-1.6L658.3,662.7z
		 M659,618.9L659,618.9c0,0.3,0.3,0.4,1,0.5h0.2v-0.1C660.2,619.1,659.8,619,659,618.9z M659.9,621.9l-0.1,0.1v0.1
		c1.7,1,2.7,1.5,3.2,1.5v-0.1C663,623.2,662,622.6,659.9,621.9z M660.2,639.5v0.2c0.2,0.3,1.7,1.1,4.3,2.4c1,1,1.8,1.4,2.4,1.4h0.1
		l0.2-0.2c-1.2-1.6-3.3-2.9-6.2-3.8H660.2z M662.1,656.2v0.3h0.2c0.5-0.3,0.9-0.8,1.2-1.4l-0.2-0.2
		C662.9,655.1,662.5,655.6,662.1,656.2z M662.9,644.3v0.4c0,0.5,0.5,1.2,1.4,1.9h0.4V646c0-0.7-0.6-1.2-1.7-1.7H662.9z M663.7,659.2
		v0.1c0,0.1,0.1,0.2,0.3,0.2c0.7,0,1.6-0.8,2.7-2.5h-0.2L663.7,659.2z M663.8,621.4c0.7,0.5,1.6,0.9,2.6,1.1l0.1-0.1v-0.1
		c0-0.3-0.8-0.7-2.4-1.1H664L663.8,621.4z M664,650.6v0.4l0.3,0.1l0.2-0.2l-0.1-0.3H664z M665.9,627.1c0.3,0.3,1.1,0.4,2.2,0.4
		l1.6-0.1v-0.3c-0.7-0.1-1.6-0.2-2.9-0.2h-0.7L665.9,627.1z M666.7,615.4v0.2c0.6,0.9,1.1,1.4,1.6,1.4c0.4,0,0.7-0.3,1-0.8v-0.3
		C669.2,615.5,668.4,615.4,666.7,615.4z M668.3,651.2v0.5l0.2,0.2h0.2c0.3-0.1,0.5-0.6,0.5-1.3h-0.3L668.3,651.2z M669.3,618.1
		l0.2,0.2h0.3v-0.4h-0.3L669.3,618.1z"/>
	<path class="st8" d="M728.9,602.3c1.2,0,2.2,0.3,2.9,0.9c-0.6,1.5-1.1,4.2-1.3,8.1l-0.7,7.3c0,0.4,1,0.6,3.1,0.6
		c6.3,0,9.5,0.3,9.5,0.8c0.2,0,0.5,0.2,1,0.5c-0.5,0.8-0.8,1.3-0.8,1.5v0.3l0.2,1.6l-1,3.5c0,0.3,0.4,0.9,1.2,1.6v0.1
		c-1.2,0.4-2.2,0.6-3.1,0.6c-0.9-0.1-1.3-0.2-1.3-0.4v-0.1l0.7-0.1h0.6l0.3-0.3v-0.2l-0.3-0.1l-5.4,0.1l-4.5-0.1
		c-0.2,0-0.5,1.5-0.8,4.5h-0.1l-1.1-1.2l-0.2,0.8v0.5c0.1,1.5,0.2,2.3,0.5,2.4c0.2,0,0.4-0.5,0.6-1.5v-0.5h0.2l0.1,0.3l-0.6,7.6
		c0.5,8.5,1,12.7,1.4,12.7c0.2,1.7,0.9,2.5,2,2.5c0.7,0.3,1.4,0.5,2.2,0.5h1.4l4.7-0.2c0.2,0,0.4,1.4,0.6,4.3
		c0.2,1.7-0.7,2.5-2.8,2.5l-6.2,0.2c-3.5,0-6.3-0.9-8.5-2.8c-1.5-0.6-2.2-2.2-2.2-4.8c-0.2-2.1-0.4-6.4-0.6-12.8l1.3-7l0.2-4.7v-0.6
		c-0.3-2.2-1-3.3-1.9-3.3l-2.4-0.1h-2.8c-0.8,0-1.6,0.2-2.5,0.6c-0.5-0.1-1.2-0.8-2-2.1l1.6-7.1c0-0.2,3.2-0.3,9.7-0.4
		c0-0.7,0.4-1.6,1.2-2.6c0.2-8.3,0.5-12.4,0.8-12.4v-0.3c0-0.1-0.1-0.2-0.3-0.2V603C723.7,602.8,725.4,602.6,728.9,602.3z
		 M712.9,620c0,0.4,0.2,0.6,0.6,0.6h1.2c2,0,4-0.1,6.1-0.3v-0.1c0-0.3-1.3-0.5-3.9-0.5h-3.4C713.1,619.8,712.9,619.9,712.9,620z
		 M713.9,621.8v0.4c0,0.5,1.8,0.8,5.4,0.8c1.8,0,2.7-0.1,2.7-0.4c0-0.6-2.3-0.9-7-1h-0.9L713.9,621.8z M714.5,624.6
		c0,0.2,0.1,0.3,0.4,0.3l2,0.1l2.1-0.1l0.1-0.1v-0.1c-0.7-0.3-1.9-0.4-3.6-0.4h-0.7L714.5,624.6z M714.5,625.7v0.2
		c0,0.3,2,0.5,6,0.5l0.7-0.1v-0.1l-0.2-0.2L714.5,625.7z M721.9,643.2l0.3,2.2l-0.1,2.8l0.1,0.8h0.2c0.3,0,0.5-1.2,0.5-3.7v-1.9
		c0.2,0.2,0.2,0.3-0.1,0.3C722.4,643.7,722.1,643.6,721.9,643.2z M724.4,653.5v1.2l0.1,0.5h0.1l0.2-0.2v-1.3l-0.2-0.2H724.4z
		 M724.8,659v0.3c0.2,1.3,0.7,2,1.7,2h0.8l0.2-0.2v-0.1c0-0.2-0.5-0.4-1.5-0.6l-1-1.4H724.8z M725.5,629.9v0.6l0.2,0.2
		c0.2,0,0.3-0.2,0.3-0.6v-0.3l-0.1-0.5h-0.1C725.6,629.4,725.5,629.6,725.5,629.9z M725.7,631.4l-0.1,0.5v0.3l0.1,0.5h0.3l0.1-0.7
		v-0.4l-0.2-0.2H725.7z M725.8,604.4v0.5h0.3v-0.3l-0.2-0.2H725.8z M725.8,637v0.7l0.2,0.2h0.2v-0.2l-0.1-0.7H725.8z M726.2,607.3
		c-0.1,0.4-0.2,1.1-0.2,2.1v0.3h0.2l0.2-1.4v-0.8L726.2,607.3z M726.5,610.9l-0.3,7.9v0.1l0.2,0.2h0.2c0.3,0,0.5-0.7,0.5-2v-1.8
		l-0.1-4c-0.1-0.3-0.2-0.4-0.3-0.4H726.5z M726.9,649.6l-0.1,0.5v0.6c0,0.4,0.1,0.6,0.4,0.7h0.1c0.2,0,0.3-0.2,0.3-0.6
		c-0.1-0.8-0.3-1.2-0.5-1.2H726.9z M727,658.6L727,658.6l-0.1,0.6c0.1,0.3,0.3,0.5,0.6,0.6h0.5v-0.1
		C728,659.1,727.7,658.7,727,658.6z M727.7,652.9l-0.3,1c0,1.2,0.3,1.9,0.8,2.2l0.2-0.3v-0.7C728.3,653.8,728.1,653,727.7,652.9z
		 M728,631v0.2l0.3,0.3h0.1v-0.2L728,631L728,631z M729,604.9v0.1l0.2,1.9h0.2c0.6-0.7,0.9-1.2,0.9-1.7v-0.3l-0.3-0.3h-0.7
		L729,604.9z M730.9,622.6L730.9,622.6c0,0.3,1,0.5,2.9,0.6l1.3-0.1l1.8,0.3h0.3c0.4,0,0.6-0.2,0.6-0.5h-0.1l-6-0.5h-0.6
		L730.9,622.6z M732.1,626.2v0.2c0.1,0.2,1,0.5,2.8,0.8h0.2v-0.1c-0.8-0.6-1.6-0.9-2.5-0.9H732.1z M736.8,620.2l-1-0.1h-1.3v0.3
		c1.2,0.3,2.2,0.5,3,0.5h1.8c0.1,0,0.2-0.1,0.2-0.3c-0.1-0.6-0.4-0.9-0.9-0.9h-0.8L736.8,620.2z M735.8,660.2l0.3,0.1
		c2-0.3,3-0.7,3-1.1l-0.2-0.2C736.8,659.5,735.8,659.9,735.8,660.2z M736.6,627c1.5,0.5,2.8,0.7,3.9,0.7l0.3-0.3v-0.5l-0.2-0.2h-1.8
		C737.3,626.7,736.6,626.8,736.6,627z M739.5,624.4v0.1l0.3,0.3h0.3c0.5,0,0.8-0.2,1-0.5l-0.3-0.2h-1L739.5,624.4z M739.8,620.7v0.1
		l0.2,0.2c0.5,0,0.8-0.1,0.9-0.4v-0.1H740L739.8,620.7z"/>
	<path class="st8" d="M768.5,622.5c2.2,0,5,0.9,8.2,2.8c2.7,2,4.1,3.4,4.1,4.2c2.1,4.6,3.2,7.3,3.2,8.1l0.1,0.6
		c-0.8,1.8-1.2,3.1-1.2,3.8l-0.5,0.1h-6.9c-0.7,0-1.4,0.1-2.2,0.3c-7.7-0.6-13.1-0.9-16.1-0.9h-1.7c-0.7,1-1,1.6-1,2
		c0.4,0.7,0.6,1.6,0.6,2.8c0,2.1,0.3,3.3,0.9,3.6l0.1,0.4v0.1l-0.5-0.2v0.2l0.8,0.8c0,0.8,0.5,1.7,1.4,2.7c1.7,3.1,3.6,5,5.7,5.8
		c1.7,0.6,3.7,0.9,6,0.9c0.3,0,1.1-0.3,2.2-1c1-0.3,3.1-2.1,6-5.2V654c0-0.1-0.3-0.2-1-0.3l-0.2-0.4c1.2-2.4,2.7-3.9,4.4-4.6
		c0.2,0.2,1.2,1,2.9,2.2c1.2,1.9,2.8,4,4.7,6.5v0.3c-1.7,2.2-3,3.3-3.7,3.3h-0.3c0-1.2-0.7-1.9-2.1-2c-0.3,0-1.5,0.9-3.5,2.7
		c-1.1,0.9-3.2,1.8-6.3,2.7c-3.6,0.7-6,1.1-7.4,1.1l-4.6-1.6c-2.5,0-4.9-1.4-7-4.1c-0.9-0.9-1.7-2.1-2.2-3.5c0-0.3-0.6-2.6-1.8-6.6
		c-0.3-1.7-0.5-3.2-0.5-4.4V645c0-7.2,2.1-13.4,6.3-18.7c0.6-1.3,1.9-2.3,3.7-2.9c1.1-0.3,2.7-0.6,4.6-0.9
		C764.3,622.3,765.9,622.3,768.5,622.5z M750.5,642.8l-0.1,0.1v0.2l0.1,0.1c-0.1,0.3-0.2,0.6-0.2,1.1v0.3c0,0.9,0.3,1.7,0.8,2.6h0.2
		C751.3,644.7,751.1,643.2,750.5,642.8z M750.5,639.9l-0.1,0.5c0,0.3,0.1,0.5,0.3,0.5c0.2,0,0.3-0.3,0.4-0.8l-0.3-0.2H750.5z
		 M751.6,635.6c-0.4,0.4-0.8,1.5-1,3.2h0.1c0.3,0,0.8-0.9,1.4-2.8C752,635.7,751.8,635.6,751.6,635.6z M751.7,649.8v0.2l0.2,0.2h0.2
		V650l-0.2-0.2H751.7z M752.5,651.2l-0.1,0.1v0.1c0.3,0.9,0.6,1.3,0.9,1.3l0.1-0.1v-0.1C753.4,652.1,753.1,651.7,752.5,651.2z
		 M754.8,640.7L754.8,640.7l0.1,0.1l1.4-0.2v-0.1l-0.3-0.3h-0.2C755.3,640.1,754.9,640.3,754.8,640.7z M754.9,631L754.9,631l0.2,0.1
		l0.2-0.2v-0.1h-0.2L754.9,631z M754.9,636.1v0.3l0.2,0.2h0.1c0.4-0.2,0.7-0.5,0.9-0.9v-0.2h-0.3
		C755.4,635.5,755.1,635.7,754.9,636.1z M755.7,634v0.2c0,0.7,4.8,1.4,14.5,2l0.8,0.3l1-0.1c2.3,0.7,3.7,1.1,4.3,1.1
		c0,0.2,0.2,0.3,0.5,0.3c0.3-0.4,0.5-0.9,0.5-1.3V635c0-0.7-1.3-2.3-4-4.7c-1.2-1.2-2.5-1.9-4.1-2.1l-2.7-0.4
		c-4.4,0.8-7.3,1.9-8.7,3.2C757.3,632,756.6,633,755.7,634z M755.8,632.8v0.1c0.3-0.1,0.4-0.3,0.4-0.7v-0.1
		C755.9,632.2,755.8,632.4,755.8,632.8z M756,660.2v0.3c0,0.3,0.5,0.6,1.4,0.9l0.3,0.3v-0.1c-0.7-0.8-1.1-1.3-1.4-1.4H756z
		 M756.6,629.2v0.2h0.1c0.7-0.2,1.1-0.4,1.1-0.6v-0.1h-0.4C757,628.7,756.8,628.9,756.6,629.2z M757,640.1v0.4h0.4v-0.3l-0.1-0.1
		V640L757,640.1z M757.9,625.5v0.1l0.2,0.2h0.1c1.1-0.3,1.6-0.5,1.6-0.8v-0.5l-0.3-0.3h-0.2C758.4,624.5,757.9,624.9,757.9,625.5z
		 M758.9,639.3v0.2c1.3,0.3,4.1,0.5,8.5,0.7l0.1,0.1v0.1l-1.7,0.2c0,0.2,0.7,0.3,2.1,0.3c2.2,0,3.3-0.1,3.3-0.4
		C771.2,640,767.1,639.6,758.9,639.3z M759.7,636.6v0.2c1,0.7,2.9,1,5.5,1h0.7l1-0.1v-0.3C764.5,636.9,762.1,636.7,759.7,636.6z
		 M759.9,628.7c0.5-0.4,1.6-0.9,3.2-1.4v-0.1l-0.1-0.1h-0.8C760.7,627.4,759.9,628,759.9,628.7z M761.1,624.3h0.1c1,0,2.6-0.3,4.8-1
		c0.5,0,0.7-0.2,0.7-0.3l-0.2-0.2h-0.1c-1.5,0-3.2,0.4-5.2,1.2l-0.1,0.1V624.3z M761.8,660.5v0.1c0,0.2,0.6,0.5,1.7,0.7l0.1-0.1
		v-0.1C762.8,660.7,762.2,660.5,761.8,660.5L761.8,660.5z M764.6,625.9v0.1c0,0.2,1.1,0.5,3.3,0.8l0.1-0.1v-0.3
		c-0.4-0.6-1.1-0.9-2.1-0.9h-0.3C764.9,625.6,764.6,625.7,764.6,625.9z M766.3,661.4v0.2h0.3v-0.2H766.3z M769.3,663.4l-1.7-0.2
		h-0.3c-0.5,0-0.8,0.1-0.8,0.3v0.1l0.3,0.3h1.4c1.8,0,3.7-0.3,5.8-0.8V663c-0.1-0.3-0.4-0.4-0.9-0.4h-0.4
		C771.5,662.6,770.3,662.9,769.3,663.4z M767.9,624.7v0.2c0,0.2,1.1,0.3,3.2,0.5l0.1-0.1v-0.2c0-0.2-0.3-0.3-1-0.4H767.9z
		 M769.4,626.4v0.1c3,1.7,4.7,2.6,4.9,2.6h0.1l0.8-0.3l0.4,0.1l0.1-0.1v-0.1c-0.3-0.2-0.7-0.4-1.3-0.5l-1.6-0.7
		c-0.4-0.9-1.2-1.4-2.6-1.4H770C769.6,626.2,769.4,626.3,769.4,626.4z M774.2,638.7v0.2h0.3v-0.2H774.2z M774.3,640.8
		c0,0.2,0.5,0.3,1.4,0.3l0.8-0.1v-0.1c0-0.3-0.5-0.4-1.6-0.4C774.5,640.6,774.3,640.7,774.3,640.8z M774.3,659.1h0.2
		c0.3-0.2,0.5-0.4,0.7-0.8l-0.1-0.1C774.5,658.5,774.3,658.8,774.3,659.1z M774.8,662.6c0.5,0,1-0.4,1.3-1.2h-0.2
		C775.2,661.8,774.8,662.2,774.8,662.6z M775.6,630.3c0.2,0.4,0.4,0.6,0.8,0.6h0.1l0.2-0.2v-0.5l-0.4-0.4
		C775.9,629.8,775.6,630,775.6,630.3z M776.7,656.6l0.1,0.1h0.1c0.5,0,0.9-0.4,1.1-1.1v-0.1C777.5,655.5,777.1,655.8,776.7,656.6z
		 M777.4,631.4c0.5,1.7,1,2.6,1.3,2.8h0.3l0.2-0.2c-0.4-1.7-0.9-2.5-1.4-2.5l-0.1-0.1H777.4z M778.6,652l0.2,0.2h0.3
		c0.3,0,0.5-0.1,0.6-0.3l-0.3-0.3h-0.1C778.9,651.5,778.7,651.7,778.6,652z M779,659.5h0.3c0.5-0.5,0.8-0.9,0.8-1.1H780
		C779.3,658.6,779,659,779,659.5z M780.2,635.2v0.5l0.2,0.3c0.3-0.1,0.4-0.3,0.4-0.6v-0.2l-0.2-0.2h-0.2L780.2,635.2z M780.5,657.3
		l0.2,0.2c0.8-0.3,1.2-0.6,1.2-1.1v-0.1h-0.1C781,656.3,780.6,656.6,780.5,657.3z M782.3,656.4L782.3,656.4l0.3,0.1
		c0.3-0.2,0.5-0.4,0.5-0.8v-0.1h-0.2C782.5,655.8,782.3,656.1,782.3,656.4z M785.2,655.6l-0.1,0.1v0.1c0.2,0.7,0.4,1,0.7,1h0.1
		l0.2-0.2v-0.1C785.9,655.9,785.6,655.6,785.2,655.6z"/>
	<path class="st8" d="M804.1,619.1c6.6,0,9.9,0.3,9.9,0.8c0,0.3-1.2,0.4-3.7,0.4l-0.2,0.2c0,0.1,1.1,0.2,3.4,0.3l1.2,0.8l-0.9,1.7
		v0.1l6,10.2l0.3,0.1c0.6-0.4,2-2.2,4.1-5.5c0.9-0.9,1.3-1.4,1.4-1.7c0.4,0,1.1-0.7,2-2.1c0-1.1,0.4-2,1.2-2.7l0.2,0.2
		c0,0.5-0.2,0.9-0.6,1.4v0.2h0.1c1.1-1,1.6-1.8,1.6-2.3v-0.5l-0.1-0.1c0-0.5,0.6-0.8,1.9-0.9h2.1c7.5,0.3,11.2,0.9,11.2,1.8v1.5
		l-0.3,0.3h-2l2.2,0.8l0.1,0.5v0.9l-0.3,0.3h-0.6c-2,0.1-3.1,0.2-3.1,0.4v0.1c2.6,0.1,3.9,0.3,3.9,0.5v0.1l-0.6,0.6l0.7,0.4v0.1
		l-0.2,0.3c-2.7-0.5-6.6-0.8-11.8-0.8c-2.3,2.5-4.6,5.1-6.6,7.8c-2.3,2.4-3.5,3.8-3.5,4.2c0.4,1.1,1.5,3,3.2,5.9
		c0.3,0.9,1.7,3.4,4.1,7.4c0,0.7,1.3,1.5,4,2.4c0.5,0.3,1,0.4,1.6,0.4l5.6-0.2l0.6,1v1c-0.2,0.3-0.3,0.5-0.3,0.7
		c0,0.3,0.1,0.7,0.2,1.2c0.2,0.5-0.1,1.6-0.6,3.3c-0.3,0.3-0.6,0.4-1,0.4c-3.7-0.4-7.6-0.6-11.6-0.6h-1l-1.2,0.3h-0.7l-0.5-0.1v-0.1
		c0.5-0.6,0.7-1.1,0.7-1.6l-0.1-0.1h-0.2l-0.8,0.7H825c-0.5-0.1-0.7-1.4-0.7-3.9c0-0.2,0-0.8,0.1-1.9c0.2-0.2,0.3-0.3,0.3-0.6
		c-1.7-4.7-3.4-8-4.9-9.8h-0.4c-0.7,0.2-1.6,1.6-2.7,4.2c-1,1.5-1.9,3.2-2.7,5c-0.5,1.1-1,1.6-1.5,1.6l0.8,1.6l0.8,0.9l-0.3,1.1
		l0.2,0.8v0.2l-1.6,1.9v0.1l0.1,0.7l-0.3,0.1l-2.5-0.2h-0.7c-1.3,0-3.5-0.1-6.5-0.2c-3-0.1-4.5,0.1-4.5,0.6l-0.1,0.1h-0.4l0.1-1.3
		l-0.3-0.9c0.3,0,0.5-1.2,0.6-3.5c0.2-0.3,0.5-0.5,0.8-0.6c0-0.6,0.2-0.9,0.7-0.9l6.3-1.1c0.3-0.2,0.7-0.6,1-1.3
		c0.3,0,0.8-0.7,1.4-2c0.8-1,1.2-1.4,1.3-1.4c0.5,0,0.7-0.1,0.7-0.3v-0.1h-0.7l-0.7-0.1v-0.2c0.5-0.4,0.7-0.8,0.7-1.3
		c1.3-2,2.3-3.3,3.1-4.1l3.6-5.2c0-0.2-0.7-1.3-2.2-3.5c-3.2-5.5-5.3-8.5-6.2-9c0-0.1-1.8-0.3-5.4-0.5c-2.4-0.3-3.6-0.5-3.6-0.8
		c0.2-2.9,0.3-4.8,0.3-5.6C799.5,619.4,801.2,619.1,804.1,619.1z M799.5,623l-0.2,0.3v0.1c0,0.3,0.8,0.6,2.4,0.7h0.2l1.2-0.2v-0.2
		C803.1,623.5,801.9,623.3,799.5,623z M799.2,659.2v0.2c0.2,0.3,0.5,0.5,0.9,0.5l2.4-0.2v-0.2c0-0.3-0.9-0.5-2.7-0.6
		C799.4,659,799.2,659.1,799.2,659.2z M803.1,620.3v0.2h0.9v-0.1l-0.3-0.3h-0.4L803.1,620.3z M805,624l-0.1,0.1v0.1l0.3,0.3h0.3
		l0.1-0.3L805,624z M807.3,654.8v0.2c0.4,0,0.7-0.2,0.8-0.6l-0.1-0.1C807.6,654.4,807.4,654.6,807.3,654.8z M809.7,627.3v0.2
		l0.2,0.2h0.2v-0.2l-0.2-0.2H809.7z M809.7,623.3c0.1,0.2,0.3,0.3,0.6,0.3l0.2-0.2v-0.1l-0.3-0.3h-0.2L809.7,623.3z M810.2,628.2
		v0.1c0,0.4,0.3,0.8,0.8,1.2h0.1l0.2-0.2c0-0.5-0.3-0.8-0.8-1.2H810.2z M811.2,661.2v0.3h0.8v-0.1l-0.2-0.2H811.2z M812,623.2v0.3
		c0.3,0.5,0.6,0.7,1,0.7v-0.5l-0.5-0.5H812z M812.1,654v0.2h0.2l0.3-0.3v-0.3h-0.1L812.1,654z M814,644.9l0.1,0.1h0.1
		c1.6-1.9,2.4-3.1,2.4-3.5v-0.1h-0.1C815.3,642.4,814.5,643.5,814,644.9z M821.9,637.1v0.1h0.1c0.7-0.6,1.1-1.2,1.1-1.6
		C822.3,636.1,821.9,636.6,821.9,637.1z M828,628.8h0.2c0.3-0.2,0.5-0.4,0.6-0.7l-0.1-0.1C828.2,628.3,828,628.5,828,628.8z
		 M828.1,657.4c0.1,0.3,0.3,0.5,0.6,0.6h0.6v-0.1c0-0.5-0.3-0.8-0.9-0.8L828.1,657.4z M829.7,658.9v0.2h0.4v-0.2H829.7z
		 M830.8,654.4l-0.1,0.1v0.5c0,0.3,0.5,0.5,1.4,0.5h1l0.2-0.2L830.8,654.4z M831.6,659h2.7l1-0.1v-0.2l-0.5-0.1h-1.6
		C832.1,658.6,831.6,658.7,831.6,659z M832.5,624.3v0.3h0.1c0.4,0,0.8-0.3,1.2-0.8v-0.5h-0.3C833.2,623.5,832.9,623.8,832.5,624.3z
		 M837,624.8v0.2l1.2,0.1l1.7-0.1v-0.3h-2L837,624.8z M838.7,622.8v0.3l1.2,0.1h0.8V623l-1.7-0.2H838.7z M839.3,661.7v0.3
		c0.7,0.2,1.3,0.3,1.8,0.3l0.1-0.1v-0.1c0-0.2-0.3-0.3-1-0.4H839.3z M839.4,658.2v0.1h0.7l0.5-0.1V658c0-0.2-0.1-0.2-0.3-0.2
		C839.7,657.9,839.4,658.1,839.4,658.2z"/>
	<path class="st8" d="M870,602.3c1.2,0,2.2,0.3,2.9,0.9c-0.6,1.5-1.1,4.2-1.3,8.1l-0.7,7.3c0,0.4,1,0.6,3.1,0.6
		c6.3,0,9.5,0.3,9.5,0.8c0.2,0,0.5,0.2,1,0.5c-0.5,0.8-0.8,1.3-0.8,1.5v0.3l0.2,1.6l-1,3.5c0,0.3,0.4,0.9,1.2,1.6v0.1
		c-1.2,0.4-2.2,0.6-3.1,0.6c-0.9-0.1-1.3-0.2-1.3-0.4v-0.1l0.7-0.1h0.6l0.3-0.3v-0.2l-0.3-0.1l-5.4,0.1l-4.5-0.1
		c-0.2,0-0.5,1.5-0.8,4.5h-0.1l-1.1-1.2l-0.2,0.8v0.5c0.1,1.5,0.2,2.3,0.5,2.4c0.2,0,0.4-0.5,0.6-1.5v-0.5h0.2l0.1,0.3l-0.6,7.6
		c0.5,8.5,1,12.7,1.4,12.7c0.2,1.7,0.9,2.5,2,2.5c0.7,0.3,1.4,0.5,2.2,0.5h1.4l4.7-0.2c0.2,0,0.4,1.4,0.6,4.3
		c0.2,1.7-0.7,2.5-2.8,2.5l-6.2,0.2c-3.5,0-6.3-0.9-8.5-2.8c-1.5-0.6-2.2-2.2-2.2-4.8c-0.2-2.1-0.4-6.4-0.6-12.8l1.3-7l0.2-4.7v-0.6
		c-0.3-2.2-1-3.3-1.9-3.3l-2.4-0.1h-2.8c-0.8,0-1.6,0.2-2.5,0.6c-0.5-0.1-1.2-0.8-2-2.1l1.6-7.1c0-0.2,3.2-0.3,9.7-0.4
		c0-0.7,0.4-1.6,1.2-2.6c0.2-8.3,0.5-12.4,0.8-12.4v-0.3c0-0.1-0.1-0.2-0.3-0.2V603C864.8,602.8,866.5,602.6,870,602.3z M854,620
		c0,0.4,0.2,0.6,0.6,0.6h1.2c2,0,4-0.1,6.1-0.3v-0.1c0-0.3-1.3-0.5-3.9-0.5h-3.4C854.2,619.8,854,619.9,854,620z M855,621.8v0.4
		c0,0.5,1.8,0.8,5.4,0.8c1.8,0,2.7-0.1,2.7-0.4c0-0.6-2.3-0.9-7-1h-0.9L855,621.8z M855.6,624.6c0,0.2,0.1,0.3,0.4,0.3l2,0.1
		l2.1-0.1l0.1-0.1v-0.1c-0.7-0.3-1.9-0.4-3.6-0.4h-0.7L855.6,624.6z M855.6,625.7v0.2c0,0.3,2,0.5,6,0.5l0.7-0.1v-0.1l-0.2-0.2
		L855.6,625.7z M863,643.2l0.3,2.2l-0.1,2.8l0.1,0.8h0.2c0.3,0,0.5-1.2,0.5-3.7v-1.9c0.2,0.2,0.2,0.3-0.1,0.3
		C863.6,643.7,863.3,643.6,863,643.2z M865.5,653.5v1.2l0.1,0.5h0.1l0.2-0.2v-1.3l-0.2-0.2H865.5z M865.9,659v0.3
		c0.2,1.3,0.7,2,1.7,2h0.8l0.2-0.2v-0.1c0-0.2-0.5-0.4-1.5-0.6l-1-1.4H865.9z M866.6,629.9v0.6l0.2,0.2c0.2,0,0.3-0.2,0.3-0.6v-0.3
		l-0.1-0.5h-0.1C866.7,629.4,866.6,629.6,866.6,629.9z M866.8,631.4l-0.1,0.5v0.3l0.1,0.5h0.3l0.1-0.7v-0.4l-0.2-0.2H866.8z
		 M866.9,604.4v0.5h0.3v-0.3l-0.2-0.2H866.9z M866.9,637v0.7l0.2,0.2h0.2v-0.2l-0.1-0.7H866.9z M867.3,607.3
		c-0.1,0.4-0.2,1.1-0.2,2.1v0.3h0.2l0.2-1.4v-0.8L867.3,607.3z M867.6,610.9l-0.3,7.9v0.1l0.2,0.2h0.2c0.3,0,0.5-0.7,0.5-2v-1.8
		l-0.1-4c-0.1-0.3-0.2-0.4-0.3-0.4H867.6z M868.1,649.6l-0.1,0.5v0.6c0,0.4,0.1,0.6,0.4,0.7h0.1c0.2,0,0.3-0.2,0.3-0.6
		c-0.1-0.8-0.3-1.2-0.5-1.2H868.1z M868.1,658.6L868.1,658.6l-0.1,0.6c0.1,0.3,0.3,0.5,0.6,0.6h0.5v-0.1
		C869.2,659.1,868.8,658.7,868.1,658.6z M868.9,652.9l-0.3,1c0,1.2,0.3,1.9,0.8,2.2l0.2-0.3v-0.7C869.4,653.8,869.2,653,868.9,652.9
		z M869.2,631v0.2l0.3,0.3h0.1v-0.2L869.2,631L869.2,631z M870.1,604.9v0.1l0.2,1.9h0.2c0.6-0.7,0.9-1.2,0.9-1.7v-0.3l-0.3-0.3h-0.7
		L870.1,604.9z M872,622.6L872,622.6c0,0.3,1,0.5,2.9,0.6l1.3-0.1l1.8,0.3h0.3c0.4,0,0.6-0.2,0.6-0.5h-0.1l-6-0.5h-0.6L872,622.6z
		 M873.2,626.2v0.2c0.1,0.2,1,0.5,2.8,0.8h0.2v-0.1c-0.8-0.6-1.6-0.9-2.5-0.9H873.2z M877.9,620.2l-1-0.1h-1.3v0.3
		c1.2,0.3,2.2,0.5,3,0.5h1.8c0.1,0,0.2-0.1,0.2-0.3c-0.1-0.6-0.4-0.9-0.9-0.9h-0.8L877.9,620.2z M876.9,660.2l0.3,0.1
		c2-0.3,3-0.7,3-1.1L880,659C878,659.5,876.9,659.9,876.9,660.2z M877.7,627c1.5,0.5,2.8,0.7,3.9,0.7l0.3-0.3v-0.5l-0.2-0.2h-1.8
		C878.4,626.7,877.7,626.8,877.7,627z M880.6,624.4v0.1l0.3,0.3h0.3c0.5,0,0.8-0.2,1-0.5l-0.3-0.2h-1L880.6,624.4z M880.9,620.7v0.1
		l0.2,0.2c0.5,0,0.8-0.1,0.9-0.4v-0.1h-0.9L880.9,620.7z"/>
	<path class="st8" d="M896.8,621.5c0.5,0.3,1,0.5,1.6,0.5l1-0.5c7.3,0,10.9,0.2,10.9,0.6l0.1,0.5v1.4c0.4,1,0.6,2,0.6,3.1v1.2
		c-0.5,7.4-0.9,14.5-1.2,21.2c-0.2,0.3-0.3,0.8-0.3,1.6c0.1,0.3,0.4,0.4,0.7,0.4h0.3c2.9,0,4.3,0.3,4.3,1l-0.1,0.1v0.5
		c0.6,1.3,0.9,3.3,0.9,6l0.3,3.2l-0.2,0.2l-3.5,0.1h-8c-6,0-9-0.5-9-1.4c0-0.6-0.1-1.2-0.4-1.7c0.2-0.4,0.4-0.7,0.8-0.9h0.2
		c0.3,0.2,0.5,0.3,0.7,0.3h0.2c1.8,0,3.6-0.1,5.5-0.4v-0.2c-4.6-0.3-6.9-0.6-6.9-1l-0.1-0.7v-0.9l-0.2-2c0-0.6,2-0.9,6-0.9
		c0.5,0,0.8-1.2,0.8-3.6l0.9-21h-0.1c-2,0-2.7-0.2-2.1-0.6c-3.2,0-4.8-0.4-4.8-1.1c-0.2-0.1-0.3-0.3-0.3-0.6l0.4-1
		c0-0.2-0.2-0.5-0.5-0.8v-0.1c0.5-0.3,0.8-1.2,0.9-2.5l0.1-0.1H896.8z M897,655.8L897,655.8c0.4,0.5,2,0.7,5,0.8h0.5
		c0.5,0,0.8-0.1,0.8-0.3V656c-2-0.3-3.9-0.4-5.8-0.4L897,655.8z M897.9,623.1v0.2h0.4c1.4,0,2.1-0.1,2.1-0.3l-0.2-0.2h-0.2
		C898.6,622.8,897.9,622.9,897.9,623.1z M898.2,624.2v0.2c0,0.2,0.4,0.3,1.1,0.3h0.9h0.3h2.5c0.8,0,1.3-0.1,1.3-0.3v-0.1
		c0-0.3-1.6-0.4-4.7-0.2L898.2,624.2z M907.6,605.8c1.8,0,3.3,0.9,4.4,2.8l0.5,2.7c-0.1,0.9-0.7,2.2-1.7,3.9c-0.7,0.7-1.8,1-3.2,1
		c-3.3,0-5.4-0.5-6.3-1.6c-0.8-1-1.2-2.5-1.1-4.4c-0.2,0-0.3-0.1-0.3-0.2v-0.1c1.6-2.5,3.2-3.7,5-3.7
		C905.3,606,906.2,605.9,907.6,605.8z M903.3,608.2L903.3,608.2c1.8-0.2,2.7-0.4,2.7-0.6l-0.4-0.2
		C904,607.6,903.3,607.9,903.3,608.2z M903.7,646.6c0.1,0.4,0.2,0.6,0.3,0.6c0.2,0,0.2-0.2,0.3-0.7l-0.1-1.2
		c0.2-0.3,0.5-1.3,0.9-3.2v-0.5l-0.2-1.2c0.3-0.2,0.5-0.4,0.5-0.6c-0.2-0.6-0.3-1.2-0.3-1.7v-0.1c0.2,0,0.5-3,0.7-9
		c-0.2-0.4-0.3-0.6-0.4-0.6h-0.1c-0.7,0-1.2,2.6-1.3,7.9L903.7,646.6z M905.4,658.7h-1.2v0.3l1.2,0.1l2.3-0.2v-0.2h-0.4l-0.9-0.1
		L905.4,658.7z M904.8,610.5l0.4,0.1h0.1c0.7,0,1.1-0.2,1.2-0.6l-0.1-0.1h-0.9c-0.5,0-0.7,0.2-0.8,0.6H904.8z M905,656.6l0.3,0.3
		h0.1c0.5,0,0.7-0.2,0.7-0.7h-0.4C905.3,656.2,905.1,656.3,905,656.6z M905.8,651.4v0.4h0.3l0.3-0.3v-0.2l-0.2-0.2h-0.1L905.8,651.4
		z M905.9,649.9v0.5h0.2c0.3-0.1,0.4-0.4,0.4-0.9v-0.6h-0.2C906.1,648.9,906,649.2,905.9,649.9z M906,624.2v0.2
		c0.3,0,0.7,0.3,1.3,0.8h0.2c0.2,0,0.2-0.1,0.2-0.3h0.1c0.2,0,0.3,0.3,0.5,0.8h0.1l1.1-0.9v-0.4l-1.7-0.1h-1.2L906,624.2z
		 M906.4,628.7l0.4,1.3l-0.5,1.3c0.2,0.5,0.4,0.8,0.5,0.8h0.1l0.1-0.5v-0.5c0-2,0.3-2.9,0.9-2.9l0.2-0.3v-0.3l-0.2-0.2h-0.5
		C906.7,627.4,906.4,627.8,906.4,628.7z M907.1,642.3c-0.5,1.8-0.7,3.3-0.7,4.4h0.1c0.3,0,0.6-1.1,1-3.3v-0.6l-0.1-0.5H907.1z
		 M906.5,614.1v0.2h1.4l0.2-0.2l-0.2-0.2h-1.2L906.5,614.1z M907.5,629.4v0.4c0,0.3,0.1,0.6,0.4,0.7h0.2l0.3-0.3v-0.4
		c-0.1-0.2-0.3-0.4-0.6-0.5L907.5,629.4z M908.5,612.4v0.3h0.3c0.4,0,0.7-0.2,0.9-0.6v-0.3h-0.2C909.2,611.8,908.8,612,908.5,612.4z
		 M908.5,622.7l0.3,0.3h0.1v-0.3l-0.2-0.2L908.5,622.7z M910.1,610.2v0.3h0.1l0.3-0.3v-0.3h-0.1L910.1,610.2z M911.9,656.6
		c0.1,0.7,0.5,1,1.4,1h0.3v-0.2l-0.2-0.3c0-0.1,0.2-0.2,0.7-0.4v-0.4c0-0.3-0.1-0.6-0.4-0.7h-0.3c-0.2,0-0.3,0.3-0.5,0.8
		L911.9,656.6z M912.3,653.1c0.3,0.2,0.9,0.3,1.7,0.4v-0.2c0-0.2-0.3-0.3-1-0.4h-0.5L912.3,653.1z M912.3,658.5v0.2h0.1l0.3-0.3
		v-0.1h-0.2L912.3,658.5z M914.3,661.7v0.2h0.4l0.2-0.2v-0.1l-0.2-0.2h-0.1L914.3,661.7z"/>
	<path class="st8" d="M928.7,602.6l3.3,0.8l5.2-0.2c1.3,0,2,0.4,2,1.2c-0.3,2-0.5,4.6-0.5,8.1v12.6l-0.1,12l0.1,3.2l-0.4,15.2
		c1.5,0.4,4.2,0.8,8.2,1l0.1,0.1v1.1c0,0.3,0.3,0.7,0.8,1.3c-0.6,1.3-1.3,3.2-2,5.6l-0.7,0.6h-0.2c-0.3-0.5-1-0.7-2-0.7l-13.1-1.8
		c-4,0-6-0.2-6-0.7c0.7-1.3,1.1-3.3,1.4-6.2h0.2v-0.1l0.7,0.1h0.8c0.4-0.2,1.2-0.4,2.3-0.6c0.5,0.3,0.9,0.4,1.2,0.4h0.9
		c0.5,0,0.8-0.5,0.8-1.6c0.2-1.8,0.5-7.7,0.8-17.5c-0.3-3.2-0.7-12-0.9-26.4c-0.3-0.3-0.5-0.5-0.8-0.5l-3.6,0.2
		c-0.6-0.1-0.9-0.3-0.9-0.6c0.3-4.1,0.6-6.2,1-6.2L928.7,602.6z M924.9,661.5l0.2,0.2h0.4l0.2-0.2l-0.3-0.3h-0.2L924.9,661.5z
		 M925.9,657.5v0.2l0.3,0.1l0.2-0.2l-0.1-0.3h-0.2L925.9,657.5z M927.5,606.7v0.6l0.3,0.3h1.6l0.5-0.1v-0.2l-1.4-0.7l-0.4-0.3h-0.2
		L927.5,606.7z M927.8,604.5v0.2c0,0.5,0.3,0.7,0.8,0.7h0.3c0.6,0,1.2-0.3,1.7-0.9v-0.1h-2.3L927.8,604.5z M928.2,657.3v0.1
		c0,0.4,0.2,0.6,0.6,0.6h0.1v-0.6l-0.3-0.3h-0.2L928.2,657.3z M929.1,659.9L929.1,659.9l0.2,0.3h1.2c0.9,0,1.3-0.1,1.3-0.3v-0.1
		c-0.6-0.2-1.3-0.2-2.2-0.2h-0.2L929.1,659.9z M929.9,658.2v0.1l0.5,0.1h0.5l0.2-0.2v-0.2l-0.5-0.1h-0.1
		C930.1,657.9,929.9,658,929.9,658.2z M932.2,604.6l0.6,0.2h0.8l0.3-0.3v-0.1h-1.6L932.2,604.6z M933.2,651.8v0.3
		c0,0.4,0.1,0.6,0.3,0.6l0.4-0.4v-0.6c-0.1-0.7-0.2-1-0.4-1C933.2,650.7,933.2,651.1,933.2,651.8z M933.4,626v0.3l0.2,0.2l0.2-0.2
		v-0.4l-0.1-0.1c0-0.2,0.2-0.3,0.7-0.5v-0.2H934C933.6,625.3,933.4,625.6,933.4,626z M933.7,617.4v0.1h0.4v-0.3H934L933.7,617.4z
		 M934,613v0.3l0.2,0.2h0.1l0.2-0.2V613l-0.2-0.2h-0.1L934,613z M934.6,636.2v0.2h0.1c0.3,0,0.5-1.1,0.5-3.2
		C935,633.2,934.8,634.2,934.6,636.2z M934.9,607.5v0.1l0.2,0.2h0.3c0.6-0.5,1.2-0.8,1.8-1c0.3-0.4,0.4-0.7,0.4-0.9l-0.2-0.2h-0.2
		c-0.5,0-1,0.3-1.4,0.9C935.2,606.8,934.9,607.1,934.9,607.5z M936.4,639.9l-0.2,0.2l-0.1,5v6.7l0.1,3.1l0.1,0.1h0.6
		c0.2,0,0.2-0.2,0.3-0.7C937.1,644.7,936.9,639.9,936.4,639.9z M937.4,623.9l-0.2,1.6l0.1,1h0.1c0.2,0,0.3-0.4,0.3-1.1v-1.2
		L937.4,623.9z M937.2,627.1l-0.1,0.5v0.1h0.2l0.2-0.2v-0.4H937.2z M937.2,622.8L937.2,622.8l0.3,0.4h0.1V623l-0.2-0.2H937.2z
		 M939.9,659.3v0.1c0,0.3,0.9,0.5,2.7,0.5h2.1l0.5-0.1v-0.2l-0.7-0.1L939.9,659.3z M941.9,661.5l0.3,0.2h1.6c0.5,0,0.8-0.1,0.8-0.3
		v-0.2l-0.5-0.1h-1.2C942.2,661.2,941.9,661.3,941.9,661.5z M943.6,657.1v0.1c0.2,0.3,0.6,0.5,1.4,0.5l0.4-0.3v-0.3l-0.5-0.1h-0.8
		L943.6,657.1z M943.7,663.1v0.3l0.5,0.1h0.2l0.5-0.1v-0.3l-0.5-0.1h-0.2L943.7,663.1z"/>
	<path class="st8" d="M972.5,622.5c2.2,0,5,0.9,8.2,2.8c2.7,2,4.1,3.4,4.1,4.2c2.1,4.6,3.2,7.3,3.2,8.1l0.1,0.6
		c-0.8,1.8-1.2,3.1-1.2,3.8l-0.5,0.1h-6.9c-0.7,0-1.4,0.1-2.2,0.3c-7.7-0.6-13.1-0.9-16.1-0.9h-1.7c-0.7,1-1,1.6-1,2
		c0.4,0.7,0.6,1.6,0.6,2.8c0,2.1,0.3,3.3,0.9,3.6l0.1,0.4v0.1l-0.5-0.2v0.2l0.8,0.8c0,0.8,0.5,1.7,1.4,2.7c1.7,3.1,3.6,5,5.7,5.8
		c1.7,0.6,3.7,0.9,6,0.9c0.3,0,1.1-0.3,2.2-1c1-0.3,3.1-2.1,6-5.2V654c0-0.1-0.3-0.2-1-0.3l-0.2-0.4c1.2-2.4,2.7-3.9,4.4-4.6
		c0.2,0.2,1.2,1,2.9,2.2c1.2,1.9,2.8,4,4.7,6.5v0.3c-1.7,2.2-3,3.3-3.7,3.3h-0.3c0-1.2-0.7-1.9-2.1-2c-0.3,0-1.5,0.9-3.5,2.7
		c-1.1,0.9-3.2,1.8-6.3,2.7c-3.6,0.7-6,1.1-7.4,1.1l-4.6-1.6c-2.5,0-4.9-1.4-7-4.1c-0.9-0.9-1.7-2.1-2.2-3.5c0-0.3-0.6-2.6-1.8-6.6
		c-0.3-1.7-0.5-3.2-0.5-4.4V645c0-7.2,2.1-13.4,6.3-18.7c0.6-1.3,1.9-2.3,3.7-2.9c1.1-0.3,2.7-0.6,4.6-0.9
		C968.3,622.3,969.8,622.3,972.5,622.5z M954.5,642.8l-0.1,0.1v0.2l0.1,0.1c-0.1,0.3-0.2,0.6-0.2,1.1v0.3c0,0.9,0.3,1.7,0.8,2.6h0.2
		C955.3,644.7,955,643.2,954.5,642.8z M954.5,639.9l-0.1,0.5c0,0.3,0.1,0.5,0.3,0.5c0.2,0,0.3-0.3,0.4-0.8l-0.3-0.2H954.5z
		 M955.5,635.6c-0.4,0.4-0.8,1.5-1,3.2h0.1c0.3,0,0.8-0.9,1.4-2.8C956,635.7,955.8,635.6,955.5,635.6z M955.6,649.8v0.2l0.2,0.2h0.2
		V650l-0.2-0.2H955.6z M956.5,651.2l-0.1,0.1v0.1c0.3,0.9,0.6,1.3,0.9,1.3l0.1-0.1v-0.1C957.3,652.1,957,651.7,956.5,651.2z
		 M958.8,640.7L958.8,640.7l0.1,0.1l1.4-0.2v-0.1l-0.3-0.3h-0.2C959.2,640.1,958.9,640.3,958.8,640.7z M958.9,631L958.9,631l0.2,0.1
		l0.2-0.2v-0.1H959L958.9,631z M958.9,636.1v0.3l0.2,0.2h0.1c0.4-0.2,0.7-0.5,0.9-0.9v-0.2h-0.3
		C959.4,635.5,959.1,635.7,958.9,636.1z M959.7,634v0.2c0,0.7,4.8,1.4,14.5,2l0.8,0.3l1-0.1c2.3,0.7,3.7,1.1,4.3,1.1
		c0,0.2,0.2,0.3,0.5,0.3c0.3-0.4,0.5-0.9,0.5-1.3V635c0-0.7-1.3-2.3-4-4.7c-1.2-1.2-2.5-1.9-4.1-2.1l-2.7-0.4
		c-4.4,0.8-7.3,1.9-8.7,3.2C961.2,632,960.5,633,959.7,634z M959.7,632.8v0.1c0.3-0.1,0.4-0.3,0.4-0.7v-0.1
		C959.9,632.2,959.7,632.4,959.7,632.8z M960,660.2v0.3c0,0.3,0.5,0.6,1.4,0.9l0.3,0.3v-0.1c-0.7-0.8-1.1-1.3-1.4-1.4H960z
		 M960.5,629.2v0.2h0.1c0.7-0.2,1.1-0.4,1.1-0.6v-0.1h-0.4C961,628.7,960.7,628.9,960.5,629.2z M960.9,640.1v0.4h0.4v-0.3l-0.1-0.1
		V640L960.9,640.1z M961.9,625.5v0.1l0.2,0.2h0.1c1.1-0.3,1.6-0.5,1.6-0.8v-0.5l-0.3-0.3h-0.2C962.3,624.5,961.9,624.9,961.9,625.5z
		 M962.9,639.3v0.2c1.3,0.3,4.1,0.5,8.5,0.7l0.1,0.1v0.1l-1.7,0.2c0,0.2,0.7,0.3,2.1,0.3c2.2,0,3.3-0.1,3.3-0.4
		C975.2,640,971.1,639.6,962.9,639.3z M963.7,636.6v0.2c1,0.7,2.9,1,5.5,1h0.7l1-0.1v-0.3C968.5,636.9,966.1,636.7,963.7,636.6z
		 M963.9,628.7c0.5-0.4,1.6-0.9,3.2-1.4v-0.1l-0.1-0.1h-0.8C964.7,627.4,963.9,628,963.9,628.7z M965.1,624.3h0.1c1,0,2.6-0.3,4.8-1
		c0.5,0,0.7-0.2,0.7-0.3l-0.2-0.2h-0.1c-1.5,0-3.2,0.4-5.2,1.2l-0.1,0.1V624.3z M965.7,660.5v0.1c0,0.2,0.6,0.5,1.7,0.7l0.1-0.1
		v-0.1C966.7,660.7,966.2,660.5,965.7,660.5L965.7,660.5z M968.6,625.9v0.1c0,0.2,1.1,0.5,3.3,0.8l0.1-0.1v-0.3
		c-0.4-0.6-1.1-0.9-2.1-0.9h-0.3C968.9,625.6,968.6,625.7,968.6,625.9z M970.2,661.4v0.2h0.3v-0.2H970.2z M973.3,663.4l-1.7-0.2
		h-0.3c-0.5,0-0.8,0.1-0.8,0.3v0.1l0.3,0.3h1.4c1.8,0,3.7-0.3,5.8-0.8V663c-0.1-0.3-0.4-0.4-0.9-0.4h-0.4
		C975.4,662.6,974.3,662.9,973.3,663.4z M971.8,624.7v0.2c0,0.2,1.1,0.3,3.2,0.5l0.1-0.1v-0.2c0-0.2-0.3-0.3-1-0.4H971.8z
		 M973.4,626.4v0.1c3,1.7,4.7,2.6,4.9,2.6h0.1l0.8-0.3l0.4,0.1l0.1-0.1v-0.1c-0.3-0.2-0.7-0.4-1.3-0.5l-1.6-0.7
		c-0.4-0.9-1.2-1.4-2.6-1.4H974C973.6,626.2,973.4,626.3,973.4,626.4z M978.1,638.7v0.2h0.3v-0.2H978.1z M978.2,640.8
		c0,0.2,0.5,0.3,1.4,0.3l0.8-0.1v-0.1c0-0.3-0.5-0.4-1.6-0.4C978.4,640.6,978.2,640.7,978.2,640.8z M978.2,659.1h0.2
		c0.3-0.2,0.5-0.4,0.7-0.8l-0.1-0.1C978.5,658.5,978.2,658.8,978.2,659.1z M978.8,662.6c0.5,0,1-0.4,1.3-1.2h-0.2
		C979.2,661.8,978.8,662.2,978.8,662.6z M979.6,630.3c0.2,0.4,0.4,0.6,0.8,0.6h0.1l0.2-0.2v-0.5l-0.4-0.4
		C979.8,629.8,979.6,630,979.6,630.3z M980.7,656.6l0.1,0.1h0.1c0.5,0,0.9-0.4,1.1-1.1v-0.1C981.5,655.5,981,655.8,980.7,656.6z
		 M981.3,631.4c0.5,1.7,1,2.6,1.3,2.8h0.3l0.2-0.2c-0.4-1.7-0.9-2.5-1.4-2.5l-0.1-0.1H981.3z M982.6,652l0.2,0.2h0.3
		c0.3,0,0.5-0.1,0.6-0.3l-0.3-0.3h-0.1C982.9,651.5,982.7,651.7,982.6,652z M983,659.5h0.3c0.5-0.5,0.8-0.9,0.8-1.1h-0.1
		C983.3,658.6,983,659,983,659.5z M984.2,635.2v0.5l0.2,0.3c0.3-0.1,0.4-0.3,0.4-0.6v-0.2l-0.2-0.2h-0.2L984.2,635.2z M984.5,657.3
		l0.2,0.2c0.8-0.3,1.2-0.6,1.2-1.1v-0.1h-0.1C985,656.3,984.6,656.6,984.5,657.3z M986.3,656.4L986.3,656.4l0.3,0.1
		c0.3-0.2,0.5-0.4,0.5-0.8v-0.1h-0.2C986.5,655.8,986.3,656.1,986.3,656.4z M989.1,655.6l-0.1,0.1v0.1c0.2,0.7,0.4,1,0.7,1h0.1
		l0.2-0.2v-0.1C989.9,655.9,989.6,655.6,989.1,655.6z"/>
	<path class="st8" d="M1017,614.4c1.4,0,5.4,0.8,11.9,2.4c3.1,1.4,5,2.1,5.4,2.1c0.4-0.5,0.6-1.2,0.6-2.2v-0.1l-0.1-0.6
		c0-0.7,0.5-1,1.5-1c0.7-0.5,1.6-0.7,2.7-0.7c1.6,0,2.4,0.2,2.4,0.5l0.7,7.5v2.3c0,1.9-0.3,3.1-0.8,3.5c-0.5,0.5-0.9,0.7-1.2,0.7
		c-3-0.2-4.4-0.6-4.4-1.2c-0.5-1.3-1.4-2.2-2.8-2.8c-5.1-2.5-8.8-3.8-11.1-3.8l-2.2-0.1c-2.7,0-4.2,0.5-4.7,1.5c-0.7,0.9-1,2-1,3.5
		v0.1c0,2.9,1.5,5.3,4.6,7.3c3,1.2,5.6,1.8,7.9,1.8c0,0.5,1.2,1.1,3.6,1.8c0.5,0.8,1.5,1.2,3.1,1.2c1.7,0.7,4.1,2.7,7.1,6l0.3,0.4
		v0.2c0,0.1-0.2,0.2-0.5,0.2v0.1c0.7,1.5,1.1,2.4,1.1,2.8c0,4.8-0.8,7.9-2.3,9.1c-0.6,1.4-2.1,2.8-4.4,4.2c-2.6,2.3-5.1,3.5-7.7,3.5
		h-2.8c-4.2-0.7-6.3-1.2-6.3-1.6c-2.4-1.7-3.8-2.5-4.2-2.5c-2.6-1.3-4.4-2.6-5.5-3.9h-0.3c-0.7,1.8-1.2,2.8-1.6,2.8
		c-3.4-0.5-5.1-1.1-5.1-1.7c-0.3-0.7-0.5-3.1-0.6-7l0.8-5c0-1.8,0.2-2.7,0.7-2.7l5.1-0.6c0.4,0,0.7,1.5,1.1,4.4l2.3,4
		c0,0.2,2.4,1.8,7.1,4.8c1.2,1.3,2.9,2,5,2h2.8c2.8,0,4.7-0.9,5.8-2.8c1.3-1.3,2.2-3.3,2.7-5.8v-0.2c0-1.6-1.3-3.5-4-5.8
		c-1.2-1.3-2.7-2-4.6-2c-0.8-0.5-3.2-1-7.1-1.5l-6.5-3.3l-3.1-2.7c-1.3-2-2-3.5-2.1-4.3l0.1-1.3l-0.3-3.1c0-0.7,0.5-1.6,1.4-2.6
		c0-0.7,1.3-2.1,3.9-4.4c2.4-1.3,3.8-2.3,4.2-3.1L1017,614.4z M1001.8,651.9l0.1,2h0.1c0.3-0.3,0.5-1.6,0.5-3.9v-0.6l-0.2-0.2h-0.1
		C1002,649.2,1001.8,650.1,1001.8,651.9z M1004,656v0.3l0.3,0.3h0.1l0.2-0.2v-0.1l-0.3-0.3H1004z M1004.5,645.4v0.3l0.2,0.2l0.3-0.2
		l-0.1-0.3H1004.5z M1007.7,624.2c0.1,0.8,0.2,1.5,0.4,2.1h0.3v-0.1l-0.2-2.2h-0.3L1007.7,624.2z M1007.8,653.3v0.3
		c0.8,1,1.6,1.5,2.3,1.5h0.1v-0.2c-1.1-1.1-1.9-1.6-2.2-1.6H1007.8z M1008.4,622.2l-0.2,0.6v0.2l0.2,0.2l0.3-0.8v-0.1L1008.4,622.2z
		 M1009.6,631.8L1009.6,631.8l0.2,0.3h0.2v-0.3l-0.2-0.2L1009.6,631.8z M1009.8,625v0.2h0.2l0.3-0.3v-0.2h-0.2L1009.8,625z
		 M1010.8,621.4l0.1,0.1v0.1l0.3-0.1v-0.3h-0.2L1010.8,621.4z M1011.2,632.1v0.2c0.4,1.2,0.7,1.7,1.1,1.7h0.3l0.4-0.4v-0.1
		C1012.3,632.6,1011.7,632.1,1011.2,632.1L1011.2,632.1z M1011.3,622.6l0.1,0.1h0.3c1.2-0.8,1.8-1.5,1.8-2l-0.1-0.1h-0.1
		c-0.6,0-1.3,0.6-2,1.9V622.6z M1013.2,631.5v0.1l0.2,0.2h0.8v-0.2c0-0.2-0.3-0.3-0.8-0.3L1013.2,631.5z M1015.2,632.1l-0.1,0.1v0.5
		l0.5,0.5h0.2l0.2-0.2v-0.4C1015.8,632.3,1015.5,632.1,1015.2,632.1z M1015.2,636.3L1015.2,636.3c-0.1,0.4,0.3,0.7,1,1l0.1-0.1
		C1016.4,636.9,1016,636.6,1015.2,636.3z M1015.8,660.4v0.1c0,0.2,0.7,0.5,2.1,0.8l0.3,0.3h0.4c-0.1-0.7-0.3-1-0.5-1L1015.8,660.4z
		 M1016.6,615.6v0.3c0,0.2,0.3,0.4,1,0.5c1.5-0.1,2.2-0.2,2.2-0.5v-0.3c0-0.4-0.8-0.6-2.3-0.6C1017.1,615,1016.8,615.2,1016.6,615.6
		z M1017.8,634l-0.1,0.1v0.1c0.7,0.7,1.7,1.2,3.1,1.7l0.2-0.3C1020.9,635.4,1019.9,634.8,1017.8,634z M1018.8,619
		c0.3,0.3,0.5,0.4,0.8,0.4c0.6,0,1.1-0.3,1.7-0.9l-0.4-0.4h-0.9C1019.2,618.1,1018.8,618.4,1018.8,619z M1019.9,662.5L1019.9,662.5
		l0.3,0.4h0.6v-0.1c-0.1-0.2-0.3-0.3-0.8-0.3H1019.9z M1020.4,661.3v0.4h0.3v-0.2L1020.4,661.3L1020.4,661.3z M1021.6,663
		c0.7,0.4,1.7,0.6,3,0.6h0.1l3.5-0.1v-0.2c-0.2-0.4-2-0.6-5.5-0.6C1022,662.7,1021.6,662.8,1021.6,663z M1022.2,620.3
		c0,0.4,0.9,0.6,2.8,0.7v-0.2c0-0.3-0.8-0.5-2.4-0.8h-0.1L1022.2,620.3z M1022.2,636c0,0.3,1.9,0.8,5.6,1.6l1,0.1h0.3v-0.1
		c-1.7-1.2-3.6-1.9-5.9-2.1C1022.6,635.8,1022.2,636,1022.2,636z M1023.1,638.4v0.3l1.3,0.4h0.9v-0.2
		C1024.3,638.5,1023.6,638.4,1023.1,638.4z M1029.1,662.7v0.2l0.2,0.2h0.3c1-0.1,1.5-0.2,1.5-0.4l-0.2-0.2h-1.6L1029.1,662.7z
		 M1029.7,618.9L1029.7,618.9c0,0.3,0.3,0.4,1,0.5h0.2v-0.1C1030.9,619.1,1030.5,619,1029.7,618.9z M1030.7,621.9l-0.1,0.1v0.1
		c1.7,1,2.7,1.5,3.2,1.5v-0.1C1033.7,623.2,1032.7,622.6,1030.7,621.9z M1031,639.5v0.2c0.2,0.3,1.7,1.1,4.3,2.4
		c1,1,1.8,1.4,2.4,1.4h0.1l0.2-0.2c-1.2-1.6-3.3-2.9-6.2-3.8H1031z M1032.8,656.2v0.3h0.2c0.5-0.3,0.9-0.8,1.2-1.4l-0.2-0.2
		C1033.6,655.1,1033.2,655.6,1032.8,656.2z M1033.6,644.3v0.4c0,0.5,0.5,1.2,1.4,1.9h0.4V646c0-0.7-0.6-1.2-1.7-1.7H1033.6z
		 M1034.4,659.2v0.1c0,0.1,0.1,0.2,0.3,0.2c0.7,0,1.6-0.8,2.7-2.5h-0.2L1034.4,659.2z M1034.5,621.4c0.7,0.5,1.6,0.9,2.6,1.1
		l0.1-0.1v-0.1c0-0.3-0.8-0.7-2.4-1.1h-0.1L1034.5,621.4z M1034.7,650.6v0.4l0.3,0.1l0.2-0.2l-0.1-0.3H1034.7z M1036.6,627.1
		c0.3,0.3,1.1,0.4,2.2,0.4l1.6-0.1v-0.3c-0.7-0.1-1.6-0.2-2.9-0.2h-0.7L1036.6,627.1z M1037.4,615.4v0.2c0.6,0.9,1.1,1.4,1.6,1.4
		c0.4,0,0.7-0.3,1-0.8v-0.3C1040,615.5,1039.1,615.4,1037.4,615.4z M1039,651.2v0.5l0.2,0.2h0.2c0.3-0.1,0.5-0.6,0.5-1.3h-0.3
		L1039,651.2z M1040.1,618.1l0.2,0.2h0.3v-0.4h-0.3L1040.1,618.1z"/>
	<path id="nuage_1_" class="st9" d="M1236.9,241.4c-6,0-11.7,1.7-16.8,4.8c-0.2-11.9-11.8-21.4-26.1-21.4c-6.1,0-11.6,1.7-16.1,4.6
		c-7.7-21.4-26.3-36.5-48-36.5c-21.6,0-40.2,15-47.9,36.2c-4.7-1.9-9.7-2.9-14.9-2.9c-25.7,0-46.9,24.6-46.9,55
		c0,29.9,19.8,54.2,44.8,55v0h170v0c1,0,1.1,0,1.6,0c21.1,0,38.3-21.2,38.3-47.4C1275.1,262.6,1258,241.4,1236.9,241.4z"/>
</g>
</svg>
