<?xml version="1.0" encoding="utf-8"?>
<!-- Generator: Adobe Illustrator 19.0.0, SVG Export Plug-In . SVG Version: 6.00 Build 0)  -->
<svg version="1.1" id="Calque_1" xmlns="http://www.w3.org/2000/svg" xmlns:xlink="http://www.w3.org/1999/xlink" x="0px" y="0px"
	 viewBox="368 -5.5 1332.3 850.4" style="enable-background:new 368 -5.5 1332.3 850.4;" xml:space="preserve">
<style type="text/css">
	.st0{fill:#F7DB58;}
	.st1{fill:#49A834;}
	.st2{fill:#94BF20;}
	.st3{fill:#8A1F78;}
	.st4{fill:#DA076F;}
	.st5{fill:#C91051;}
	.st6{fill:#CA0E52;}
	.st7{fill:#029AD6;}
	.st8{fill:#336EA9;}
</style>
<polygon id="soleil_1_" class="st0" points="1363.1,383.5 1211.6,419.8 1363.1,455.7 1207.4,458.6 1347.7,526.3 1194.9,495.5 
	1317.4,591.8 1174.9,529 1273.7,649.4 1148.1,557.3 1218.7,696.2 1115.8,579.3 1155,730 1079.5,593.7 1085.4,749.4 1041,600.1 
	1013.3,753.4 1002.1,598 942.1,741.7 964.5,587.6 875,715.1 930,569.3 815.2,674.6 900.2,544.1 765.5,622.2 876.6,513.1 
	728.2,560.4 860.2,477.7 705.1,492 851.8,439.6 697.2,420.2 851.7,400.6 705,348.4 860.1,362.4 728,279.9 876.5,327 765.1,218 
	900,295.9 814.7,165.6 929.8,270.7 874.5,125 964.2,252.4 941.5,98.2 1001.8,241.9 1012.8,86.5 1040.8,239.7 1084.9,90.3 
	1079.3,246 1154.5,109.6 1115.5,260.4 1218.3,143.4 1147.8,282.3 1273.4,190.1 1174.7,310.6 1317.1,247.5 1194.8,344 1347.5,313 
	1207.3,381 "/>
<path class="st1" d="M441.2,273.3l0.5,0.5v0.5l-0.9,0.7c0.3,0.9,1.1,1.4,2.5,1.4h0.5l0.7-0.9l-1.1-1.6l0.5-0.5h12.7
	c7.1,0,10.6,2.3,10.6,6.8l1.1,1.1h0.9l0.7-0.7v-0.5l-0.7-2.7l0.2-0.5h0.5c5.3,0,7.9,5.7,7.9,17c0,25.9,1.6,44.7,4.7,56.3h0.9
	l19.7-1.1c23.8,1.5,35.7,3.6,35.7,6.3c0.6,0,4.7,3.2,12.2,9.7c11.8,9.6,19.4,19.4,22.8,29.4c3.8,3.9,5.7,15.4,5.7,34.4l0.5,9.5
	c-6.2,12.8-9.3,20.5-9.3,23.1c0,7.8-8.4,17.9-25.3,30.1c-2.1,4.8-14.8,7.5-38,8.1c-10.6-1.8-17.8-2.7-21.7-2.7h-7
	c-3.5,0-5.2,1.4-5.2,4.1l-6.8,8.6c-3.2,1.1-6,1.6-8.6,1.6c-2.4,0-7.5-2-15.1-5.9v-1.1c1.4-2,2-3.7,2-5.2V498l-1.1-5.7l0.7-4.3v-5.9
	l-1.1-6.1c2.4-13.4,3.6-22.6,3.6-27.6l1.1-3.2l-0.5-4.1l2.5-22.4v-1.4c0-4.4-1.4-21.3-4.1-50.9v-0.5l-0.5-0.5l0.5-2v-1.1
	c1.1-14.6,1.6-26.4,1.6-35.5l-0.7-23.4l-0.2-1.6h-0.5c-8,4.2-13.8,6.3-17.4,6.3c-2.4,0-4-5.7-4.7-17c0-0.8,0.7-2,2-3.8v-0.9h-0.5
	l-1.1,0.5l-0.5-0.5c0-7.8,0.9-11.8,2.7-11.8C429.5,273.8,434.2,273.3,441.2,273.3z M426.9,279.7v0.5c0,0.8,2.3,1.6,6.8,2.5
	c4.2-0.1,6.3-0.7,6.3-1.6v-0.5c-2.4-0.6-5.6-0.9-9.5-0.9H426.9z M431.7,286.9l-0.5,2v2.7c0,0.8,1.1,1.3,3.2,1.6
	c3.2,0,4.9-0.9,5.2-2.7c-2.9-2.4-5.4-3.6-7.5-3.6H431.7z M441.2,288v0.5l1.1,1.1h2.5v-0.7l-0.9-0.9H441.2z M445.9,481.1v0.9l0.9,0.7
	h0.7V482l-0.7-0.9H445.9z M448.4,289.6l1.1,1.1h3.2l1.6-1.6v-1.6l-1.1-1.1h-0.5C449.8,286.4,448.4,287.5,448.4,289.6z M449.1,278.5
	v0.5h0.9v-0.5H449.1z M453.4,493.1v1.1l1.4,1.1h1.6v-1.1l-1.6-1.6L453.4,493.1z M454.9,279.7v0.5h2.5v-1.7h-1.1L454.9,279.7z
	 M458.6,285.3v5.2l0.9,0.7c1.8-1.2,2.7-2.9,2.7-5.2c0-1.4-0.4-2.1-1.1-2.3h-0.9L458.6,285.3z M459,313.3c0.6,4.5,1.4,6.8,2.3,6.8
	h0.5v-0.5c-0.3-5-1-7.5-2-7.5C459.2,312.2,459,312.6,459,313.3z M461,493.1l1.1,0.2c1.8-0.6,2.7-1.5,2.7-2.7h-1.6
	C461.8,490.6,461,491.4,461,493.1z M464.2,473.6v2l0.7,0.7h0.5l0.7-0.7v-0.5c0-1.4-0.4-2.2-1.1-2.5L464.2,473.6z M469,273.8v0.9
	l-1.6,0.2l-0.5-0.2v-0.5l0.5-0.5h1.6V273.8z M473.7,429.3c0,6.2,0.2,10.9,0.7,14.2l-0.5,7.9v14.2c0,2.7,4.9,5.5,14.7,8.4
	c2.7,0.8,6.7,1.1,12,1.1c10.9,0,23.9-3.3,39.1-9.9c5.1-4.2,10.8-12.7,17-25.3l2-7.5c0-10.5-3.3-21.8-9.9-33.7
	c-1.4-6.6-4.7-12.4-9.9-17.4l-14.2-10.2c-14.8,0-29.9,3.2-45.4,9.7c-1.8,0-3,7.3-3.6,21.9C474.3,410.1,473.7,418.9,473.7,429.3z
	 M476,487.4v0.9c0,0.8,1.7,1.3,5.2,1.6h0.7V489c0-0.8-1.3-1.3-3.8-1.6H476z M476.4,472.5v0.2c0.3,0.9,1.1,1.4,2.3,1.4v-0.5
	C478.5,472.9,477.8,472.5,476.4,472.5z M482.7,368.1v1.1h0.5c5.3-1.1,7.9-2,7.9-2.7v-0.9h-0.5C488.5,365.6,485.9,366.4,482.7,368.1z
	 M497,358.8l0.7,0.9h2l2.7-0.9v-1.6l-1.6-0.2C498.9,357,497.6,357.6,497,358.8z M504,488.5l0.5,0.5h3.2c4.8-0.3,7.6-1.1,8.4-2.3
	v-0.9H515C509.7,485.8,506.1,486.7,504,488.5z M519.8,355.4v0.7c0.5,1.1,1.7,1.6,3.6,1.6h0.5V357l-1.6-1.6H519.8z M526.1,483.8v0.9
	h2.9l1.1-1.1v-0.5h-3.2L526.1,483.8z M529.3,495.8v0.7h0.9v-0.7H529.3z M530.9,366.7c0,2.1,2.9,4,8.8,5.7c4.4,5.6,7.4,8.4,9,8.4
	v-0.5c-1.1-4.4-2.9-7.4-5.4-9c-5.6-3-9.3-4.5-11.1-4.5h-1.3V366.7z M532.5,472.7v0.9l0.9,0.7h0.5c2.9-0.3,4.3-0.9,4.3-1.8l-1.1-1.4
	h-1.6C533.9,471.1,532.9,471.7,532.5,472.7z M542,481.5v1.1c6.8-2,10.5-3.5,11.1-4.7v-0.7C551.2,477.2,547.5,478.7,542,481.5z
	 M554.6,465.3v0.5l0.9,0.7c2.4-1.1,3.6-2.3,3.6-3.8l-0.9-0.9h-1.1C555.5,462.7,554.6,463.9,554.6,465.3z M559.4,404.7v0.9l0.9,0.7
	h0.7v-0.7l-0.7-0.9H559.4z M562.3,470.5v0.5c3,0,5.1-4.7,6.3-14.2h-2c-0.8,0-2,3.9-3.6,11.8C562.5,468.4,562.3,469.1,562.3,470.5z
	 M570.2,396.5v1.1c0,1.5,0.8,2.3,2.3,2.3h0.5v-0.2c0-1.5-0.7-2.6-2-3.2L570.2,396.5L570.2,396.5z"/>
<path class="st2" d="M653.5,355.4c2.7,13.4,2.6,20.2-0.3,20.2c-2.9,0.1,0.8,12.1,11.2,36.1c4.8,12.1,8.5,20.5,11.1,25.3
	c5.7,14.8,9.7,22.2,12,22.2c0.5,0,1.5,1.4,3.2,4.1l0.5,0.5h3.2c2.4,0,6.3-9.1,11.8-27.4c21.8-40.2,27.1-59.2,15.8-57
	c1.1-8.3,1.4-15.5,0.9-21.7l1.6-0.9c27.1,0.5,40.7,1.4,40.7,2.9c1.2,0,1.8,5.4,1.8,16.3c-1.5,6.2-3.4,9.3-5.7,9.3
	c-4.4-0.3-5.2,0-2.5,0.9h-2c-8.1,13.9-12.2,22.8-12.2,26.9c-2.7,10.1-6,17.3-9.9,21.7c-6.6,19-11.6,31.9-14.9,38.7
	c-1.4,1.5-2.9,6.9-4.5,16.3L702,512c-6.6,14.6-15.6,28.6-26.9,42L660,564.2c-6.3,1.7-11.3,2.5-14.9,2.5c-15.5,0-23.3-1.5-23.3-4.5
	c-1.7-1.1-3-4.1-4.1-9c-2.9-2.6-6.7-13.5-11.5-32.8v-0.5c0-2.1,2.1-3.2,6.3-3.2c3.6,0,9.9-2,18.8-5.9c2.7,0,6.5,9.6,11.3,28.9
	c1.5,4.4,2.7,6.6,3.6,6.6h2.5c1.8-0.6,3.5-3.1,5-7.5c1.1,0,5.2-5.4,12.4-16.3c3.3-6.9,6.7-13.1,10.2-18.5l0.9-3.6v-6.3
	c-0.2-3.2-2.4-7.9-6.8-14.2c-4.5-8.1-7.8-14.8-9.9-20.1c-9.9-27-21.1-51.5-33.5-73.5c-1.1-0.8-2-1.1-2.9-1.1l-19.2,0.7l-0.9-0.7
	l-0.5-10.6l-0.9-13.6l5.7-2.3l31-2.9h0.5l5.4,0.5L653.5,355.4z M606.7,376l-0.5,0.2v2.5l1.4,1.1h4.3c4.2-0.1,6.3-0.7,6.3-1.6
	C618.2,377.2,614.4,376.4,606.7,376z M619.8,521.8c1.4,2,2.3,4.1,2.7,6.3l2.3,2.3l1.4-0.2v-1.4c0-3-1.4-5.7-4.1-7.9h-1.6
	L619.8,521.8z M626.2,536.5v0.7c0,2.3,0.9,4,2.7,5.2l0.7-0.9v-0.7c0-1.7-0.9-3.1-2.7-4.3H626.2z M633.2,548.2v0.9l1.6,1.6h2.7
	l0.9-0.9c0-0.8-1.1-1.3-3.2-1.6H633.2z M634.7,379.8c0,2.9,1.5,6.2,4.5,9.9h0.2v-3.6c0-3.6-0.9-6-2.7-7h-1.1L634.7,379.8z
	 M638.8,557.7c0.8,1.7,2.2,2.5,4.3,2.5h4.3l0.9-0.9v-0.7c0-0.8-1.4-1.3-4.1-1.6h-4.7L638.8,557.7z M650.1,554.1l5.7,4.1h1.6
	c0.8-0.3,1.1-1.1,1.1-2.5v-1.6c-0.3-0.8-1.1-1.1-2.3-1.1h-2.9C651.3,553,650.3,553.3,650.1,554.1z M661.6,447.4v0.7l0.9,0.9h0.2
	l0.9-0.9v-0.2l-1.1-1.4L661.6,447.4z M661.6,540.8v0.5c2.1,0,4.2-2.6,6.3-7.7v-0.2h-0.5C664.8,534.7,662.8,537.1,661.6,540.8z
	 M663.7,433.8v0.5c4.5,12.4,7.2,18.5,7.9,18.5l0.5-0.2v-0.5c-4.1-12.2-6.7-18.3-7.9-18.3H663.7z M666.4,551.4l0.5,0.5h0.5
	c5.6-2.7,9-5.7,10.2-8.8c-0.9-0.8-1.8-1.1-2.7-1.1h-1.1c-2.1,0-3.6,1.9-4.5,5.7L666.4,551.4z M671.1,455.3v0.5l2,1.8
	c0.5,0,0.7-0.4,0.7-1.1c-0.5-1.2-1-1.9-1.6-2H672L671.1,455.3z M683.1,493.3v0.7h0.2c1.7,0,2.5-0.8,2.5-2.3v-2h-1.1
	C683.6,490.1,683.1,491.3,683.1,493.3z M689.4,518.2l0.7,0.9c1.8-1.4,2.7-2.9,2.7-4.5h-0.7L689.4,518.2z M694.9,503.2v0.7h1.6
	c1.7,0,4.6-5.3,8.8-15.8v-0.5C702.6,487.6,699.1,492.8,694.9,503.2z M698,482.9h1.6c3.2,0,7.5-10,13.1-30.1c0-0.5,1.1-1.6,3.2-3.4
	c0-1.8,0.5-3,1.6-3.6v-0.5l-0.9-2.3c3-5.9-0.7,0.7-11.1,19.7c-0.6,3.3-3.1,9.5-7.5,18.5V482.9L698,482.9z M719.1,461.6h0.5
	c3.3,0,6-7.9,8.1-23.7h-0.2c-0.9,0-2,2.6-3.2,7.9C721.1,453.2,719.4,458.5,719.1,461.6z M729.2,363.5l7.5,3.2l4.5-0.9h0.7l5.2,0.5
	v-0.7c0-0.9-2.1-1.4-6.3-1.6H736c-1.8,0-2.7,0.2-2.7,0.7L729.2,363.5z M742.8,392.7c-7.7,15.5-12.1,23.9-13.1,25.1v1.8
	c0,0.9,0.8,2.4,2.5,4.5l-2,6.3h0.7c3.2-5,7.3-15.8,12.4-32.6l0.7-5.2h-1.2V392.7z M743.5,383.7v1.6h1.6v-1.6H743.5z M745.5,373.7
	v1.4c0.6,1.2,1.8,1.8,3.6,1.8l0.5-0.2v-1.6l-2-2h-1.1L745.5,373.7z M750.7,374.4v0.9l1.1,1.1h0.5c7.1-1.7,10.6-3,10.6-4.1v-0.2
	l-0.9-0.9h-1.1C754.7,371.8,751.3,372.9,750.7,374.4z M754.6,364.2v0.2c0.1,0.6,0.8,1.1,2,1.6l5.4-0.7v-0.9
	c-0.2-0.8-0.9-1.1-2.3-1.1h-4.3L754.6,364.2z"/>
<path class="st3" d="M850.3,340.7c2.4,0.3,3.6,0.7,3.6,1.1l-1.4,2v0.7h0.5l16.3-0.5c18.2,0,30.4,4.5,36.4,13.6
	c4.1,5.3,6.7,9,7.9,11.1l1.1,0.5c1.8,0,13.7-5.7,35.7-17.2c2.9-1.2,5.2-1.8,7-1.8c8.4,0,17.4,3.2,26.9,9.5
	c17.6,14.3,26.4,26.3,26.4,35.9c1.7,3.6,5,25,9.9,64.2v8.8c0,2,0.5,3,1.4,3.2h1.1c1.8,0,5.2-0.8,10.2-2.5c3.5,0,5.2,6.1,5.2,18.3
	c0.3,5,0.5,9.7,0.5,14.2c-1.7,0-2.9,0-3.6,0h-0.7c-9.6,1.5-17.5,2.3-23.5,2.3l-9.7-1.1l-18.3,0.5H980c-0.5,0-0.7-0.8-0.7-2.5
	l-4.1-3.8v-0.5l0.9-3.2v-0.7l-1.6-8.4v-4.1c0-2.9,2.2-4.3,6.6-4.3c7.4,1.1,10.5-1.7,9.3-8.4c-0.3-16.3,0.3-28.6,1.8-36.8v-0.5
	l-0.7-19c0-3.2-2.8-7-8.4-11.5l-2.7-0.7h-2l-2.5,1.6c-0.5,0-0.7-1.1-0.7-3.2c-4.7-6.2-12.4-9.3-23.3-9.3c-13.4,1.2-21.5,5.2-24.2,12
	c-0.8,2.3-1.3,7.2-1.6,14.9l0.7,7.2v22.6l-0.2,9c0,9.6,2.6,15.1,7.9,16.3c2.3,0.5,3.4,1.2,3.4,2.3c-2.1,9.9-3.5,15.8-4.3,17.4
	l-7.9,1.6l-26.9-2.3l-3.2,0.7c-3.5,0-5.2-5.4-5.2-16.3v-1.1c0-1.2,3.2-2.8,9.5-4.7c1.7,0,2.5-0.8,2.5-2.3
	c-1.1-4.7-1.6-10.6-1.6-17.9l0.5-34.4c-1.1-4.7-1.6-8.4-1.6-11.1c0.1-5.3,0.8-7.9,1.8-7.9h0.5l2.5,1.6h0.7v-0.5
	c0-4.7-7.2-11.3-21.7-19.9c-4.1-1.5-7.8-2.3-11.1-2.3c-5.7,0-12.4,2.6-19.9,7.9l-0.2,1.6v25.3l0.7,66l1.6,1.1h1.1
	c0.6,0,1.1-0.8,1.4-2.3h0.7c5.6,0,8.9,1.4,9.9,4.3v2.7l0.7,7.2c0.5,8.7-1.8,13.1-6.8,13.1c-1.7,0.6-7.3,1-17,1.1l-40.7-2.7
	c-2.1,0-4.1-6.3-5.9-18.8v-0.1c0-1.7,4.2-3.8,12.7-6.3c0-1.7,4.2-3,12.7-4.1c1.5-0.6,2.3-1.7,2.3-3.2l2-73.5l0.5-17.4
	c0-1.8-2-2.7-5.9-2.7c-4.5,0-9.4,0.5-14.7,1.6c-3.5-2-5.2-4-5.2-6.1c1.7-1.1,2.5-2.7,2.5-5v-2.5c-0.9-5.6-2.1-8.4-3.6-8.4l-0.5-0.2
	v-0.5c1.4-0.8,2.8-2.7,4.3-5.9C817.4,343.6,832.5,342.1,850.3,340.7z M806,478.4c0,2-0.9,3.8-2.7,5.4c1.5,7.2,3,10.8,4.5,10.8h1.1
	l-1.8-16l-0.5-0.2L806,478.4L806,478.4z M808,363.5c0,2.1,1.8,3.2,5.4,3.2c5,0,10-1.6,15.1-4.7v-0.7l-1.4-0.5
	C814.4,360.8,808,361.7,808,363.5z M809.1,354.9v1.1l0.7,0.7c8.4,0,12.7-0.5,12.7-1.6l-0.7-0.7H815L809.1,354.9z M811.4,477l0.5,4.5
	h0.5c1.8-2.3,3.9-3.8,6.3-4.5v-1.1l-2.7-0.5h-3.2C812,475.4,811.5,476,811.4,477z M813,487.2v2.3l0.7,0.9h0.9v-2l-1.1-1.1L813,487.2
	L813,487.2z M817,485.8c0,2.4,3.6,2.9,10.9,1.4c1.2,1.5,2.4,2.3,3.6,2.3c6.5-0.3,11.9-0.8,16.3-1.6v-1.1l-15.4-0.9v-0.7l4.3-0.9
	l7,0.5h2.9v-0.5c-2.3,2.3-10.9,2.8-25.8,1.6l-1.6-1.1h-1.1L817,485.8z M821.3,347.7l0.9,0.9c4.4-0.3,6.6-0.8,6.6-1.6l-1.8-0.5
	C823.2,346.7,821.3,347.1,821.3,347.7z M826.1,479.5v1.1l2,0.5h2.7l2-0.5v-1.1l-2-0.5h-2.7L826.1,479.5z M830.1,465.7
	c0.1,3.2,0.7,4.7,1.6,4.7h0.7c2.6,0,4-1.6,4.3-4.7C839.1,465.7,836.9,465.7,830.1,465.7z M834.4,359.2v0.5h0.7l0.9-0.9v-0.5h-0.9
	L834.4,359.2z M836.7,369.4v15.8c0,3.2-0.5,6.3-1.6,9.3l2,3.4l-0.7,4.7v3.2l0.7,0.9h0.5c1.2,0,2.1-11.5,2.7-34.4v-0.5
	c0-2.3-0.8-3.8-2.3-4.7C837.2,367.5,836.7,368.2,836.7,369.4z M837.2,408.3v1.6l0.9,0.7h0.2V409l-0.7-0.7H837.2z M841.4,466.8v0.5
	c0,4.2,1.4,6.3,4.1,6.3h1.6c0.5,0,0.7-0.5,0.7-1.4L841.4,466.8z M844.6,351.3v0.5l0.9,0.7h0.5l1.1-0.7l-0.5-1.4h-1.1L844.6,351.3z
	 M845.5,381.4c-0.6,2.6-0.9,6.1-0.9,10.6v4.1l0.5,1.8h0.5c1.4,0,2-2.9,2-8.6v-2.5c0-3.6-0.5-5.4-1.6-5.4H845.5z M845.1,345.4v0.7
	l1.1,1.1c1.7,0,2.5-0.8,2.5-2.3l-0.5-0.5H846L845.1,345.4z M845.1,406.7v1.6l1.6,1.6h0.5l0.7-0.9v-1.6l-1.6-1.6H846L845.1,406.7z
	 M847.5,483.3v0.9h5.9l4.7-0.5v-1.1h-2.5L847.5,483.3z M850,494.6v0.5l0.9,0.7c1.7-0.6,3.1-1.7,4.3-3.2v-0.7
	C853.4,491.9,851.7,492.8,850,494.6z M850.9,359.2l-0.7,1.1l0.7,0.9h0.5l0.9-0.9v-0.7L850.9,359.2z M850.7,368.7v0.7h1.6
	c2.6-0.3,3.8-0.8,3.8-1.6v-0.7h-2.3C851.8,367.5,850.7,368,850.7,368.7z M851.4,351.3l1.1,0.5l20.3-3.6v-0.5h-9.3
	c-8.1,0-12.2,1.1-12.2,3.2v0.4H851.4z M851.4,486.3c0,1.7,2,2.7,5.9,3.2l1.6-1.4V487c0-0.9-2.1-1.4-6.3-1.6L851.4,486.3z M858.9,477
	v1.6l2,0.5l0.9-1.1l-0.9-0.9h-2V477z M860.2,359.7v0.2l16-1.6c5,0,9.7,2,14.2,6.1h0.9V363c-1.2-4.2-3.3-6.3-6.3-6.3h-3.2
	C867.7,356.7,860.5,357.7,860.2,359.7z M867.7,364.7c0,0.5,3,1.4,9,2.9c4.2,2.1,7.7,3.2,10.4,3.2h0.2l0.9-0.9
	c-5-4.2-10.4-6.3-16.3-6.3h-2C868.4,363.7,867.7,364.1,867.7,364.7z M883,350.9v0.9c4.4,1.2,7.4,1.8,9,1.8h0.5v-0.7
	c0-1.2-2.6-1.9-7.9-2L883,350.9L883,350.9z M893.4,364.7c0,2,0.9,2.9,2.7,2.9v-0.5c0-1.5-0.7-2.6-2-3.2L893.4,364.7z M897.7,362.4
	v1.1c2,3,3.7,4.9,5.2,5.7h0.7v-0.5c-0.8-2.1-2.6-4.2-5.4-6.3L897.7,362.4L897.7,362.4z M898.9,369.9v0.5c0,2.3,1.9,4.1,5.7,5.4h0.2
	v-3.2c0-0.6-1.8-1.5-5.4-2.7L898.9,369.9L898.9,369.9z M907.2,423.7l-0.5,2.7v11.5l0.5,5.9h1.1c0.8-2.3,1.1-4.9,1.1-7.9v-0.2
	c-0.2-8-0.8-12-1.8-12H907.2z M907.9,385.7c0,1.7,0.8,2.5,2.5,2.5h0.7v-0.9c-0.5-1.1-1.4-1.6-2.7-1.6H907.9z M908.8,484.2v0.7l2,0.5
	l1.6-0.5v-0.7l-0.9-0.9h-2L908.8,484.2z M915.1,471.1l1.1,1.1h2l1.6-1.6v-0.1l-0.8-1h-2.3L915.1,471.1z M917.2,374.2v2.9l1.1,1.1
	c2.6,0,5.9-1.9,9.9-5.7v-0.2h-7.9C918.8,372.3,917.8,373,917.2,374.2z M917.4,392l-0.2,1.1c0.1,1.7,0.5,2.5,1.1,2.5h0.7l1.6-1.6
	v-0.9C920.4,392.4,919.4,392,917.4,392z M917.2,464.1v0.7l1.1,0.5l0.7-1.1l-0.7-0.9h-0.5L917.2,464.1z M930.1,368.3l0.5,0.5h1.6
	c2.9-0.3,4.3-1.2,4.3-2.7l-1.1-0.5C932.2,366.3,930.5,367.2,930.1,368.3z M938.9,364.7v0.5h0.5c1.5,0,5-2.5,10.6-7.5v-0.9
	C942.6,358.9,938.9,361.5,938.9,364.7z M957,369.2v0.7c0.6,1.1,1.3,1.6,2,1.6c8.4,0,13-0.5,13.8-1.6c-0.8-1.8-4.1-2.7-10.2-2.7h-0.5
	C959.1,367.1,957.4,367.8,957,369.2z M961.5,359.2v0.7c0.1,0.9,1.2,1.4,3.2,1.4h1.1l0.7-0.9c-0.2-0.8-1.2-1.1-3.2-1.1h-1.8V359.2z
	 M962.6,356.1c0,0.3,1.8,1.1,5.4,2.3c2,2.7,4.2,4.1,6.8,4.1h6.3v-1c0-2.1-5.4-4.4-16.3-7h-0.2C963.4,354.9,962.8,355.5,962.6,356.1z
	 M970.1,381.4c4.5,5,8.7,7.5,12.7,7.5l0.9-0.7v-1.4c-1.4-2.1-3.6-4.2-6.8-6.3H971L970.1,381.4z M986.3,374.2v2
	c1.2,2.6,3.3,5,6.3,7.2v1.1h2V384c0-2.7-2.4-6-7.2-9.9L986.3,374.2L986.3,374.2z M987.5,488.1v0.7h8.4c2,0,3.2-0.5,3.6-1.6
	c-0.3-0.8-1.1-1.1-2.5-1.1h-5C991.1,486.1,989.6,486.7,987.5,488.1z M993.4,392.5v0.7c1.5,5.6,3,8.4,4.5,8.4h0.2v-0.5
	c0-2.9-1.4-5.7-4.3-8.6H993.4z M997.4,427.3l-0.5,1.1l0.9,12.2v0.9l1.1,1.1h0.5l1.6-1.6v-12.2l-1.6-1.6h-2V427.3z M997.9,455.3v1.1
	l0.7,0.9h0.9v-3.2H999L997.9,455.3z M998.6,406.3l3.6,5.7h1.1l0.5-2v-2.7c0-1.4-0.4-2.2-1.1-2.5h-2.9
	C999.1,404.7,998.7,405.2,998.6,406.3z M999,464.4v0.2l1.1,1.4l0.9-1.4v-0.7l-0.9-0.9L999,464.4z M1000.1,483.6v0.9h4.1
	c6-0.1,9-0.8,9-2l-1.1-0.7h-0.9C1003.8,481.8,1000.1,482.4,1000.1,483.6z M1009,472.5v0.5l1.1,1.1h0.9l1.6-1.6v-1.8l-0.9-0.9h-1.1
	C1009.5,470.2,1009,471.1,1009,472.5z M1017.5,483.3l0.5,0.2h1.1c1.4,0,2.2-0.4,2.5-1.1v-0.5c0-1.4-0.4-2.1-1.1-2.3
	C1019.4,479.7,1018.4,480.9,1017.5,483.3z M1026.8,477.7v3.6l1.1,1.1c0.6,0,1-1.6,1.1-4.7l-0.5-1.1h-0.7L1026.8,477.7z"/>
<path class="st4" d="M1140.6,329.6c3.6,0,10.6,1.5,21,4.5c12.2,11.6,19.4,20.6,21.5,26.9c4.4,4.5,8.1,14.1,11.1,28.7
	c3.3,3.2,5,10.6,5,22.4l0.5,7.5l-1.1,31.2c0,6,3.8,13.9,11.5,23.5c6.9,6.8,11.5,10.2,13.8,10.2v0.5c0,2.6-3.7,6.6-11.1,12.2
	c-5.4,5.3-8.9,7.9-10.4,7.9h-0.2c-3.2-0.2-11.6-6.3-25.3-18.5c-12.2,4.5-24.6,9.5-37.3,14.9c-8.3,2.4-17.5,3.6-27.6,3.6h-1.6
	c-11.5-2-21.1-6.3-28.9-13.1c-1.4-1.4-4.4-6.6-9-15.8c-3.8-4.5-5.7-10.2-5.7-17v-9c0-5.7,1.6-11.1,4.7-16.3
	c2.9-8.3,7.6-16.4,14.2-24.4c3.3-4.1,6.6-6.6,9.9-7.7c11-5.7,21.8-8.6,32.3-8.6l14.2-0.5h1.6c8.3,0,14,1.2,17.2,3.6h1.8
	c0.9,0,1.4-0.5,1.4-1.6c-2.1-9.5-5.8-18.9-11.1-28.3c-4.5-7.7-13.1-11.5-25.8-11.5l-12.7-1.6c-11.2,2.1-16.7,4.4-16.7,6.8
	c-4.2,5.4-6.9,12.4-7.9,21c-0.5,1.1-4.2,1.6-11.3,1.6l-2,0.5c-0.8,0-1.8,1.8-3.2,5.4c-5.9-0.9-8.8-2.1-8.8-3.6
	c0.8-1.8,1.6-9.4,2.5-22.8c3.3-9.5,11.2-18.3,23.7-26.4c6-3.5,9.6-5.2,10.6-5.2L1140.6,329.6z M1078.7,373.9v4.7h0.2
	c0.9-0.1,1.4-0.9,1.4-2.3v-2.5l-0.9-0.7L1078.7,373.9z M1082.1,350.6h0.5c1.8,0,4.6-2,8.4-5.9v-1.1h-0.5c-2,0-4.7,2.2-8.4,6.6V350.6
	z M1086.1,476.6v0.5l0.7,0.7h1.6v-0.7l-1.1-1.1h-0.5L1086.1,476.6z M1086.8,493.3v0.2c1.1,2.1,6.3,4.5,15.8,7.2
	c3.5,1.5,7.6,2.3,12.4,2.3v-0.2c0-0.9-4-2.1-12-3.6c-5.1-1.8-9.9-4.1-14.2-6.8h-1.1L1086.8,493.3z M1090.9,412.8v1.4h0.7
	c1.5,0,2.6-0.7,3.2-2v-0.9h-0.2L1090.9,412.8z M1090.9,441.1c1.4,12.7,3.1,19,5.2,19l3.2,3.8v0.5l-2.9-0.5v0.9
	c4.4,5.3,12.6,10.4,24.6,15.4c1.7,0.8,3.8,1.3,6.3,1.6c4.2,0,18.7-6.1,43.4-18.3c1.7-0.9,2.5-2.1,2.5-3.6v-1.6
	c-1.8-8.4-3.4-18.5-4.7-30.1l-0.5-0.2c0-2.3-2.3-4.1-7-5.7c-15.4-4.4-25.9-6.6-31.6-6.6c-15.7,3.6-26.7,8.9-33,15.8
	C1092.7,435.5,1090.9,438.7,1090.9,441.1z M1110.3,340v0.7c0.1,0.9,1.2,1.4,3.2,1.4s4.6-0.7,7.9-2V339h-1.4
	C1115.7,338.9,1112.4,339.3,1110.3,340z M1120.9,488.8c0.5,1.1,1.4,1.6,2.7,1.6c2.1-0.1,3.2-0.7,3.2-1.6v-0.3l-0.7-0.9h-4.1
	L1120.9,488.8z M1124.1,349.1l1.1,1.6h4.1l0.7-0.7v-0.5l-1.6-1.6h-2.7L1124.1,349.1z M1135.9,336.9l1.4,1.1h1.6l0.7-0.7l-1.1-1.4
	h-1.6L1135.9,336.9z M1146.9,484.5v0.5h1.6c3,0,6.9-1.2,11.5-3.6v-0.5h-1.1C1151.7,481.9,1147.7,483.1,1146.9,484.5z M1160,338.4
	v0.7c1.5,1.7,2.9,2.5,4.3,2.5h0.5v-0.9c-1.5-1.5-2.9-2.3-4.3-2.3L1160,338.4L1160,338.4z M1175.2,446v1.6l1.1,1.4h0.5l1.1-1.4V446
	l-0.9-0.7h-1.1L1175.2,446z M1175.9,435.4l0.9,1.1l1.1-0.2v-0.9l-0.9-0.7h-0.2L1175.9,435.4z M1184.7,420v1.1h0.7v-0.5L1184.7,420z
	 M1184.9,426.8v1.1l0.9,0.7l0.7-0.7v-1.1H1184.9z M1185.4,410.1v0.9c0.9,3.2,1.8,4.7,2.7,4.7h0.5c0-2.7-0.7-4.8-2-6.3h-0.2
	L1185.4,410.1z M1186.9,435.4v0.5c0.3,7.8,1.1,11.8,2.5,11.8l0.7-0.7v-0.5c0-4.2-0.7-7.9-2-11.1H1186.9z M1191.7,480.9
	c0.6,1.5,1.4,2.5,2.5,2.9h0.2l1.4-1.4v-0.7l-1.6-1.6h-1.6L1191.7,480.9z M1193.3,398.3v0.7c0.1,1.7,0.5,2.5,1.1,2.5l0.5-1.6
	c-0.5-1.1-0.8-1.6-1.1-1.6H1193.3z M1198.9,486.5v0.7l1.1,1.4h1.6l0.7-0.9v-0.5l-1.6-1.6h-1.1L1198.9,486.5z M1201.6,475v2
	c0.8,2.6,1.7,3.8,2.7,3.8h0.9v-0.7c-0.9-3.5-1.9-5.2-2.9-5.2h-0.7V475z"/>
<path class="st5" d="M1371.3,354.3c8.1,0,15,5.8,20.6,17.4c1.2,0,2.7,1.4,4.5,4.1l4.3,23.3c-1.8,2.4-7.4,3.6-16.7,3.6h-3.2
	c-7.8-1.1-11.8-3.7-11.8-7.9c0-3-2.4-7-7.2-12c-0.6-1.1-5.1-1.6-13.3-1.6c-8.3,0-17.9,2.1-28.9,6.3c-7.5,7.7-12.8,14.2-15.8,19.4
	c1.5,38,2,60.4,1.6,67.4c0,1.8,1.3,2.7,3.8,2.7h7.7c3.3,0.2,5,0.7,5,1.6v0.5l1.1,4.3l-0.7,17.4l-1.8,2.5l-14.7,1.4h-1.4l-6.3,2
	c-24-0.8-35.9-1.7-35.9-2.7c-4.2,0-6.3-1.9-6.3-5.7c-0.5-2.9-0.7-6.8-0.7-11.8c0-3.9,4.1-6.6,12.2-7.9c0-1.7,2.8-2.5,8.4-2.5
	l1.1-0.2v-0.5l-2-85.9c0-5.3-1.3-7.9-3.8-7.9h-2c-2.6,0-6.8,1.1-12.7,3.2l-0.5-0.5v-0.7c0-0.5,0.8-1,2.5-1.6v-0.5
	c-2.1,0-3.2-6-3.2-17.9c-0.3,0-0.6-1.8-0.9-5.4c8.6-6.6,17.3-9.9,26.2-9.9h7.9c2.7,0,8,1.1,15.8,3.2l0.5,1.1c-2,2.6-2.9,4.7-2.9,6.3
	v2C1318.5,353.4,1341.7,351.1,1371.3,354.3z M1259.4,492.4l-0.9,1.1v1.4l0.9,0.7h1.1v-2L1259.4,492.4z M1262.5,360.6
	c1.2,1.7,2.9,2.5,5.2,2.5l0.5-0.5v-2.3l-1.6-1.4C1263.9,359.3,1262.5,359.8,1262.5,360.6z M1266.2,497.1v0.5c0,1.1,3,1.6,9,1.6h9.5
	l2-0.5c0-1.1-5.6-1.8-16.7-2.3L1266.2,497.1z M1267.3,373v0.7h1.1c2.1,0,3.3-0.5,3.6-1.6l-0.7-0.7h-0.5
	C1268.8,371.4,1267.6,372,1267.3,373z M1267.3,492.4l0.5,0.5h17.4V492l-10.9-0.2h-6.3L1267.3,492.4z M1275.6,354.3v1.6l2,2h2.7v-0.7
	l-3.6-2.9H1275.6z M1289,401.7v1.6c1.1,1.8,1.6,4.1,1.6,6.8c-0.5,0.9-0.8,5.1-1.1,12.7l0.9,12.7h0.2c0.9,0,1.7-9.6,2.5-28.9
	c0.5,0,0.7-2.2,0.7-6.6c-0.3-2-0.8-2.9-1.6-2.9h-0.7C1289.8,398,1289,399.6,1289,401.7z M1291.5,385.2l-1.6,6.3c0,1.4,0.7,2.4,2,3.2
	h0.2c0.9,0,1.4-1.4,1.6-4.3l-1.1-5.2H1291.5z M1294.2,494l0.7,0.9h4.7l1.4-1.4c0-0.6-0.5-1-1.6-1.1
	C1295.9,492.7,1294.2,493.2,1294.2,494z M1296.2,361.5v0.5l0.7,0.7l1.4-1.1v-1.1h-0.9L1296.2,361.5z M1296.9,355.2v1.6h1.4l1.1-1.1
	v-0.5l-1.1-0.5L1296.9,355.2z M1296.9,460.3v2.5h1.1l1.4-1.1v-1.6l-0.9-0.9h-0.5L1296.9,460.3z M1297.3,466.4v1.1h0.7v-1.1H1297.3z
	 M1303.2,375.3v0.9l0.9,0.7h1.1l0.9-0.7v-0.9l-1.6-0.5L1303.2,375.3z M1324.7,367.8v0.7c1.8,0,4.2-3,7.2-9v-1.6h-0.2
	C1326.1,359.4,1323.8,362.7,1324.7,367.8z M1336.5,361l1.4,6.3h2.7l-0.2-6.8l-0.7-0.9h-0.9C1337.2,360,1336.5,360.4,1336.5,361z
	 M1343.9,358.6v0.5l0.7,0.7h3.2c1.4,0,2.2-0.4,2.5-1.1l-0.5-0.5h-2L1343.9,358.6z M1354.1,357.9v0.7h2l1.1-1.1l-0.7-0.9
	C1354.9,356.8,1354.1,357.3,1354.1,357.9z M1362,359.7v0.5h1.4l0.7-0.7V359h-1.1L1362,359.7z M1364.9,378h1.4
	c1.4-0.5,3.5-2.9,6.3-7.5V370c0-0.5-0.5-0.7-1.4-0.7c-3.6,1.5-5.4,3.8-5.4,6.8C1365.4,376.2,1365.1,376.8,1364.9,378z M1373.8,386.4
	v0.9h0.7l1.4-1.4v-0.7h-0.5C1374.3,385.7,1373.8,386.1,1373.8,386.4z M1374,358.6v0.5l0.7,0.7h1.4l0.7-0.7v-0.5l-0.7-0.7h-1.4
	L1374,358.6z M1383.7,369v0.9c1.2,1.8,2.6,2.7,4.3,2.7h0.7v-0.9c-1.4-1.8-2.8-2.7-4.3-2.7H1383.7z"/>
<path class="st6" d="M1487.5,355.4c2.7,13.4,2.6,20.2-0.3,20.2c-2.9,0.1,0.8,12.1,11.2,36.1c4.8,12.1,8.5,20.5,11.1,25.3
	c5.7,14.8,9.7,22.2,12,22.2c0.5,0,1.5,1.4,3.2,4.1l0.5,0.5h3.2c2.4,0,6.3-9.1,11.8-27.4c21.8-40.2,27.1-59.2,15.8-57
	c1.1-8.3,1.4-15.5,0.9-21.7l1.6-0.9c27.1,0.5,40.7,1.4,40.7,2.9c1.2,0,1.8,5.4,1.8,16.3c-1.5,6.2-3.4,9.3-5.7,9.3
	c-4.4-0.3-5.2,0-2.5,0.9h-2c-8.1,13.9-12.2,22.8-12.2,26.9c-2.7,10.1-6,17.3-9.9,21.7c-6.6,19-11.6,31.9-14.9,38.7
	c-1.4,1.5-2.9,6.9-4.5,16.3L1536,512c-6.6,14.6-15.6,28.6-26.9,42l-15.1,10.2c-6.3,1.7-11.3,2.5-14.9,2.5c-15.5,0-23.3-1.5-23.3-4.5
	c-1.7-1.1-3-4.1-4.1-9c-2.9-2.6-6.7-13.5-11.5-32.8v-0.5c0-2.1,2.1-3.2,6.3-3.2c3.6,0,9.9-2,18.8-5.9c2.7,0,6.5,9.6,11.3,28.9
	c1.5,4.4,2.7,6.6,3.6,6.6h2.5c1.8-0.6,3.5-3.1,5-7.5c1.1,0,5.2-5.4,12.4-16.3c3.3-6.9,6.7-13.1,10.2-18.5l0.9-3.6v-6.3
	c-0.2-3.2-2.4-7.9-6.8-14.2c-4.5-8.1-7.8-14.8-9.9-20.1c-9.9-27-21.1-51.5-33.5-73.5c-1.1-0.8-2-1.1-2.9-1.1l-19.2,0.7l-0.9-0.7
	l-0.5-10.6l-0.9-13.6l5.7-2.3l31-2.9h0.5l5.4,0.5L1487.5,355.4z M1440.8,376l-0.5,0.2v2.5l1.4,1.1h4.3c4.2-0.1,6.3-0.7,6.3-1.6
	C1452.3,377.2,1448.4,376.4,1440.8,376z M1453.9,521.8c1.4,2,2.3,4.1,2.7,6.3l2.3,2.3l1.4-0.2v-1.4c0-3-1.4-5.7-4.1-7.9h-1.6
	L1453.9,521.8z M1460.2,536.5v0.7c0,2.3,0.9,4,2.7,5.2l0.7-0.9v-0.7c0-1.7-0.9-3.1-2.7-4.3H1460.2z M1467.2,548.2v0.9l1.6,1.6h2.7
	l0.9-0.9c0-0.8-1.1-1.3-3.2-1.6H1467.2z M1468.8,379.8c0,2.9,1.5,6.2,4.5,9.9h0.2v-3.6c0-3.6-0.9-6-2.7-7h-1.1L1468.8,379.8z
	 M1472.9,557.7c0.8,1.7,2.2,2.5,4.3,2.5h4.3l0.9-0.9v-0.7c0-0.8-1.4-1.3-4.1-1.6h-4.7L1472.9,557.7z M1484.2,554.1l5.7,4.1h1.6
	c0.8-0.3,1.1-1.1,1.1-2.5v-1.6c-0.3-0.8-1.1-1.1-2.3-1.1h-2.9C1485.4,553,1484.3,553.3,1484.2,554.1z M1495.7,447.4v0.7l0.9,0.9h0.2
	l0.9-0.9v-0.2l-1.1-1.4L1495.7,447.4z M1495.7,540.8v0.5c2.1,0,4.2-2.6,6.3-7.7v-0.2h-0.5C1498.9,534.7,1496.9,537.1,1495.7,540.8z
	 M1497.7,433.8v0.5c4.5,12.4,7.2,18.5,7.9,18.5l0.5-0.2v-0.5c-4.1-12.2-6.7-18.3-7.9-18.3H1497.7z M1500.4,551.4l0.5,0.5h0.5
	c5.6-2.7,9-5.7,10.2-8.8c-0.9-0.8-1.8-1.1-2.7-1.1h-1.1c-2.1,0-3.6,1.9-4.5,5.7L1500.4,551.4z M1505.2,455.3v0.5l2,1.8
	c0.5,0,0.7-0.4,0.7-1.1c-0.5-1.2-1-1.9-1.6-2h-0.2L1505.2,455.3z M1517.2,493.3v0.7h0.2c1.7,0,2.5-0.8,2.5-2.3v-2h-1.1
	C1517.7,490.1,1517.2,491.3,1517.2,493.3z M1523.5,518.2l0.7,0.9c1.8-1.4,2.7-2.9,2.7-4.5h-0.7L1523.5,518.2z M1528.9,503.2v0.7h1.6
	c1.7,0,4.6-5.3,8.8-15.8v-0.5C1536.6,487.6,1533.1,492.8,1528.9,503.2z M1532.1,482.9h1.6c3.2,0,7.5-10,13.1-30.1
	c0-0.5,1.1-1.6,3.2-3.4c0-1.8,0.5-3,1.6-3.6v-0.5l-0.9-2.3c3-5.9-0.7,0.7-11.1,19.7c-0.6,3.3-3.1,9.5-7.5,18.5L1532.1,482.9
	L1532.1,482.9z M1553.1,461.6h0.5c3.3,0,6-7.9,8.1-23.7h-0.2c-0.9,0-2,2.6-3.2,7.9C1555.1,453.2,1553.4,458.5,1553.1,461.6z
	 M1563.3,363.5l7.5,3.2l4.5-0.9h0.7l5.2,0.5v-0.7c0-0.9-2.1-1.4-6.3-1.6h-4.7c-1.8,0-2.7,0.2-2.7,0.7L1563.3,363.5z M1576.8,392.7
	c-7.7,15.5-12.1,23.9-13.1,25.1v1.8c0,0.9,0.8,2.4,2.5,4.5l-2,6.3h0.7c3.2-5,7.3-15.8,12.4-32.6l0.7-5.2h-1.2V392.7z M1577.5,383.7
	v1.6h1.6v-1.6H1577.5z M1579.6,373.7v1.4c0.6,1.2,1.8,1.8,3.6,1.8l0.5-0.2v-1.6l-2-2h-1.1L1579.6,373.7z M1584.8,374.4v0.9l1.1,1.1
	h0.5c7.1-1.7,10.6-3,10.6-4.1v-0.2l-0.9-0.9h-1.1C1588.7,371.8,1585.4,372.9,1584.8,374.4z M1588.6,364.2v0.2c0.1,0.6,0.8,1.1,2,1.6
	l5.4-0.7v-0.9c-0.2-0.8-0.9-1.1-2.3-1.1h-4.3L1588.6,364.2z"/>
<path class="st7" d="M662.6,604.3h0.7c2.7,0,5.5,0.9,8.6,2.7c1.7,1.6,2.7,2.4,3.2,2.4h0.4c0.5-0.2,0.7-0.5,0.7-0.9v-0.1l-0.4-1.2
	c0-0.2,0.2-0.3,0.5-0.4c0.3,0.1,0.7,0.3,1,0.6h0.1v-0.2c0-0.6-0.4-1.2-1.2-1.9c0.3-0.2,0.8-0.2,1.6-0.2c0.3,0,1.3,0.5,3,1.6
	c0.3,0,0.5,0.2,0.5,0.6v7.5c0,3.5-0.3,5.5-0.8,6l-0.1,0.3l0.2,0.3v0.1c0,0.8-1.2,1.2-3.5,1.2c-0.5,0.3-0.8,0.4-1,0.4h-0.3
	c0-0.9-0.6-2.4-1.8-4.6c-0.8-3.5-1.7-5.5-2.6-6.2c-0.8-1-3.2-1.9-7.1-2.5l-2.4-0.2l-3.1,0.3l-0.6-0.6c-1,0.1-2.7,1.2-5.1,3.5
	l-0.2,0.7v0.1h0.3c2.3-1.9,3.9-3,4.7-3.3v0.1c-1.2,1.2-3.5,3-7,5.3c-1.5,1.1-2.6,2.6-3.3,4.4c-1.3,3.1-1.9,6.1-1.9,9
	c0,5.1,0.6,8.8,1.8,11c2.2,5.8,4.6,10,7.4,12.4c3.6,2,7,2.9,10.2,2.9h1.2c1.6,0,3.3-0.6,5.2-1.7c0.5-1.1,1.9-2.6,4.2-4.4
	c1.8-1.4,2.7-2.6,2.7-3.5v-0.3l-0.1-2.1c0-0.2,0.3-0.5,1-0.9c0-0.2,0.1-0.4,0.4-0.5h0.2l1.9,0.3h1.4c0.4,0,0.6,0.4,0.6,1.1
	c0.5,2.6,0.8,4.4,0.8,5.5c0,2.7-0.3,4.9-1,6.7v0.3l0.1,0.6l-0.4,0.6v0.1c0,0.1,0.4,0.2,1.3,0.4v0.2l-5.2,2.5h-0.2
	c-0.7-1-1.4-2.2-1.9-3.9l-0.1-0.1h-0.1c-0.9,0.3-2.1,1-3.6,1.9c-4.1,1.8-6.7,2.7-7.7,2.7l-4.8-1.5l-0.9-0.1h-0.5l-1,0.3
	c-1.3,0-3.3-0.6-6-1.7c-2.2-0.6-4.1-2-5.5-4.4c-3.8-5.5-5.6-9.6-5.6-12.5c-0.5-2-0.7-3.4-0.7-4.4c0.1-0.5,0.4-0.8,1-0.8l0.1,0.7v0.5
	h0.4l0.3-0.3v-0.3c0-0.8-0.6-1.3-1.8-1.5c-0.2,0-0.3-2.9-0.4-8.7c0-1.3,0.7-3.6,2.2-7.1c0.2,0,0.3-0.7,0.4-2.2
	c0.2-0.1,0.4-0.7,0.6-1.9c1.5-1.8,3.5-3.4,5.9-5c1.1-1,2.7-2,4.7-2.8C658.2,605.2,661,604.3,662.6,604.3z M641.5,628.1v0.4h0.3
	l0.2-0.2l-0.2-0.2H641.5z M642.1,625.4l-0.3,1.2v0.7h0.2c0.2,0,0.3-0.3,0.3-0.8v-1.1L642.1,625.4L642.1,625.4z M642.1,637.8v0.2
	l0.3,0.3h0.1V638l-0.2-0.2H642.1z M642.5,631.9l-0.1,0.5v0.7l0.3,0.3l0.2-0.2v-0.5C642.9,632.2,642.8,631.9,642.5,631.9L642.5,631.9
	z M644,641.1c0,0.3,0.1,0.6,0.4,0.7h0.1l0.2-0.2v-0.2l-0.4-0.4L644,641.1z M644.1,634.6v1.4c0.1,1.2,0.8,2.8,2.2,4.7l0.1,0.1h0.3
	v-0.3c-1-3.1-1.7-6.1-2.1-9.2h-0.1C644.2,631.4,644.1,632.4,644.1,634.6z M644.1,643.2v0.2c0.3,1.2,0.6,1.7,0.9,1.7h0.1
	c0.2,0,0.2-0.1,0.2-0.3L644.1,643.2L644.1,643.2z M644.7,624.6v0.2h0.3l0.3-0.3v-0.6h-0.2C644.8,624,644.7,624.3,644.7,624.6z
	 M645.6,648.6l0.2,0.2h0.1l0.2-0.2l-0.2-0.2h-0.1L645.6,648.6z M646,614.8c0.6,0,1.1-0.2,1.4-0.7v-0.2h-0.3
	C646.5,613.9,646.1,614.2,646,614.8z M646.5,649.6L646.5,649.6c0,0.3,0.2,0.7,0.5,1.2h0.3v-0.1C647.3,650.3,647.1,650,646.5,649.6
	L646.5,649.6z M647.8,651.5c0.3,1.2,0.9,2,1.6,2.4h0.4v-0.5c-0.4-0.7-1-1.4-1.8-1.9H647.8z M648.4,648.1L648.4,648.1
	c0.9,1.7,1.6,2.6,2.2,2.6v-0.4C649.5,648.9,648.8,648.2,648.4,648.1z M651.1,651.2c0,0.7,0.5,1.1,1.5,1.4h0.2l0.3-0.3
	c-0.5-0.6-1-1-1.7-1.2L651.1,651.2z M651.3,612.9h0.3l0.3-0.3v-0.2C651.5,612.4,651.3,612.6,651.3,612.9z M651.8,656.1L651.8,656.1
	c0,0.3,1.2,0.7,3.5,1.4c0,0.2,0.5,0.3,1.4,0.3l0.3-0.1v-0.1c-0.1-0.2-1.1-0.7-2.9-1.4c-0.2-0.2-0.6-0.3-1.3-0.3H652L651.8,656.1z
	 M652.2,611.9h0.2c0.3-0.1,0.5-0.2,0.5-0.4v-0.1h-0.1C652.6,611.5,652.4,611.6,652.2,611.9z M653,608.6v0.2h0.1c1-0.3,2-0.8,3.1-1.5
	v-0.1l-0.1-0.1H656C654.7,607.3,653.7,607.9,653,608.6z M653.5,653.8L653.5,653.8c0,0.3,0.7,0.5,2.1,0.8v-0.1
	c-0.3-0.5-0.8-0.7-1.7-0.7H653.5z M655.8,655.8l-0.1,0.1v0.1c1.3,0.9,3.1,1.4,5.1,1.4h0.5l0.2-0.2
	C658.8,656.3,656.9,655.8,655.8,655.8z M659.9,606.1v0.2h0.2c0.7-0.1,1-0.2,1-0.4l-0.2-0.2h-0.1C660.3,605.7,660,605.8,659.9,606.1z
	 M662.3,656.8c0.7,0.7,1.7,1,3.2,1c1.8-0.2,2.7-0.4,2.7-0.8v-0.1c0-0.3-0.7-0.4-2-0.4H665C663.2,656.5,662.3,656.6,662.3,656.8z
	 M664.4,659.6v0.3l1.2,0.2h0.5c0.5,0,1.8-0.6,4-1.7v-0.3H670c-0.5,0-1.6,0.3-3.3,1L664.4,659.6z M664.7,607.8c0,0.2,1.2,0.5,3.5,0.9
	l0.4,0.3h0.5l0.3-0.3v-0.1c-0.5,0-1.1-0.3-1.7-0.9c-1-0.4-1.7-0.6-2.2-0.6C665,607.2,664.7,607.4,664.7,607.8z M665.2,605.7
	l-0.1,0.1v0.2l1.2,0.2h0.2l0.2-0.2C666.7,605.8,666.2,605.7,665.2,605.7z M671.5,657L671.5,657l0.3,0.1l0.2-0.2l-0.1-0.1h-0.2
	L671.5,657z M674,610.2v0.2c0.4,0.6,0.8,0.9,1.2,0.9h0.1l0.2-0.2V611c-0.5-0.5-0.9-0.8-1.3-0.8L674,610.2L674,610.2z M675,612.9v0.2
	l0.3,0.1l0.2-0.3l-0.2-0.2h-0.1L675,612.9z M675.5,654.9L675.5,654.9L675.5,654.9c0.5,0.1,0.8-0.1,0.9-0.4v-0.1h-0.1
	C676,654.3,675.7,654.5,675.5,654.9z M676.6,619.8v0.2c0.9-0.3,1.4-0.5,1.4-0.8c0-0.2-0.2-0.3-0.5-0.5h-0.2
	C676.9,619,676.6,619.4,676.6,619.8z M676.6,621.4v0.4h0.3c0.3,0,0.6-0.1,0.7-0.4v-0.1l-0.2-0.2h-0.5L676.6,621.4z M677.2,650.7
	L677.2,650.7l0.2,0.1l0.4-0.2v-0.3h-0.1C677.3,650.5,677.2,650.6,677.2,650.7z M677.7,618v0.2l0.3,0.1l0.2-0.2l-0.1-0.3H678
	L677.7,618z M677.7,649.4v0.2h0.4l0.2-0.2v-0.2H678L677.7,649.4z M679.8,657.8v0.3l0.4,0.4h0.4c1.3-0.3,1.9-0.5,1.9-0.7v-0.1H681
	L679.8,657.8z M680.2,645.4L680.2,645.4l0.4,0.5h0.1c0.7-0.1,1-0.2,1-0.4v-0.1l-0.2-0.2h-1.1L680.2,645.4z M680.2,647.5v1l0.3,0.3
	h0.1l0.2-0.2V648c0-0.3-0.1-0.6-0.4-0.7L680.2,647.5z M680.4,649.2v0.3h0.2l0.2-0.2v-0.1H680.4z M680.7,655l0.2,0.3l0.3-0.1V655
	l-0.2-0.2h-0.1L680.7,655z M681,651.2v0.6l0.2,0.2h0.1v-0.6L681,651.2L681,651.2z M681.2,647.1v0.3c0.2,0.3,0.4,0.5,0.6,0.5
	c0.2-0.2,0.3-0.5,0.3-0.9v-0.5c0-0.2-0.1-0.2-0.3-0.2C681.5,646.4,681.2,646.7,681.2,647.1z"/>
<path class="st7" d="M722.7,619.8c2.1,0,3.8,1.5,5.2,4.4c0.3,0,0.7,0.3,1.2,1l1.1,5.9c-0.5,0.6-1.9,0.9-4.3,0.9h-0.8
	c-2-0.3-3-0.9-3-2c0-0.8-0.6-1.8-1.8-3.1c-0.2-0.3-1.3-0.4-3.4-0.4s-4.6,0.5-7.4,1.6c-1.9,2-3.3,3.6-4,5c0.4,9.7,0.5,15.4,0.4,17.2
	c0,0.5,0.3,0.7,1,0.7h2c0.8,0,1.3,0.2,1.3,0.4v0.1l0.3,1.1l-0.2,4.4l-0.5,0.6l-3.7,0.3h-0.3l-1.6,0.5c-6.1-0.2-9.2-0.4-9.2-0.7
	c-1.1,0-1.6-0.5-1.6-1.4c-0.1-0.7-0.2-1.7-0.2-3c0-1,1-1.7,3.1-2c0-0.4,0.7-0.6,2.1-0.6l0.3-0.1v-0.1l-0.5-21.9c0-1.3-0.3-2-1-2
	h-0.5c-0.7,0-1.7,0.3-3.2,0.8l-0.1-0.1v-0.2c0-0.1,0.2-0.2,0.6-0.4v-0.1c-0.5,0-0.8-1.5-0.8-4.6c-0.1,0-0.2-0.5-0.2-1.4
	c2.2-1.7,4.4-2.5,6.7-2.5h2c0.7,0,2,0.3,4,0.8l0.1,0.3c-0.5,0.7-0.7,1.2-0.7,1.6v0.5C709.3,619.6,715.2,619,722.7,619.8z M694.2,655
	l-0.2,0.3v0.3l0.2,0.2h0.3v-0.5L694.2,655z M695,621.4c0.3,0.4,0.8,0.6,1.3,0.6l0.1-0.1v-0.6L696,621
	C695.3,621.1,695,621.3,695,621.4z M695.9,656.2L695.9,656.2c0,0.4,0.8,0.5,2.3,0.5h2.4l0.5-0.1c0-0.3-1.4-0.5-4.3-0.6L695.9,656.2z
	 M696.2,624.6v0.2h0.3c0.5,0,0.8-0.1,0.9-0.4l-0.2-0.2h-0.1C696.6,624.2,696.3,624.3,696.2,624.6z M696.2,655l0.1,0.1h4.4v-0.2
	l-2.8-0.1h-1.6L696.2,655z M698.3,619.8v0.4l0.5,0.5h0.7v-0.2l-0.9-0.7H698.3z M701.7,631.9v0.4c0.3,0.5,0.4,1,0.4,1.7
	c-0.1,0.2-0.2,1.3-0.3,3.2l0.2,3.2h0.1c0.2,0,0.4-2.5,0.6-7.4c0.1,0,0.2-0.6,0.2-1.7c-0.1-0.5-0.2-0.7-0.4-0.7h-0.2
	C701.9,631,701.7,631.4,701.7,631.9z M702.4,627.7l-0.4,1.6c0,0.3,0.2,0.6,0.5,0.8h0.1c0.2,0,0.4-0.4,0.4-1.1l-0.3-1.3H702.4z
	 M703,655.4l0.2,0.2h1.2l0.3-0.3c0-0.2-0.1-0.2-0.4-0.3C703.5,655.1,703,655.2,703,655.4z M703.6,621.7L703.6,621.7l0.2,0.3l0.3-0.3
	v-0.3h-0.2L703.6,621.7z M703.7,620.1v0.4h0.3l0.3-0.3v-0.1L704,620L703.7,620.1z M703.7,646.9v0.6h0.3l0.3-0.3v-0.4l-0.2-0.2H704
	L703.7,646.9z M703.9,648.4v0.3h0.2v-0.3H703.9z M705.4,625.2v0.2l0.2,0.2h0.3l0.2-0.2v-0.2l-0.4-0.1L705.4,625.2z M710.8,623.3v0.2
	c0.5,0,1.1-0.8,1.8-2.3v-0.4h-0.1C711.2,621.1,710.6,622,710.8,623.3z M713.8,621.6l0.3,1.6h0.7l-0.1-1.7l-0.2-0.2h-0.2
	C714,621.3,713.8,621.4,713.8,621.6z M715.7,620.9L715.7,620.9l0.2,0.3h0.8c0.3,0,0.6-0.1,0.6-0.3l-0.1-0.1h-0.5L715.7,620.9z
	 M718.3,620.8v0.2h0.5l0.3-0.3l-0.2-0.2C718.5,620.5,718.3,620.6,718.3,620.8z M720.3,621.2L720.3,621.2l0.3,0.1l0.2-0.2V621h-0.3
	L720.3,621.2z M721.1,625.9h0.3c0.3-0.1,0.9-0.7,1.6-1.9v-0.1c0-0.1-0.1-0.2-0.3-0.2c-0.9,0.4-1.4,1-1.4,1.7
	C721.2,625.4,721.1,625.6,721.1,625.9z M723.3,628v0.2h0.2l0.3-0.3v-0.2h-0.1C723.5,627.8,723.3,627.9,723.3,628z M723.4,620.9
	L723.4,620.9l0.2,0.3h0.3l0.2-0.2v-0.1l-0.2-0.2h-0.3L723.4,620.9z M725.9,623.6v0.2c0.3,0.5,0.7,0.7,1.1,0.7h0.2v-0.2
	c-0.3-0.5-0.7-0.7-1.1-0.7H725.9z"/>
<path class="st7" d="M758,617c2.2,0,5,0.9,8.2,2.8c2.7,2,4.1,3.4,4.1,4.2c2.1,4.6,3.2,7.3,3.2,8.1l0.1,0.6c-0.8,1.8-1.2,3.1-1.2,3.8
	l-0.5,0.1H765c-0.7,0-1.4,0.1-2.2,0.3c-7.7-0.6-13.1-0.9-16.1-0.9H745c-0.7,1-1,1.6-1,2c0.4,0.7,0.6,1.6,0.6,2.8
	c0,2.1,0.3,3.3,0.9,3.6l0.1,0.4v0.1l-0.5-0.2v0.2l0.8,0.8c0,0.8,0.5,1.7,1.4,2.7c1.7,3.1,3.6,5,5.7,5.8c1.7,0.6,3.7,0.9,6,0.9
	c0.3,0,1.1-0.3,2.2-1c1-0.3,3.1-2.1,6-5.2v-0.4c0-0.1-0.3-0.2-1-0.3l-0.2-0.4c1.2-2.4,2.7-3.9,4.4-4.6c0.2,0.2,1.2,1,2.9,2.2
	c1.2,1.9,2.8,4,4.7,6.5v0.3c-1.7,2.2-3,3.3-3.7,3.3H774c0-1.2-0.7-1.9-2.1-2c-0.3,0-1.5,0.9-3.5,2.7c-1.1,0.9-3.2,1.8-6.3,2.7
	c-3.6,0.7-6,1.1-7.4,1.1l-4.6-1.6c-2.5,0-4.9-1.4-7-4.1c-0.9-0.9-1.7-2.1-2.2-3.5c0-0.3-0.6-2.6-1.8-6.6c-0.3-1.7-0.5-3.2-0.5-4.4
	v-0.3c0-7.2,2.1-13.4,6.3-18.7c0.6-1.3,1.9-2.3,3.7-2.9c1.1-0.3,2.7-0.6,4.6-0.9C753.8,616.8,755.4,616.8,758,617z M740.1,637.3
	l-0.1,0.2v0.2l0.1,0.1c-0.1,0.3-0.2,0.6-0.2,1.1v0.3c0,0.9,0.3,1.7,0.8,2.6h0.2C740.9,639.2,740.6,637.7,740.1,637.3z M740.1,634.4
	l-0.1,0.5c0,0.3,0.1,0.5,0.3,0.5s0.3-0.3,0.4-0.8l-0.3-0.2H740.1z M741.1,630.1c-0.4,0.4-0.8,1.5-1,3.2h0.1c0.3,0,0.8-0.9,1.4-2.8
	C741.5,630.2,741.4,630.1,741.1,630.1z M741.2,644.3v0.2l0.2,0.2h0.2v-0.2l-0.2-0.2H741.2z M742,645.7L742,645.7l-0.1,0.2
	c0.3,0.9,0.6,1.3,0.9,1.3l0.1-0.1V647C742.9,646.6,742.6,646.2,742,645.7z M744.3,635.2L744.3,635.2l0.1,0.1l1.4-0.2V635l-0.3-0.3
	h-0.2C744.8,634.6,744.5,634.8,744.3,635.2z M744.4,625.5L744.4,625.5l0.2,0.1l0.2-0.2v-0.1h-0.2L744.4,625.5z M744.4,630.6v0.3
	l0.2,0.2h0.1c0.4-0.2,0.7-0.5,0.9-0.9V630h-0.3C744.9,630,744.6,630.2,744.4,630.6z M745.2,628.5v0.2c0,0.7,4.8,1.4,14.5,2l0.8,0.3
	l1-0.1c2.3,0.7,3.7,1.1,4.3,1.1c0,0.2,0.2,0.3,0.5,0.3c0.3-0.4,0.5-0.9,0.5-1.3v-1.5c0-0.7-1.3-2.3-4-4.7c-1.2-1.2-2.5-1.9-4.1-2.1
	l-2.7-0.4c-4.4,0.8-7.3,1.9-8.7,3.2C746.8,626.5,746.1,627.5,745.2,628.5z M745.3,627.3L745.3,627.3c0.3,0,0.4-0.2,0.4-0.6v-0.1
	C745.4,626.7,745.3,626.9,745.3,627.3z M745.5,654.7v0.3c0,0.3,0.5,0.6,1.4,0.9l0.3,0.3v-0.1c-0.7-0.8-1.1-1.3-1.4-1.4H745.5z
	 M746.1,623.7v0.2h0.1c0.7-0.2,1.1-0.4,1.1-0.6v-0.1h-0.4C746.6,623.2,746.3,623.4,746.1,623.7z M746.5,634.6v0.4h0.4v-0.3l-0.1-0.1
	v-0.1L746.5,634.6z M747.4,620L747.4,620l0.2,0.3h0.1c1.1-0.3,1.6-0.5,1.6-0.8V619l-0.3-0.3h-0.2C747.9,619,747.4,619.4,747.4,620z
	 M748.5,633.8v0.2c1.3,0.3,4.1,0.5,8.5,0.7l0.1,0.1v0.1l-1.7,0.2c0,0.2,0.7,0.3,2.1,0.3c2.2,0,3.3-0.1,3.3-0.4
	C760.7,634.5,756.7,634.1,748.5,633.8z M749.3,631.1v0.2c1,0.7,2.9,1,5.5,1h0.7l1-0.1v-0.3C754.1,631.4,751.7,631.2,749.3,631.1z
	 M749.5,623.2c0.5-0.4,1.6-0.9,3.2-1.4v-0.1l-0.1-0.1h-0.8C750.2,621.9,749.5,622.5,749.5,623.2z M750.7,618.8h0.1
	c1,0,2.6-0.3,4.8-1c0.5,0,0.7-0.2,0.7-0.3l-0.2-0.2H756c-1.5,0-3.2,0.4-5.2,1.2l-0.1,0.1L750.7,618.8L750.7,618.8z M756.7,608.8
	l-0.6,0.1L756,609l0.4,0.6c0.7-0.9,1.1-1.1,1-0.7l-0.1,0.3l-2.8,3.1l-0.7,0.8l-3.2-1.8l3.2-4.3c0,0.1-0.1,0.1-0.1,0.2
	c0.2-0.4,0.3-0.7,0.4-0.7c1.5-1.4,2.6-2.5,3.1-3.4s1.3-1.7,2.4-2.6c1,0.4,1.8,1,2.4,1.6c-1.1,3.4-2.8,5.8-5.2,7.3l0.1-0.2l0.1-0.2
	l0.1-0.2L756.7,608.8L756.7,608.8z M751.3,655L751.3,655c0,0.3,0.6,0.6,1.7,0.8l0.1-0.1v-0.1C752.3,655.2,751.7,655,751.3,655
	L751.3,655z M754.1,620.4L754.1,620.4c0,0.3,1.1,0.6,3.3,0.9l0.1-0.1v-0.3c-0.4-0.6-1.1-0.9-2.1-0.9h-0.3
	C754.4,620.1,754.1,620.2,754.1,620.4z M754.9,610.7l-0.1,0.2l0.3,0.5h0.1L754.9,610.7L754.9,610.7z M755.7,607.6h-0.2v0.2l0.1,0.1
	h0.2v-0.2L755.7,607.6z M755.8,655.9v0.2h0.3v-0.2H755.8z M756.3,609.5l-0.3,0.3v0.1l0.2,0.3l0.2-0.2l0.1-0.3L756.3,609.5z
	 M758.8,657.9l-1.7-0.2h-0.3c-0.5,0-0.8,0.1-0.8,0.3v0.1l0.3,0.3h1.4c1.8,0,3.7-0.3,5.8-0.8v-0.1c-0.1-0.3-0.4-0.4-0.9-0.4h-0.4
	C761,657.1,759.9,657.4,758.8,657.9z M756.5,605l-0.2,0.1c0,0.3,0,0.4,0.1,0.5l0.2-0.1v-0.2L756.5,605z M756.9,609.4
	c-0.2,0.1-0.3,0.2-0.5,0.3l0.2,0.3L756.9,609.4L756.9,609.4z M757.2,606.2c0.1-0.4,0-0.6-0.2-0.7h-0.2l-0.2,0.2
	c-0.1,0.5,0,0.7,0.5,0.6L757.2,606.2L757.2,606.2z M757.4,619.2v0.2c0,0.2,1.1,0.3,3.2,0.5l0.1-0.1v-0.2c0-0.2-0.3-0.3-1-0.4H757.4z
	 M758.3,604c0.8-0.8,0.8-1.2,0.1-1.2h-0.2v0.2l0.3,0.5v0.1l-0.3,0.1h-0.6l-0.2,0.2l-0.1,0.1l0.1,0.1c0.4,0.3,0.7,0.6,0.9,0.9
	c0-0.2,0.3-0.2,0.9,0L758.3,604z M759,620.9L759,620.9c3,1.8,4.7,2.7,4.9,2.7h0.1l0.8-0.3l0.4,0.1l0.1-0.1v-0.1
	c-0.3-0.2-0.7-0.4-1.3-0.5l-1.6-0.7c-0.4-0.9-1.2-1.4-2.6-1.4h-0.2C759.2,620.7,759,620.8,759,620.9z M763.7,633.2v0.2h0.3v-0.2
	H763.7z M763.8,635.3c0,0.2,0.5,0.3,1.4,0.3l0.8-0.1v-0.1c0-0.3-0.5-0.4-1.6-0.4C764,635.1,763.8,635.2,763.8,635.3z M763.8,653.6
	h0.2c0.3-0.2,0.5-0.4,0.7-0.8l-0.1-0.1C764.1,653,763.8,653.3,763.8,653.6z M764.4,657.1c0.5,0,1-0.4,1.3-1.2h-0.2
	C764.7,656.3,764.4,656.7,764.4,657.1z M765.2,624.8c0.2,0.4,0.4,0.6,0.8,0.6h0.1l0.2-0.2v-0.5l-0.4-0.4
	C765.4,624.3,765.2,624.5,765.2,624.8z M766.3,651.1l0.1,0.1h0.1c0.5,0,0.9-0.4,1.1-1.1V650C767,650,766.6,650.3,766.3,651.1z
	 M766.9,625.9c0.5,1.7,1,2.6,1.3,2.8h0.3l0.2-0.2c-0.4-1.7-0.9-2.5-1.4-2.5l-0.1-0.1H766.9z M768.1,646.5l0.2,0.2h0.3
	c0.3,0,0.5-0.1,0.6-0.3l-0.3-0.3h-0.1C768.5,646,768.2,646.2,768.1,646.5z M768.5,654h0.3c0.5-0.5,0.8-0.9,0.8-1.1h-0.1
	C768.9,653.1,768.5,653.5,768.5,654z M769.7,629.7v0.5l0.2,0.3c0.3-0.1,0.4-0.3,0.4-0.6v-0.2l-0.2-0.2h-0.2L769.7,629.7z M770,651.8
	l0.2,0.2c0.8-0.3,1.2-0.6,1.2-1.1v-0.1h-0.1C770.6,650.8,770.1,651.1,770,651.8z M771.9,650.9L771.9,650.9l0.3,0.1
	c0.3-0.2,0.5-0.4,0.5-0.8v-0.1h-0.2C772.1,650.3,771.9,650.6,771.9,650.9z M774.7,650.1l-0.1,0.1v0.1c0.2,0.7,0.4,1,0.7,1h0.1
	l0.2-0.2V651C775.4,650.4,775.2,650.1,774.7,650.1z"/>
<path class="st7" d="M805.8,613.6c0.9,0,2.7,0.4,5.4,1.2c3.1,3,4.9,5.2,5.5,6.9c1.1,1.2,2.1,3.6,2.8,7.3c0.8,0.8,1.3,2.7,1.3,5.7
	l0.1,1.9l-0.3,8c0,1.5,1,3.5,2.9,6c1.8,1.7,2.9,2.6,3.5,2.6v0.1c0,0.7-0.9,1.7-2.8,3.1c-1.4,1.3-2.3,2-2.7,2h-0.1
	c-0.8,0-3-1.6-6.5-4.7c-3.1,1.2-6.3,2.4-9.5,3.8c-2.1,0.6-4.5,0.9-7,0.9H798c-2.9-0.5-5.4-1.6-7.4-3.3c-0.3-0.3-1.1-1.7-2.3-4
	c-1-1.2-1.4-2.6-1.4-4.3v-2.3c0-1.5,0.4-2.8,1.2-4.1c0.7-2.1,1.9-4.2,3.6-6.2c0.8-1,1.7-1.7,2.5-2c2.8-1.5,5.5-2.2,8.2-2.2l3.6-0.1
	h0.4c2.1,0,3.6,0.3,4.4,0.9h0.5c0.2,0,0.3-0.1,0.3-0.4c-0.5-2.4-1.5-4.8-2.8-7.2c-1.2-2-3.3-2.9-6.6-2.9l-3.2-0.4
	c-2.8,0.5-4.3,1.1-4.3,1.7c-1.1,1.4-1.7,3.2-2,5.4c-0.1,0.3-1.1,0.4-2.9,0.4l-0.5,0.1c-0.2,0-0.5,0.5-0.8,1.4
	c-1.5-0.2-2.2-0.5-2.2-0.9c0.2-0.5,0.4-2.4,0.6-5.8c0.8-2.4,2.9-4.7,6-6.7c1.5-0.9,2.4-1.3,2.7-1.3L805.8,613.6z M790,624.8v1.2h0.1
	c0.2,0,0.3-0.2,0.3-0.6v-0.6l-0.2-0.2L790,624.8z M790.8,618.9h0.1c0.5,0,1.2-0.5,2.1-1.5v-0.3l0,0c-0.5,0-1.2,0.6-2.1,1.7v0.1
	H790.8z M791.9,651L791.9,651l0.2,0.3h0.4v-0.2l-0.3-0.3h-0.1L791.9,651z M792.1,655.3L792.1,655.3c0.3,0.6,1.6,1.2,4,1.9
	c0.9,0.4,1.9,0.6,3.2,0.6v-0.1c0-0.2-1-0.5-3.1-0.9c-1.3-0.5-2.5-1-3.6-1.7h-0.3L792.1,655.3z M793.1,634.8v0.3h0.2
	c0.4,0,0.7-0.2,0.8-0.5v-0.2H794L793.1,634.8z M793.1,642c0.3,3.2,0.8,4.8,1.3,4.8l0.8,1v0.1l-0.7-0.1v0.2c1.1,1.3,3.2,2.7,6.3,3.9
	c0.4,0.2,1,0.3,1.6,0.4c1.1,0,4.8-1.6,11.1-4.7c0.4-0.2,0.6-0.5,0.6-0.9v-0.4c-0.5-2.2-0.9-4.7-1.2-7.7l-0.1-0.1
	c0-0.6-0.6-1.1-1.8-1.4c-3.9-1.1-6.6-1.7-8.1-1.7c-4,0.9-6.8,2.3-8.4,4C793.6,640.5,793.1,641.3,793.1,642z M798,616.2v0.2
	c0,0.2,0.3,0.3,0.8,0.3s1.2-0.2,2-0.5v-0.3h-0.3C799.4,615.9,798.6,616,798,616.2z M800.8,654.1c0.1,0.3,0.3,0.4,0.7,0.4
	c0.5,0,0.8-0.2,0.8-0.4V654l-0.2-0.2h-1L800.8,654.1z M801.6,618.5l0.3,0.4h1l0.2-0.2v-0.1l-0.4-0.4H802L801.6,618.5z M804.6,615.4
	l0.3,0.3h0.4l0.2-0.2l-0.3-0.3h-0.4L804.6,615.4z M807.4,653L807.4,653l0.4,0.1c0.8,0,1.7-0.3,2.9-0.9v-0.1h-0.3
	C808.6,652.4,807.6,652.7,807.4,653z M810.7,615.8v0.2c0.4,0.4,0.7,0.6,1.1,0.6h0.1v-0.2c-0.4-0.4-0.7-0.6-1.1-0.6H810.7z
	 M814.6,643.2v0.4l0.3,0.3h0.1l0.3-0.3v-0.4l-0.2-0.2h-0.3L814.6,643.2z M814.8,640.5l0.2,0.3l0.3-0.1v-0.2l-0.2-0.2H815
	L814.8,640.5z M817,636.6v0.3h0.2v-0.1L817,636.6z M817.1,638.3v0.3l0.2,0.2l0.2-0.2v-0.3H817.1z M817.2,634.1v0.2
	c0.2,0.8,0.5,1.2,0.7,1.2h0.1c0-0.7-0.2-1.2-0.5-1.6h-0.1L817.2,634.1z M817.6,640.5L817.6,640.5c0.1,2.1,0.3,3.1,0.6,3.1l0.2-0.2
	v-0.1c0-1.1-0.2-2-0.5-2.8H817.6z M818.8,652.1c0.2,0.4,0.4,0.6,0.6,0.7h0.1l0.3-0.3v-0.2l-0.4-0.4H819L818.8,652.1z M819.2,631.1
	v0.2c0,0.4,0.1,0.6,0.3,0.6l0.1-0.4c-0.1-0.3-0.2-0.4-0.3-0.4L819.2,631.1L819.2,631.1z M820.6,653.5v0.2l0.3,0.3h0.4l0.2-0.2v-0.1
	l-0.4-0.4h-0.3L820.6,653.5z M821.3,650.6v0.5c0.2,0.7,0.4,1,0.7,1h0.2v-0.2c-0.2-0.9-0.5-1.3-0.7-1.3H821.3z"/>
<path class="st7" d="M845,596.8c1.2,0,2.2,0.3,2.9,0.9c-0.6,1.5-1.1,4.2-1.3,8.1l-0.7,7.3c0,0.4,1,0.6,3.1,0.6
	c6.3,0,9.5,0.3,9.5,0.8c0.2,0,0.5,0.2,1,0.5c-0.5,0.8-0.8,1.3-0.8,1.5v0.3l0.2,1.6l-1,3.5c0,0.3,0.4,0.9,1.2,1.6v0.1
	c-1.2,0.4-2.2,0.6-3.1,0.6c-0.9-0.1-1.3-0.2-1.3-0.4v-0.1l0.7-0.1h0.6l0.3-0.3v-0.2L856,623l-5.4,0.1l-4.5-0.1
	c-0.2,0-0.5,1.5-0.8,4.5h-0.1l-1.1-1.2l-0.2,0.8v0.5c0.1,1.5,0.3,2.3,0.5,2.4c0.2,0,0.4-0.5,0.6-1.5V628h0.2l0.1,0.3l-0.6,7.6
	c0.5,8.5,1,12.7,1.4,12.7c0.2,1.7,0.9,2.5,2,2.5c0.7,0.3,1.4,0.5,2.2,0.5h1.4l4.7-0.2c0.2,0,0.4,1.4,0.6,4.3
	c0.2,1.7-0.7,2.5-2.8,2.5l-6.2,0.2c-3.5,0-6.3-0.9-8.5-2.8c-1.5-0.6-2.2-2.2-2.2-4.8c-0.2-2.1-0.4-6.4-0.6-12.8l1.3-7l0.2-4.7v-0.6
	c-0.3-2.2-1-3.3-1.9-3.3l-2.4-0.1h-2.8c-0.8,0-1.6,0.2-2.5,0.6c-0.5-0.1-1.2-0.8-2-2.1l1.6-7.1c0-0.2,3.2-0.3,9.7-0.4
	c0-0.7,0.4-1.6,1.2-2.6c0.2-8.3,0.5-12.4,0.8-12.4V598c0-0.1-0.1-0.2-0.3-0.2v-0.3C839.7,597.3,841.5,597.1,845,596.8z M829,614.5
	c0,0.4,0.2,0.6,0.6,0.6h1.2c2,0,4-0.1,6.1-0.3v-0.1c0-0.3-1.3-0.5-3.9-0.5h-3.4C829.2,614.3,829,614.4,829,614.5z M830,616.3v0.4
	c0,0.5,1.8,0.8,5.4,0.8c1.8,0,2.7-0.1,2.7-0.4c0-0.6-2.3-0.9-7-1h-0.9L830,616.3z M830.6,619.1c0,0.2,0.1,0.3,0.4,0.3l2,0.1l2.1-0.1
	l0.1-0.1v-0.1c-0.7-0.3-1.9-0.4-3.6-0.4h-0.8L830.6,619.1z M830.6,620.2v0.2c0,0.3,2,0.5,6,0.5l0.7-0.1v-0.1l-0.2-0.2L830.6,620.2z
	 M837.9,637.7l0.3,2.2l-0.1,2.8l0.1,0.8h0.2c0.3,0,0.5-1.2,0.5-3.7v-1.9c0.2,0.2,0.2,0.3-0.1,0.3
	C838.5,638.2,838.2,638.1,837.9,637.7z M840.5,648v1.2l0.1,0.5h0.1l0.2-0.2v-1.3l-0.2-0.2H840.5z M840.9,653.5v0.3
	c0.2,1.3,0.7,2,1.7,2h0.8l0.2-0.2v-0.1c0-0.2-0.5-0.4-1.5-0.6l-1-1.4H840.9z M841.6,624.4v0.6l0.2,0.2c0.2,0,0.3-0.2,0.3-0.6v-0.3
	l-0.1-0.5h-0.1C841.7,623.9,841.6,624.1,841.6,624.4z M841.7,625.9l-0.1,0.5v0.3l0.1,0.5h0.3l0.1-0.7v-0.4l-0.2-0.2L841.7,625.9
	L841.7,625.9z M841.9,598.9v0.5h0.3v-0.3L841.9,598.9L841.9,598.9z M841.9,631.5v0.7l0.2,0.2h0.2v-0.2l-0.1-0.7H841.9z M842.3,601.8
	c-0.1,0.4-0.2,1.1-0.2,2.1v0.3h0.2l0.2-1.4V602L842.3,601.8z M842.6,605.4l-0.3,7.9v0.1l0.2,0.2h0.2c0.3,0,0.5-0.7,0.5-2v-1.8
	l-0.1-4c-0.1-0.3-0.2-0.4-0.3-0.4H842.6z M843,644.1l-0.1,0.5v0.6c0,0.4,0.1,0.6,0.4,0.7h0.1c0.2,0,0.3-0.2,0.3-0.6
	c-0.1-0.8-0.3-1.2-0.5-1.2H843z M843.1,653.1L843.1,653.1l-0.1,0.6c0.1,0.3,0.3,0.5,0.6,0.6h0.5v-0.1
	C844.1,653.6,843.8,653.2,843.1,653.1z M843.8,647.4l-0.3,1c0,1.2,0.3,1.9,0.8,2.2l0.2-0.3v-0.7
	C844.4,648.3,844.1,647.5,843.8,647.4z M844.1,625.5v0.2l0.3,0.3h0.1v-0.2L844.1,625.5L844.1,625.5z M845.1,599.4L845.1,599.4l0.2,2
	h0.2c0.6-0.7,0.9-1.2,0.9-1.7v-0.3l-0.3-0.3h-0.8L845.1,599.4z M847,617.1L847,617.1c0,0.3,1,0.5,2.9,0.6l1.3-0.1l1.8,0.3h0.3
	c0.4,0,0.6-0.2,0.6-0.5h-0.1l-6.1-0.5h-0.6L847,617.1z M848.2,620.7v0.2c0.1,0.2,1,0.5,2.8,0.8h0.2v-0.1c-0.8-0.6-1.6-0.9-2.5-0.9
	H848.2z M852.9,614.7l-1-0.1h-1.3v0.3c1.2,0.3,2.2,0.5,3,0.5h1.8c0.1,0,0.2-0.1,0.2-0.3c-0.1-0.6-0.4-0.9-0.9-0.9h-0.8L852.9,614.7z
	 M851.9,654.7l0.3,0.1c2-0.3,3-0.7,3-1.1l-0.2-0.2C852.9,654,851.9,654.4,851.9,654.7z M852.6,621.5c1.5,0.5,2.8,0.7,3.9,0.7
	l0.3-0.3v-0.5l-0.2-0.2h-1.8C853.3,621.2,852.6,621.3,852.6,621.5z M855.6,618.9L855.6,618.9l0.3,0.4h0.3c0.5,0,0.8-0.2,1-0.5
	l-0.3-0.2h-1L855.6,618.9z M855.9,615.2L855.9,615.2l0.2,0.3c0.5,0,0.8-0.1,0.9-0.4V615h-0.9L855.9,615.2z"/>
<path class="st7" d="M871.8,616c0.5,0.3,1,0.5,1.6,0.5l1-0.5c7.3,0,10.9,0.2,10.9,0.6l0.1,0.5v1.4c0.4,1,0.6,2,0.6,3.1v1.2
	c-0.5,7.4-0.9,14.5-1.2,21.2c-0.2,0.3-0.3,0.8-0.3,1.6c0.1,0.3,0.4,0.4,0.7,0.4h0.3c2.9,0,4.3,0.3,4.3,1l-0.1,0.1v0.5
	c0.6,1.3,0.9,3.3,0.9,6l0.3,3.2l-0.2,0.2l-3.5,0.1h-8c-6,0-9-0.5-9-1.4c0-0.6-0.1-1.2-0.4-1.7c0.2-0.4,0.4-0.7,0.8-0.9h0.2
	c0.3,0.2,0.5,0.3,0.7,0.3h0.2c1.8,0,3.6-0.1,5.5-0.4v-0.2c-4.6-0.3-6.9-0.6-6.9-1l-0.1-0.7v-0.9l-0.2-2c0-0.6,2-0.9,6-0.9
	c0.5,0,0.8-1.2,0.8-3.6l0.9-21h-0.1c-2,0-2.7-0.2-2.1-0.6c-3.2,0-4.8-0.4-4.8-1.1c-0.2-0.1-0.3-0.3-0.3-0.6l0.4-1
	c0-0.2-0.2-0.5-0.5-0.8v-0.1c0.5-0.3,0.8-1.2,0.9-2.5l0.1-0.1h0.5V616z M872,650.3L872,650.3c0.4,0.5,2,0.7,5,0.8h0.5
	c0.5,0,0.8-0.1,0.8-0.3v-0.3c-2-0.3-3.9-0.4-5.8-0.4L872,650.3z M872.8,617.6v0.2h0.4c1.4,0,2.1-0.1,2.1-0.3l-0.2-0.2h-0.2
	C873.5,617.3,872.8,617.4,872.8,617.6z M873.1,618.7v0.2c0,0.2,0.4,0.3,1.1,0.3h0.9h0.3h2.5c0.8,0,1.3-0.1,1.3-0.3v-0.1
	c0-0.3-1.6-0.4-4.7-0.2L873.1,618.7z M882.6,600.3c1.8,0,3.3,0.9,4.4,2.8l0.5,2.7c-0.1,0.9-0.7,2.2-1.7,3.9c-0.7,0.7-1.8,1-3.2,1
	c-3.3,0-5.4-0.5-6.3-1.6c-0.8-1-1.2-2.5-1.1-4.4c-0.2,0-0.3-0.1-0.3-0.2v-0.1c1.6-2.5,3.2-3.7,5-3.7
	C880.3,600.5,881.2,600.4,882.6,600.3z M878.2,602.7L878.2,602.7c1.8-0.2,2.7-0.4,2.7-0.6l-0.4-0.2
	C879,602.1,878.2,602.4,878.2,602.7z M878.6,641.1c0.1,0.4,0.2,0.6,0.3,0.6c0.2,0,0.3-0.2,0.3-0.7l-0.1-1.2c0.2-0.3,0.5-1.3,0.9-3.2
	v-0.5l-0.2-1.2c0.3-0.2,0.5-0.4,0.5-0.6c-0.2-0.6-0.3-1.2-0.3-1.7v-0.1c0.2,0,0.5-3,0.7-9c-0.2-0.4-0.3-0.6-0.4-0.6h-0.1
	c-0.7,0-1.2,2.6-1.3,7.9L878.6,641.1z M880.4,653.2h-1.2v0.3l1.2,0.1l2.3-0.2v-0.2h-0.4l-0.9-0.1L880.4,653.2z M879.7,605l0.4,0.1
	h0.1c0.7,0,1.1-0.2,1.2-0.6l-0.1-0.1h-0.9C879.9,604.4,879.7,604.6,879.7,605L879.7,605z M880,651.1l0.3,0.3h0.1
	c0.5,0,0.7-0.2,0.7-0.7h-0.4C880.3,650.7,880,650.8,880,651.1z M880.8,645.9v0.4h0.3l0.3-0.3v-0.2l-0.2-0.2h-0.1L880.8,645.9z
	 M880.8,644.4v0.5h0.2c0.3-0.1,0.4-0.4,0.4-0.9v-0.6h-0.2C881,643.4,880.9,643.7,880.8,644.4z M880.9,618.7v0.2
	c0.3,0,0.7,0.3,1.3,0.8h0.2c0.2,0,0.2-0.1,0.2-0.3h0.1c0.2,0,0.3,0.3,0.5,0.8h0.1l1.1-0.9v-0.4l-1.7-0.1h-1.2L880.9,618.7z
	 M881.4,623.2l0.4,1.3l-0.5,1.3c0.2,0.5,0.4,0.8,0.5,0.8h0.1l0.1-0.5v-0.5c0-2,0.3-2.9,0.9-2.9l0.2-0.3v-0.3l-0.2-0.2h-0.5
	C881.7,621.9,881.4,622.3,881.4,623.2z M882,636.8c-0.5,1.8-0.7,3.3-0.7,4.4h0.1c0.3,0,0.6-1.1,1-3.3v-0.6l-0.1-0.5L882,636.8
	L882,636.8z M881.5,608.6v0.2h1.4l0.2-0.2l-0.2-0.2h-1.2L881.5,608.6z M882.4,623.9v0.4c0,0.3,0.1,0.6,0.4,0.7h0.2l0.3-0.3v-0.4
	c-0.1-0.2-0.3-0.4-0.6-0.5L882.4,623.9z M883.5,606.9v0.3h0.3c0.4,0,0.7-0.2,0.9-0.6v-0.3h-0.2C884.1,606.3,883.8,606.5,883.5,606.9
	z M883.5,617.2l0.3,0.3h0.1v-0.3l-0.2-0.2L883.5,617.2z M885.1,604.7v0.3h0.1l0.3-0.3v-0.3h-0.1L885.1,604.7z M886.8,651.1
	c0.1,0.7,0.5,1,1.4,1h0.3v-0.2l-0.2-0.3c0-0.1,0.2-0.2,0.7-0.4v-0.4c0-0.3-0.1-0.6-0.4-0.7h-0.3c-0.2,0-0.3,0.3-0.5,0.8L886.8,651.1
	z M887.2,647.6c0.3,0.2,0.9,0.3,1.7,0.4v-0.2c0-0.2-0.3-0.3-1-0.4h-0.5L887.2,647.6z M887.3,653v0.2h0.1l0.3-0.3v-0.1h-0.2
	L887.3,653z M889.2,656.2v0.2h0.4l0.2-0.2v-0.1l-0.2-0.2h-0.1L889.2,656.2z"/>
<path class="st7" d="M922.6,619.9h0.7c2.8,1.3,5.7,3.2,8.5,5.4c2.7,2.3,4,4.1,4,5.2h-0.1c-0.4-0.7-0.9-1.1-1.3-1.1h-0.1
	c-0.2,0-0.2,0.1-0.2,0.3c0.2,0.7,0.7,1.7,1.4,3.1h0.2c0.1,0,0.2-0.3,0.4-0.8h0.1c0.1,0,0.3,0.8,0.6,2.3l0.6,1.6l-0.1,1l0.2,2.9
	c-0.3,0.8-0.6,2.6-1,5.2c-0.2,1-2.7,4.8-7.4,11.4c-2.1,2-4.2,3-6.3,3c-2.1,0.3-4.2,0.4-6.3,0.4H915c-1,0-3.3-0.8-7.1-2.3
	c-4.8-4.4-7.3-7.7-7.3-10c-0.7-1.5-1.3-2.8-1.7-4c0-0.6,0.7-2.9,2.2-6.9c0-2.5,0.6-4.2,1.7-5.1c2.5-5.4,5.6-8.9,9.5-10.5
	c3.3-1.2,6-1.8,8.1-1.8L922.6,619.9z M899.9,643.1c0.1,0.5,0.2,0.8,0.3,0.8l0.1-0.1v-0.4l-0.1-0.5h-0.1L899.9,643.1z M901.7,646.9
	v0.6c0.1,1.7,0.6,2.7,1.5,3l0.1-0.1v-0.1c-0.4-2.5-0.9-3.7-1.3-3.7L901.7,646.9z M902.5,634.2c0.3,0,0.5-0.2,0.7-0.5v-0.2
	C902.8,633.5,902.5,633.8,902.5,634.2z M904.1,631.5L904.1,631.5c0.3-0.1,0.4-0.3,0.4-0.6h-0.1C904.2,631,904.1,631.2,904.1,631.5z
	 M904.3,641.5L904.3,641.5l0.2,0.1l0.2-0.2v-0.2h-0.1L904.3,641.5z M904.7,652.2L904.7,652.2c0.2,0.4,0.4,0.6,0.6,0.7h0.3
	c0-0.4-0.2-0.7-0.6-0.9h-0.1L904.7,652.2z M905.9,644.4v0.5c0.6,1.3,1.4,2.8,2.4,4.6c0,0.5,1,1.3,3.1,2.3c1,1.1,2.8,1.9,5.4,2.5
	l1.4,0.2c2.2-0.5,4-1,5.2-1.5l2.9-2.4c3-3.2,4.4-5.9,4.3-8v-0.7c-0.3-0.9-0.5-2.3-0.5-4.2c0-1.4,0.1-2.6,0.3-3.5
	c0-0.3-1-1.2-3.1-2.8c-1.5-2.1-3.1-3.4-4.7-3.9h-0.9c-6.2,0.2-9.3,0.7-9.3,1.5c-1.4,1.4-2.4,2.8-2.9,4.1c-1.7,1.7-2.5,2.9-2.5,3.5
	C906.6,638.6,906.2,641.2,905.9,644.4z M906.2,654.8v0.3c0.8,0.7,2,1.1,3.7,1.1h0.9v-0.1c-0.3-0.3-1.6-0.7-4.1-1.3H906.2z
	 M907.4,631v0.5h0.2c0.7-0.6,1.1-1.1,1.1-1.5l-0.1-0.1h-0.3C907.8,630.2,907.6,630.5,907.4,631z M908.2,625.5v0.3
	c0.3,0,1.9-1.1,4.9-3.3l0.6-0.3l0.4,0.1c3.6-0.3,5.4-0.7,5.4-1v-0.1l-1.3-0.2c-3.7,0-7,1.4-9.9,4.1L908.2,625.5z M909,629.1v0.3h0.2
	l0.2-0.2v-0.1H909z M909,626.9c0.5,0,0.9-0.3,1.3-1v-0.2C909.5,625.9,909,626.3,909,626.9z M910.5,656.9L910.5,656.9l1,0.1l0.2-0.2
	l-0.2-0.2h-0.2C910.8,656.6,910.5,656.7,910.5,656.9z M912.1,655.8v0.2c0,0.3,0.8,0.5,2.3,0.5l0.1-0.1v-0.1
	C913.8,656,913,655.8,912.1,655.8z M914.5,624v0.3c4.1-0.5,6.2-0.8,6.2-0.9l-0.6-0.2H920C917.4,623.2,915.6,623.5,914.5,624z
	 M914.6,626.8L914.6,626.8l0.2,0.3h1.1l5.6-1.3v-0.2l-1.5-0.2C916.4,625.8,914.6,626.3,914.6,626.8z M919.9,657.7v0.2
	c0,0.2,0.4,0.3,1.2,0.4c0.9,0,1.4-0.2,1.4-0.4v-0.2c-0.1-0.3-0.3-0.5-0.6-0.6h-0.7C920.6,657.1,920.2,657.3,919.9,657.7z M921.2,621
	c0.2,0.7,0.8,1,1.7,1l0.9,0.1l0.1-0.1v-0.3c0-0.7-0.5-1-1.6-1.1C921.6,620.7,921.2,620.8,921.2,621z M921.9,623.5v0.2l0.2,0.2
	l-0.8,0.7v-0.1c-0.1-0.2,0.4-0.6,1.3-1H921.9z M922.7,623.6L922.7,623.6l-0.1,0.2c1,0.8,1.8,1.2,2.4,1.2l0.1-0.1v-0.1
	C924.2,623.9,923.4,623.6,922.7,623.6z M924.2,658.3L924.2,658.3L924.2,658.3c1-0.2,1.5-0.5,1.5-0.8l-0.1-0.1
	C924.8,657.6,924.3,657.9,924.2,658.3z M925.4,627.4c0.3,0.5,0.7,0.7,1.1,0.7l0.2-0.2v-0.1c0-0.5-0.2-0.7-0.7-0.7
	C925.6,627.2,925.4,627.3,925.4,627.4z M926.7,622.9L926.7,622.9c0.5,0.8,1.1,1.1,1.7,1.1c0-0.6-0.5-1-1.4-1.3h-0.1L926.7,622.9z
	 M928,626.3L928,626.3c0.2,0.8,1,1.4,2.3,2.1h0.2l0.2-0.2v-0.1C930.5,627.8,929.6,627.2,928,626.3z M929.5,628.7L929.5,628.7
	c0.3,0.8,1.1,1.3,2.4,1.8h0.3l0.2-0.2v-0.1c-0.8-1-1.7-1.5-2.5-1.5H929.5z M933.2,648.4L933.2,648.4c0.4,0.1,0.8-0.3,1.1-1.2v-0.1
	H934C933.7,647,933.4,647.5,933.2,648.4z M934.4,647l0.1-1.4l0.1,0.5h0.1c0.3-0.2,0.4,0.2,0.3,1.1l-0.3-0.2L934.4,647L934.4,647z
	 M935.1,642.5c0.1,1.7,0.2,2.5,0.5,2.5h0.1c0-0.6,0.2-1.2,0.7-2v-0.2l-0.9-1.2h-0.1C935.2,641.7,935.1,642,935.1,642.5z
	 M936.2,637.1v0.4l0.2,0.2l0.3-0.3v-0.3l-0.2-0.2h-0.1L936.2,637.1z"/>
<path class="st7" d="M945.5,616.7c1.3,0.2,2.6,0.3,3.8,0.3h6.6l0.2,0.2c-0.3,1-0.4,1.8-0.4,2.3v1.4c0.2,1.5,0.6,2.2,1.2,2.2
	c0.3-0.6,1.4-1.2,3.2-1.7c4.3-1.9,7.8-2.8,10.6-2.8c1.8,0,3.8,0.8,5.9,2.4c1.5,0.6,3,1.9,4.4,3.7c2.2,3.4,3.2,7.5,3.2,12.3v0.6
	l-0.5,5.8l0.5,4.2l-0.8,3.7v0.1l0.1,0.7l3.1,0.1h1.3c0.9,0,1.4,0.1,1.7,0.3c-0.3,3.9-0.7,5.8-1.3,5.8c-1,0.6-2.2,0.9-3.5,0.9h-1.6
	c-2.5,0-5.1,0.3-8.1,1c-1.9-0.2-2.8-1.2-2.8-2.8l-0.1-2.8c0-1.8,0.4-3.1,1.3-3.9c0.5-2.5,1-4.9,1.7-7.1l0.5-7.1
	c0.1,0,0.2-0.6,0.2-1.8c0-1.4-1.1-3.4-3.4-6.2c-1.7-0.7-2.7-1.1-3.1-1.1c-3,0-5.8,1.3-8.4,3.9c-0.2,0-1.5,1.3-3.9,3.9
	c-0.8,0.6-1.2,2.4-1.2,5.4c0.1,5.4,0.3,8.1,0.6,8.1c2.1,0.4,3.1,0.8,3.1,1.2v0.4l-1.7-0.2l-1.3,0.2v0.2c0,0.2,1,0.5,3.1,0.8
	c0.3,0.4,0.5,1,0.5,1.9v0.1c0,1.2-0.3,2.6-0.8,4l-9.3,0.2c-1,0-1.7-0.5-2-1.4c-0.3-1.1-0.5-3-0.7-5.9c0-0.3,0.8-0.6,2.4-1l0.4-0.5
	v-0.1c0-0.3-0.2-0.7-0.7-1.3l0.1-2.5v-4.3l0.3-7.4c0-5-0.2-7.5-0.7-7.5H949l-3.7,0.5c-0.4,0-0.9-0.3-1.5-1v-0.3
	c0.3-0.3,0.4-0.8,0.4-1.3l-0.1-2.9l1.2-3.6L945.5,616.7z M945.1,622.1L945.1,622.1c0,0.3,0.2,0.4,0.5,0.5c0.3,0,0.8-0.2,1.4-0.7
	v-0.1h-1.3C945.3,621.8,945.1,621.9,945.1,622.1z M945.7,619.3v0.2c0,0.2,0.4,0.3,1.2,0.3c3.5,0,5.2-0.2,5.2-0.7l0.3-0.5v-0.2h-0.2
	v-0.1L945.7,619.3z M945.8,624.6L945.8,624.6l0.8,0.1l0.3-0.3v-0.1l-0.4-0.1C946,624.3,945.8,624.5,945.8,624.6z M947.3,621.3
	l0.2,0.2h0.2c0.7-0.1,1-0.2,1-0.4l-0.3-0.1C947.7,621,947.3,621.1,947.3,621.3z M948,623.1l1.6-0.1h0.3c0.5,0,0.8,0.1,0.9,0.4v0.2
	c-0.3,0.3-0.4,0.5-0.4,0.8c0.3,0.2,0.6,0.3,1,0.3c0.2,0,0.2-0.1,0.2-0.3l0.1-2.7l-0.1-0.3h-0.2c-0.4,0.3-1.5,0.7-3.2,1.3l-0.1,0.1
	L948,623.1L948,623.1z M948.8,650.9L948.8,650.9c0.1,1.1,0.4,1.6,1.1,1.6h0.4l0.3-0.3v-0.1c-0.5-0.5-0.8-1-0.8-1.4H949L948.8,650.9z
	 M950.9,626.3l0.1,0.3h0.2l0.2-1.1h-0.2C951.1,625.5,951,625.8,950.9,626.3z M952.3,654.5c0,0.3,0.7,0.4,2.1,0.4
	c2.6,0,3.9-0.1,3.9-0.4c0-0.3-0.9-0.5-2.7-0.5C953.6,653.9,952.5,654.1,952.3,654.5z M953.4,623.3l-0.1,0.5v1.4c0,0.6-0.1,1-0.3,1.2
	v0.5l0.3,1.2l-0.1,0.6c0,0.4,0.2,0.7,0.5,0.9c0.1,0,0.3-0.6,0.5-1.8c0.7-0.5,1.1-1,1.1-1.4c0-0.3-0.3-0.8-0.9-1.7
	c-0.2-0.9-0.4-1.3-0.6-1.3h-0.4V623.3z M954.5,628.4l0.1,0.5c0,0.4-0.2,0.8-0.7,1.2c0.3,0.3,0.4,0.5,0.4,0.8c0,2.7,0.2,4,0.5,4h0.2
	c0.3-0.9,0.5-2.1,0.5-3.7c0-2-0.3-3-0.7-3.1h-0.1C954.5,628.1,954.5,628.2,954.5,628.4z M956.6,624v0.3c0.8,0,1.6-0.5,2.4-1.4v-0.1
	l-0.1-0.1h-0.1C958.3,622.7,957.5,623.2,956.6,624z M956.7,628.5v0.2c1.3-0.2,3.3-1.3,5.8-3.5v-0.1H962c-0.3,0-0.9,0.4-1.9,1.1
	C957.8,627.1,956.7,627.8,956.7,628.5z M957.2,630.7l0.2,0.3l0.3-0.1v-0.2l-0.2-0.2h-0.1L957.2,630.7z M959.1,630.4L959.1,630.4
	l0.2,0.3h0.3l0.2-0.9h-0.2L959.1,630.4z M960.6,629.2L960.6,629.2l0.2,0.1c0.8-0.7,1.3-1.3,1.3-1.7h-0.2v-0.1
	C961.5,627.4,961,628,960.6,629.2z M961.3,622L961.3,622l0.1,0.2c0.5-0.2,0.7-0.3,0.7-0.4v-0.1h-0.2
	C961.5,621.8,961.3,621.9,961.3,622z M962.8,621.3l0.2,0.2c2.5-0.6,3.7-1.1,3.7-1.3v-0.1h-0.1C965.3,620.1,964,620.4,962.8,621.3
	L962.8,621.3z M963.2,628.2c1.2-0.3,1.7-0.6,1.7-0.9l-0.2-0.2h-0.2C963.7,627.1,963.3,627.5,963.2,628.2z M966.9,623.7v0.2h0.4
	c0.8-0.1,1.2-0.3,1.2-0.5v-0.2H968C967.3,623.3,966.9,623.5,966.9,623.7z M968.2,619.8L968.2,619.8c0.4,0.1,1,0.4,2,1.1l0.9,0.2
	l2.5-0.1l0.1-0.1v-0.2c-0.1-0.3-0.4-0.4-0.9-0.4h-0.3l-0.8,0.2c-1.2-0.7-2-1.1-2.5-1.1C968.6,619.4,968.3,619.5,968.2,619.8z
	 M968.3,625.4L968.3,625.4l0.2,0.1c1.2,0,1.8-0.1,1.8-0.3l-0.7-0.2C968.7,625.1,968.3,625.2,968.3,625.4z M971.1,626.9v0.2h2
	l0.2-0.2v-0.3l-0.3-0.3h-0.4C971.6,626.5,971.1,626.7,971.1,626.9z M972.7,623.4c0,0.3,0.5,0.4,1.4,0.5c0.3-0.2,0.4-0.5,0.4-0.7
	c0-0.3-0.4-0.5-1.3-0.6C972.9,622.8,972.7,623.1,972.7,623.4z M973.4,658.6v0.2c0,0.3,0.7,0.5,2.1,0.5h0.4l0.7-0.1v-0.1
	c-0.6-0.5-1.4-0.8-2.6-0.8h-0.3L973.4,658.6z M973.8,654.7v0.5l0.2,0.2h0.2l0.2-0.2v-0.1l-0.4-0.4H973.8z M973.9,624.6L973.9,624.6
	l-0.1,0.2l0.3,0.2h0.1l0.2-0.2L973.9,624.6z M975.5,623.2c0.1,0.3,0.3,0.4,0.6,0.4h0.5l0.3-0.3v-0.1c-0.1-0.2-0.3-0.3-0.8-0.3h-0.3
	L975.5,623.2z M975.7,625.4v0.2c0,0.2,0.4,0.9,1.1,2.2c0,0.5,0.1,0.7,0.3,0.7l0.3-0.3v-0.4C977.4,627,976.9,626.2,975.7,625.4
	L975.7,625.4z M975.7,656.8c0.2,0.4,0.5,0.6,0.9,0.6c2.9-0.1,4.3-0.3,4.3-0.5c-0.4-0.5-1.1-0.7-2-0.7
	C976.7,656.3,975.7,656.5,975.7,656.8z M976.6,647c0.3,0.4,0.4,0.9,0.4,1.5h0.2l0.2-0.9v-1.4C976.9,646.2,976.6,646.5,976.6,647z
	 M977,629.3v0.3c0.7,2.4,1.1,3.6,1.2,3.7l0.2-0.6V632C977.9,630.3,977.5,629.3,977,629.3z M977,645.7L977,645.7l0.2,0.1
	c0.2,0,0.3-0.3,0.3-0.8v-0.9h-0.1C977.2,644.1,977.1,644.6,977,645.7z M979.7,651.9v0.3l0.3,0.3h0.1l0.2-0.2v-0.1l-0.3-0.3H979.7z
	 M979.8,650.4L979.8,650.4L979.8,650.4l0.4-0.8v-0.2h-0.1C979.9,649.4,979.8,649.8,979.8,650.4z M979.9,646.3v0.3h0.2v-0.3H979.9z
	 M980,639.9L980,639.9l0.3,1.1h0.4C980.6,640.3,980.4,639.9,980,639.9z M980.5,629.6c0.1,2.8,0.4,4.2,0.8,4.2h0.2
	C981.3,631,981,629.6,980.5,629.6L980.5,629.6z M981.9,646.6l-0.2,1.7v2h0.1c0.7-0.8,1-1.6,1-2.4v-0.1
	C982.8,647,982.5,646.6,981.9,646.6z M984.3,653.7v0.2c2.4,0,3.6-0.2,3.6-0.5v-0.2h-1.1C985.1,653.2,984.3,653.4,984.3,653.7z
	 M985.1,655.3v0.3c0.1,0.3,0.3,0.4,0.7,0.4c0.9,0,1.4-0.2,1.6-0.6v-0.2c-0.1-0.3-0.4-0.4-0.9-0.4H986
	C985.5,654.7,985.2,654.9,985.1,655.3z"/>
<path class="st7" d="M1014.2,608.9c1.4,0,5.4,0.8,11.9,2.4c3.1,1.4,5,2.1,5.4,2.1c0.4-0.5,0.6-1.2,0.6-2.2v-0.1l-0.1-0.6
	c0-0.7,0.5-1,1.5-1c0.7-0.5,1.6-0.7,2.7-0.7c1.6,0,2.4,0.2,2.4,0.5l0.7,7.5v2.3c0,1.9-0.3,3.1-0.8,3.5c-0.5,0.5-0.9,0.7-1.2,0.7
	c-3-0.2-4.4-0.6-4.4-1.2c-0.5-1.3-1.4-2.2-2.8-2.8c-5.1-2.5-8.8-3.8-11.1-3.8l-2.2-0.1c-2.7,0-4.2,0.5-4.7,1.5c-0.7,0.9-1,2-1,3.5
	v0.1c0,2.9,1.5,5.3,4.6,7.3c3,1.2,5.6,1.8,7.9,1.8c0,0.5,1.2,1.1,3.6,1.8c0.5,0.8,1.5,1.2,3.1,1.2c1.7,0.7,4.1,2.7,7.1,6l0.3,0.4
	v0.2c0,0.1-0.2,0.2-0.5,0.2v0.1c0.7,1.5,1.1,2.4,1.1,2.8c0,4.8-0.8,7.9-2.3,9.1c-0.6,1.4-2.1,2.8-4.4,4.2c-2.6,2.3-5.1,3.5-7.7,3.5
	h-2.8c-4.2-0.7-6.3-1.2-6.3-1.6c-2.4-1.7-3.8-2.5-4.2-2.5c-2.6-1.3-4.4-2.6-5.5-3.9h-0.3c-0.7,1.8-1.2,2.8-1.6,2.8
	c-3.4-0.5-5.1-1.1-5.1-1.7c-0.3-0.7-0.5-3.1-0.6-7l0.8-5c0-1.8,0.2-2.7,0.7-2.7l5.1-0.6c0.4,0,0.7,1.5,1.1,4.4l2.3,4
	c0,0.2,2.4,1.8,7.1,4.8c1.2,1.3,2.9,2,5,2h2.8c2.8,0,4.7-0.9,5.8-2.8c1.3-1.3,2.2-3.3,2.7-5.8v-0.2c0-1.6-1.3-3.5-4-5.8
	c-1.2-1.3-2.7-2-4.6-2c-0.8-0.5-3.2-1-7.1-1.5l-6.5-3.3l-3.1-2.7c-1.3-2-2-3.5-2.1-4.3l0.1-1.3l-0.3-3.1c0-0.7,0.5-1.6,1.4-2.6
	c0-0.7,1.3-2.1,3.9-4.4c2.4-1.3,3.8-2.3,4.2-3.1L1014.2,608.9z M999,646.4l0.1,2h0.1c0.3-0.3,0.5-1.6,0.5-3.9v-0.6l-0.2-0.2h-0.1
	C999.2,643.7,999.1,644.6,999,646.4z M1001.2,650.5v0.3l0.3,0.3h0.1l0.2-0.2v-0.1l-0.3-0.3H1001.2z M1001.7,639.9v0.3l0.2,0.2
	l0.3-0.2l-0.1-0.3H1001.7z M1005,618.7c0.1,0.8,0.2,1.5,0.4,2.1h0.3v-0.1l-0.2-2.2h-0.3L1005,618.7z M1005.1,647.8v0.3
	c0.8,1,1.6,1.5,2.3,1.5h0.1v-0.2c-1.1-1.1-1.9-1.6-2.2-1.6H1005.1z M1005.6,616.7l-0.2,0.6v0.2l0.2,0.2l0.3-0.8v-0.1L1005.6,616.7z
	 M1006.9,626.3L1006.9,626.3l0.2,0.3h0.2v-0.3l-0.2-0.2L1006.9,626.3z M1007.1,619.5v0.2h0.2l0.3-0.3v-0.2h-0.2L1007.1,619.5z
	 M1008,615.9L1008,615.9l0.1,0.2l0.3-0.1v-0.3h-0.2L1008,615.9z M1008.4,626.6v0.2c0.4,1.2,0.7,1.7,1.1,1.7h0.3l0.4-0.4V628
	C1009.5,627.1,1009,626.6,1008.4,626.6L1008.4,626.6z M1008.6,617.1L1008.6,617.1l0.4,0.1c1.2-0.8,1.8-1.5,1.8-2l-0.1-0.1h-0.1
	C1010,615.1,1009.3,615.7,1008.6,617.1L1008.6,617.1z M1010.5,626L1010.5,626l0.2,0.3h0.8v-0.2c0-0.2-0.3-0.3-0.8-0.3L1010.5,626z
	 M1012.4,626.6L1012.4,626.6l-0.1,0.6l0.5,0.5h0.2l0.2-0.2v-0.4C1013.1,626.8,1012.8,626.6,1012.4,626.6z M1012.5,630.8
	L1012.5,630.8c-0.1,0.4,0.3,0.7,1,1l0.1-0.1C1013.7,631.4,1013.3,631.1,1012.5,630.8z M1013,654.9L1013,654.9c0,0.3,0.7,0.6,2.1,0.9
	l0.3,0.3h0.4c-0.1-0.7-0.3-1-0.5-1L1013,654.9z M1013.8,610.1v0.3c0,0.2,0.3,0.4,1,0.5c1.5-0.1,2.2-0.2,2.2-0.5v-0.3
	c0-0.4-0.8-0.6-2.3-0.6C1014.4,609.5,1014.1,609.7,1013.8,610.1z M1015,628.5L1015,628.5l-0.1,0.2c0.7,0.7,1.7,1.2,3.1,1.7l0.2-0.3
	C1018.1,629.9,1017.1,629.3,1015,628.5z M1016.1,613.5c0.3,0.3,0.5,0.4,0.8,0.4c0.6,0,1.1-0.3,1.7-0.9l-0.4-0.4h-0.9
	C1016.5,612.6,1016.1,612.9,1016.1,613.5z M1017.2,657L1017.2,657l0.3,0.4h0.6v-0.1C1018,657.1,1017.8,657,1017.2,657L1017.2,657
	L1017.2,657z M1017.7,655.8v0.4h0.3V656L1017.7,655.8L1017.7,655.8z M1018.9,657.5c0.7,0.4,1.7,0.6,3,0.6h0.1l3.5-0.1v-0.2
	c-0.2-0.4-2-0.6-5.5-0.6C1019.3,657.2,1018.9,657.3,1018.9,657.5z M1019.5,614.8c0,0.4,0.9,0.6,2.8,0.7v-0.2c0-0.3-0.8-0.5-2.4-0.8
	h-0.1L1019.5,614.8z M1019.5,630.5c0,0.3,1.9,0.8,5.6,1.6l1,0.1h0.3v-0.1c-1.7-1.2-3.6-1.9-5.9-2.1
	C1019.8,630.3,1019.5,630.5,1019.5,630.5z M1020.4,632.9v0.3l1.3,0.4h0.9v-0.2C1021.5,633,1020.8,632.9,1020.4,632.9z M1026.3,657.2
	v0.2l0.2,0.2h0.3c1-0.1,1.5-0.2,1.5-0.4l-0.2-0.2h-1.6L1026.3,657.2z M1027,613.4L1027,613.4c0,0.3,0.3,0.4,1,0.5h0.2v-0.1
	C1028.2,613.6,1027.8,613.5,1027,613.4z M1027.9,616.4L1027.9,616.4l-0.1,0.2c1.7,1,2.7,1.5,3.2,1.5V618
	C1031,617.7,1030,617.1,1027.9,616.4z M1028.2,634v0.2c0.2,0.3,1.7,1.1,4.3,2.4c1,1,1.8,1.4,2.4,1.4h0.1l0.2-0.2
	c-1.2-1.6-3.3-2.9-6.2-3.8L1028.2,634L1028.2,634z M1030.1,650.7v0.3h0.2c0.5-0.3,0.9-0.8,1.2-1.4l-0.2-0.2
	C1030.9,649.6,1030.5,650.1,1030.1,650.7z M1030.9,638.8v0.4c0,0.5,0.5,1.2,1.4,1.9h0.4v-0.6
	C1032.7,639.8,1032.1,639.3,1030.9,638.8L1030.9,638.8z M1031.7,653.7L1031.7,653.7c0,0.2,0.1,0.3,0.3,0.3c0.7,0,1.6-0.8,2.7-2.5
	h-0.2L1031.7,653.7z M1031.8,615.9c0.7,0.5,1.6,0.9,2.6,1.1l0.1-0.1v-0.1c0-0.3-0.8-0.7-2.4-1.1h-0.1L1031.8,615.9z M1032,645.1v0.4
	l0.3,0.1l0.2-0.2l-0.1-0.3H1032z M1033.9,621.6c0.3,0.3,1.1,0.4,2.2,0.4l1.6-0.1v-0.3c-0.7-0.1-1.6-0.2-2.9-0.2h-0.7L1033.9,621.6z
	 M1034.7,609.9v0.2c0.6,0.9,1.1,1.4,1.6,1.4c0.4,0,0.7-0.3,1-0.8v-0.3C1037.2,610,1036.4,609.9,1034.7,609.9z M1036.3,645.7v0.5
	l0.2,0.2h0.2c0.3-0.1,0.5-0.6,0.5-1.3h-0.3L1036.3,645.7z M1037.3,612.6l0.2,0.2h0.3v-0.4h-0.3L1037.3,612.6z"/>
<path class="st8" d="M1096.9,596.8c1.2,0,2.2,0.3,2.9,0.9c-0.6,1.5-1.1,4.2-1.3,8.1l-0.7,7.3c0,0.4,1,0.6,3.1,0.6
	c6.3,0,9.5,0.3,9.5,0.8c0.2,0,0.5,0.2,1,0.5c-0.5,0.8-0.8,1.3-0.8,1.5v0.3l0.2,1.6l-1,3.5c0,0.3,0.4,0.9,1.2,1.6v0.1
	c-1.2,0.4-2.2,0.6-3.1,0.6c-0.9-0.1-1.3-0.2-1.3-0.4v-0.1l0.7-0.1h0.6l0.3-0.3v-0.2l-0.3-0.1l-5.4,0.1l-4.5-0.1
	c-0.2,0-0.5,1.5-0.8,4.5h-0.1l-1.1-1.2l-0.2,0.8v0.5c0.1,1.5,0.2,2.3,0.5,2.4c0.2,0,0.4-0.5,0.6-1.5V628h0.2l0.1,0.3l-0.6,7.6
	c0.5,8.5,1,12.7,1.4,12.7c0.2,1.7,0.9,2.5,2,2.5c0.7,0.3,1.4,0.5,2.2,0.5h1.4l4.7-0.2c0.2,0,0.4,1.4,0.6,4.3
	c0.2,1.7-0.7,2.5-2.8,2.5l-6.2,0.2c-3.5,0-6.3-0.9-8.5-2.8c-1.5-0.6-2.2-2.2-2.2-4.8c-0.2-2.1-0.4-6.4-0.6-12.8l1.3-7l0.2-4.7v-0.6
	c-0.3-2.2-1-3.3-1.9-3.3l-2.4-0.1h-2.8c-0.8,0-1.6,0.2-2.5,0.6c-0.5-0.1-1.2-0.8-2-2.1l1.6-7.1c0-0.2,3.2-0.3,9.7-0.4
	c0-0.7,0.4-1.6,1.2-2.6c0.2-8.3,0.5-12.4,0.8-12.4V598c0-0.1-0.1-0.2-0.3-0.2v-0.3C1091.7,597.3,1093.4,597.1,1096.9,596.8z
	 M1080.9,614.5c0,0.4,0.2,0.6,0.6,0.6h1.2c2,0,4-0.1,6.1-0.3v-0.1c0-0.3-1.3-0.5-3.9-0.5h-3.4
	C1081.1,614.3,1080.9,614.4,1080.9,614.5z M1081.9,616.3v0.4c0,0.5,1.8,0.8,5.4,0.8c1.8,0,2.7-0.1,2.7-0.4c0-0.6-2.3-0.9-7-1h-0.9
	L1081.9,616.3z M1082.5,619.1c0,0.2,0.1,0.3,0.4,0.3l2,0.1l2.1-0.1l0.1-0.1v-0.1c-0.7-0.3-1.9-0.4-3.6-0.4h-0.7L1082.5,619.1z
	 M1082.5,620.2v0.2c0,0.3,2,0.5,6,0.5l0.7-0.1v-0.1l-0.2-0.2L1082.5,620.2z M1089.9,637.7l0.3,2.2l-0.1,2.8l0.1,0.8h0.2
	c0.3,0,0.5-1.2,0.5-3.7v-1.9c0.2,0.2,0.2,0.3-0.1,0.3C1090.4,638.2,1090.1,638.1,1089.9,637.7z M1092.4,648v1.2l0.1,0.5h0.1l0.2-0.2
	v-1.3l-0.2-0.2H1092.4z M1092.8,653.5v0.3c0.2,1.3,0.7,2,1.7,2h0.8l0.2-0.2v-0.1c0-0.2-0.5-0.4-1.5-0.6l-1-1.4H1092.8z
	 M1093.5,624.4v0.6l0.2,0.2c0.2,0,0.3-0.2,0.3-0.6v-0.3l-0.1-0.5h-0.1C1093.6,623.9,1093.5,624.1,1093.5,624.4z M1093.7,625.9
	l-0.1,0.5v0.3l0.1,0.5h0.3l0.1-0.7v-0.4l-0.2-0.2L1093.7,625.9L1093.7,625.9z M1093.8,598.9v0.5h0.3v-0.3L1093.8,598.9L1093.8,598.9
	z M1093.8,631.5v0.7l0.2,0.2h0.2v-0.2l-0.1-0.7H1093.8z M1094.2,601.8c-0.1,0.4-0.2,1.1-0.2,2.1v0.3h0.2l0.2-1.4V602L1094.2,601.8z
	 M1094.5,605.4l-0.3,7.9v0.1l0.2,0.2h0.2c0.3,0,0.5-0.7,0.5-2v-1.8l-0.1-4c-0.1-0.3-0.2-0.4-0.3-0.4H1094.5z M1094.9,644.1l-0.1,0.5
	v0.6c0,0.4,0.1,0.6,0.4,0.7h0.1c0.2,0,0.3-0.2,0.3-0.6c-0.1-0.8-0.3-1.2-0.5-1.2H1094.9z M1095,653.1L1095,653.1l-0.1,0.6
	c0.1,0.3,0.3,0.5,0.6,0.6h0.5v-0.1C1096,653.6,1095.7,653.2,1095,653.1z M1095.7,647.4l-0.3,1c0,1.2,0.3,1.9,0.8,2.2l0.2-0.3v-0.7
	C1096.3,648.3,1096.1,647.5,1095.7,647.4z M1096,625.5v0.2l0.3,0.3h0.1v-0.2L1096,625.5L1096,625.5z M1097,599.4L1097,599.4l0.2,2
	h0.2c0.6-0.7,0.9-1.2,0.9-1.7v-0.3l-0.3-0.3h-0.7L1097,599.4z M1098.9,617.1L1098.9,617.1c0,0.3,1,0.5,2.9,0.6l1.3-0.1l1.8,0.3h0.3
	c0.4,0,0.6-0.2,0.6-0.5h-0.1l-6-0.5h-0.6L1098.9,617.1z M1100.1,620.7v0.2c0.1,0.2,1,0.5,2.8,0.8h0.2v-0.1c-0.8-0.6-1.6-0.9-2.5-0.9
	H1100.1z M1104.8,614.7l-1-0.1h-1.3v0.3c1.2,0.3,2.2,0.5,3,0.5h1.8c0.1,0,0.2-0.1,0.2-0.3c-0.1-0.6-0.4-0.9-0.9-0.9h-0.8
	L1104.8,614.7z M1103.8,654.7l0.3,0.1c2-0.3,3-0.7,3-1.1l-0.2-0.2C1104.8,654,1103.8,654.4,1103.8,654.7z M1104.6,621.5
	c1.5,0.5,2.8,0.7,3.9,0.7l0.3-0.3v-0.5l-0.2-0.2h-1.8C1105.3,621.2,1104.6,621.3,1104.6,621.5z M1107.5,618.9L1107.5,618.9l0.3,0.4
	h0.3c0.5,0,0.8-0.2,1-0.5l-0.3-0.2h-1L1107.5,618.9z M1107.8,615.2L1107.8,615.2l0.2,0.3c0.5,0,0.8-0.1,0.9-0.4V615h-0.9
	L1107.8,615.2z"/>
<path class="st8" d="M1136.5,617c2.2,0,5,0.9,8.2,2.8c2.7,2,4.1,3.4,4.1,4.2c2.1,4.6,3.2,7.3,3.2,8.1l0.1,0.6
	c-0.8,1.8-1.2,3.1-1.2,3.8l-0.5,0.1h-6.9c-0.7,0-1.4,0.1-2.2,0.3c-7.7-0.6-13.1-0.9-16.1-0.9h-1.7c-0.7,1-1,1.6-1,2
	c0.4,0.7,0.6,1.6,0.6,2.8c0,2.1,0.3,3.3,0.9,3.6l0.1,0.4v0.1l-0.5-0.2v0.2l0.8,0.8c0,0.8,0.5,1.7,1.4,2.7c1.7,3.1,3.6,5,5.7,5.8
	c1.7,0.6,3.7,0.9,6,0.9c0.3,0,1.1-0.3,2.2-1c1-0.3,3.1-2.1,6-5.2v-0.4c0-0.1-0.3-0.2-1-0.3l-0.2-0.4c1.2-2.4,2.7-3.9,4.4-4.6
	c0.2,0.2,1.2,1,2.9,2.2c1.2,1.9,2.8,4,4.7,6.5v0.3c-1.7,2.2-3,3.3-3.7,3.3h-0.3c0-1.2-0.7-1.9-2.1-2c-0.3,0-1.5,0.9-3.5,2.7
	c-1.1,0.9-3.2,1.8-6.3,2.7c-3.6,0.7-6,1.1-7.4,1.1l-4.6-1.6c-2.5,0-4.9-1.4-7-4.1c-0.9-0.9-1.7-2.1-2.2-3.5c0-0.3-0.6-2.6-1.8-6.6
	c-0.3-1.7-0.5-3.2-0.5-4.4v-0.3c0-7.2,2.1-13.4,6.3-18.7c0.6-1.3,1.9-2.3,3.7-2.9c1.1-0.3,2.7-0.6,4.6-0.9
	C1132.3,616.8,1133.9,616.8,1136.5,617z M1118.5,637.3L1118.5,637.3l-0.1,0.3l0.1,0.1c-0.1,0.3-0.2,0.6-0.2,1.1v0.3
	c0,0.9,0.3,1.7,0.8,2.6h0.2C1119.3,639.2,1119.1,637.7,1118.5,637.3z M1118.5,634.4l-0.1,0.5c0,0.3,0.1,0.5,0.3,0.5
	c0.2,0,0.3-0.3,0.4-0.8l-0.3-0.2H1118.5z M1119.6,630.1c-0.4,0.4-0.8,1.5-1,3.2h0.1c0.3,0,0.8-0.9,1.4-2.8
	C1120,630.2,1119.8,630.1,1119.6,630.1z M1119.7,644.3v0.2l0.2,0.2h0.2v-0.2l-0.2-0.2H1119.7z M1120.5,645.7L1120.5,645.7l-0.1,0.2
	c0.3,0.9,0.6,1.3,0.9,1.3l0.1-0.1V647C1121.4,646.6,1121.1,646.2,1120.5,645.7z M1122.8,635.2L1122.8,635.2L1122.8,635.2l1.5-0.1
	V635l-0.3-0.3h-0.2C1123.3,634.6,1122.9,634.8,1122.8,635.2z M1122.9,625.5L1122.9,625.5l0.2,0.1l0.2-0.2v-0.1h-0.2L1122.9,625.5z
	 M1122.9,630.6v0.3l0.2,0.2h0.1c0.4-0.2,0.7-0.5,0.9-0.9V630h-0.3C1123.4,630,1123.1,630.2,1122.9,630.6z M1123.7,628.5v0.2
	c0,0.7,4.8,1.4,14.5,2l0.8,0.3l1-0.1c2.3,0.7,3.7,1.1,4.3,1.1c0,0.2,0.2,0.3,0.5,0.3c0.3-0.4,0.5-0.9,0.5-1.3v-1.5
	c0-0.7-1.3-2.3-4-4.7c-1.2-1.2-2.5-1.9-4.1-2.1l-2.7-0.4c-4.4,0.8-7.3,1.9-8.7,3.2C1125.3,626.5,1124.6,627.5,1123.7,628.5z
	 M1123.8,627.3L1123.8,627.3c0.3,0,0.4-0.2,0.4-0.6v-0.1C1123.9,626.7,1123.8,626.9,1123.8,627.3z M1124,654.7v0.3
	c0,0.3,0.5,0.6,1.4,0.9l0.3,0.3v-0.1c-0.7-0.8-1.1-1.3-1.4-1.4H1124z M1124.6,623.7v0.2h0.1c0.7-0.2,1.1-0.4,1.1-0.6v-0.1h-0.4
	C1125,623.2,1124.8,623.4,1124.6,623.7z M1125,634.6v0.4h0.4v-0.3l-0.1-0.1v-0.1L1125,634.6z M1125.9,620L1125.9,620l0.2,0.3h0.1
	c1.1-0.3,1.6-0.5,1.6-0.8V619l-0.3-0.3h-0.2C1126.4,619,1125.9,619.4,1125.9,620z M1126.9,633.8v0.2c1.3,0.3,4.1,0.5,8.5,0.7
	l0.1,0.1v0.1l-1.7,0.2c0,0.2,0.7,0.3,2.1,0.3c2.2,0,3.3-0.1,3.3-0.4C1139.2,634.5,1135.1,634.1,1126.9,633.8z M1127.7,631.1v0.2
	c1,0.7,2.9,1,5.5,1h0.7l1-0.1v-0.3C1132.5,631.4,1130.1,631.2,1127.7,631.1z M1127.9,623.2c0.5-0.4,1.6-0.9,3.2-1.4v-0.1l-0.1-0.1
	h-0.8C1128.7,621.9,1127.9,622.5,1127.9,623.2z M1129.1,618.8L1129.1,618.8c1.1,0,2.7-0.3,4.9-1c0.5,0,0.7-0.2,0.7-0.3l-0.2-0.2
	h-0.1c-1.5,0-3.2,0.4-5.2,1.2l-0.1,0.1V618.8z M1129.8,655L1129.8,655c0,0.3,0.6,0.6,1.7,0.8l0.1-0.1v-0.1
	C1130.8,655.2,1130.2,655,1129.8,655L1129.8,655z M1132.6,620.4L1132.6,620.4c0,0.3,1.1,0.6,3.3,0.9l0.1-0.1v-0.3
	c-0.4-0.6-1.1-0.9-2.1-0.9h-0.3C1132.9,620.1,1132.6,620.2,1132.6,620.4z M1134.3,655.9v0.2h0.3v-0.2H1134.3z M1137.3,657.9
	l-1.7-0.2h-0.3c-0.5,0-0.8,0.1-0.8,0.3v0.1l0.3,0.3h1.4c1.8,0,3.7-0.3,5.8-0.8v-0.1c-0.1-0.3-0.4-0.4-0.9-0.4h-0.4
	C1139.5,657.1,1138.3,657.4,1137.3,657.9z M1135.9,619.2v0.2c0,0.2,1.1,0.3,3.2,0.5l0.1-0.1v-0.2c0-0.2-0.3-0.3-1-0.4H1135.9z
	 M1137.4,620.9L1137.4,620.9c3,1.8,4.7,2.7,4.9,2.7h0.1l0.8-0.3l0.4,0.1l0.1-0.1v-0.1c-0.3-0.2-0.7-0.4-1.3-0.5l-1.6-0.7
	c-0.4-0.9-1.2-1.4-2.6-1.4h-0.2C1137.6,620.7,1137.4,620.8,1137.4,620.9z M1142.2,633.2v0.2h0.3v-0.2H1142.2z M1142.3,635.3
	c0,0.2,0.5,0.3,1.4,0.3l0.8-0.1v-0.1c0-0.3-0.5-0.4-1.6-0.4C1142.5,635.1,1142.3,635.2,1142.3,635.3z M1142.3,653.6h0.2
	c0.3-0.2,0.5-0.4,0.7-0.8l-0.1-0.1C1142.5,653,1142.3,653.3,1142.3,653.6z M1142.8,657.1c0.5,0,1-0.4,1.3-1.2h-0.2
	C1143.2,656.3,1142.8,656.7,1142.8,657.1z M1143.6,624.8c0.2,0.4,0.4,0.6,0.8,0.6h0.1l0.2-0.2v-0.5l-0.4-0.4
	C1143.9,624.3,1143.6,624.5,1143.6,624.8z M1144.7,651.1l0.1,0.1h0.1c0.5,0,0.9-0.4,1.1-1.1V650
	C1145.5,650,1145.1,650.3,1144.7,651.1z M1145.4,625.9c0.5,1.7,1,2.6,1.3,2.8h0.3l0.2-0.2c-0.4-1.7-0.9-2.5-1.4-2.5l-0.1-0.1H1145.4
	z M1146.6,646.5l0.2,0.2h0.3c0.3,0,0.5-0.1,0.6-0.3l-0.3-0.3h-0.1C1146.9,646,1146.7,646.2,1146.6,646.5z M1147,654h0.3
	c0.5-0.5,0.8-0.9,0.8-1.1h-0.1C1147.3,653.1,1147,653.5,1147,654z M1148.2,629.7v0.5l0.2,0.3c0.3-0.1,0.4-0.3,0.4-0.6v-0.2l-0.2-0.2
	h-0.2L1148.2,629.7z M1148.5,651.8l0.2,0.2c0.8-0.3,1.2-0.6,1.2-1.1v-0.1h-0.1C1149,650.8,1148.6,651.1,1148.5,651.8z M1150.3,650.9
	L1150.3,650.9l0.3,0.1c0.3-0.2,0.5-0.4,0.5-0.8v-0.1h-0.2C1150.5,650.3,1150.3,650.6,1150.3,650.9z M1153.2,650.1L1153.2,650.1
	l-0.1,0.2c0.2,0.7,0.4,1,0.7,1h0.1l0.2-0.2V651C1153.9,650.4,1153.6,650.1,1153.2,650.1z"/>
<path class="st8" d="M1172.1,613.6c6.6,0,9.9,0.3,9.9,0.8c0,0.3-1.2,0.4-3.7,0.4l-0.2,0.2c0,0.1,1.1,0.2,3.4,0.3l1.2,0.8l-0.9,1.7
	v0.1l6,10.2l0.3,0.1c0.6-0.4,2-2.2,4.1-5.5c0.9-0.9,1.3-1.4,1.4-1.7c0.4,0,1.1-0.7,2-2.1c0-1.1,0.4-2,1.2-2.7l0.2,0.2
	c0,0.5-0.2,0.9-0.6,1.4v0.2h0.1c1.1-1,1.6-1.8,1.6-2.3v-0.5l-0.1-0.1c0-0.5,0.6-0.8,1.9-0.9h2.1c7.5,0.3,11.2,0.9,11.2,1.8v1.5
	l-0.3,0.3h-2l2.2,0.8l0.1,0.5v0.9l-0.3,0.3h-0.6c-2,0.1-3.1,0.2-3.1,0.4v0.1c2.6,0.1,3.9,0.3,3.9,0.5v0.1l-0.6,0.6l0.7,0.4v0.1
	l-0.2,0.3c-2.7-0.5-6.6-0.8-11.8-0.8c-2.3,2.5-4.6,5.1-6.6,7.8c-2.3,2.4-3.5,3.8-3.5,4.2c0.4,1.1,1.5,3,3.2,5.9
	c0.3,0.9,1.7,3.4,4.1,7.4c0,0.7,1.3,1.5,4,2.4c0.5,0.3,1,0.4,1.6,0.4l5.6-0.2l0.6,1v1c-0.2,0.3-0.3,0.5-0.3,0.7
	c0,0.3,0.1,0.7,0.2,1.2c0.2,0.5-0.1,1.6-0.6,3.3c-0.3,0.3-0.6,0.4-1,0.4c-3.7-0.4-7.6-0.6-11.6-0.6h-1l-1.2,0.3h-0.7l-0.5-0.1V657
	c0.5-0.6,0.7-1.1,0.7-1.6l-0.1-0.1h-0.2l-0.8,0.7h-0.1c-0.5-0.1-0.7-1.4-0.7-3.9c0-0.2,0-0.8,0.1-1.9c0.2-0.2,0.3-0.3,0.3-0.6
	c-1.7-4.7-3.4-8-4.9-9.8h-0.4c-0.7,0.2-1.6,1.6-2.7,4.2c-1,1.5-1.9,3.2-2.7,5c-0.5,1.1-1,1.6-1.5,1.6l0.8,1.6l0.8,0.9l-0.3,1.1
	l0.2,0.8v0.2l-1.6,1.9v0.1l0.1,0.7l-0.3,0.1l-2.5-0.2h-0.7c-1.3,0-3.5-0.1-6.5-0.2c-3-0.1-4.5,0.1-4.5,0.6l-0.1,0.1h-0.4l0.1-1.3
	l-0.3-0.9c0.3,0,0.5-1.2,0.6-3.5c0.2-0.3,0.5-0.5,0.8-0.6c0-0.6,0.2-0.9,0.7-0.9l6.3-1.1c0.3-0.2,0.7-0.6,1-1.3c0.3,0,0.8-0.7,1.4-2
	c0.8-1,1.2-1.4,1.3-1.4c0.5,0,0.7-0.1,0.7-0.3v-0.1h-0.7l-0.7-0.1v-0.2c0.5-0.4,0.7-0.8,0.7-1.3c1.3-2,2.3-3.3,3.1-4.1l3.6-5.2
	c0-0.2-0.7-1.3-2.2-3.5c-3.2-5.5-5.3-8.5-6.2-9c0-0.1-1.8-0.3-5.4-0.5c-2.4-0.3-3.6-0.5-3.6-0.8c0.2-2.9,0.3-4.8,0.3-5.6
	C1167.5,613.9,1169.2,613.6,1172.1,613.6z M1167.5,617.5l-0.2,0.3v0.1c0,0.3,0.8,0.6,2.4,0.7h0.2l1.2-0.2v-0.2
	C1171.1,618,1169.9,617.8,1167.5,617.5z M1167.2,653.7v0.2c0.2,0.3,0.5,0.5,0.9,0.5l2.4-0.2V654c0-0.3-0.9-0.5-2.7-0.6
	C1167.4,653.5,1167.2,653.6,1167.2,653.7z M1171.1,614.8v0.2h0.9v-0.1l-0.3-0.3h-0.4L1171.1,614.8z M1173,618.5L1173,618.5l-0.1,0.2
	l0.3,0.3h0.3l0.1-0.3L1173,618.5z M1175.3,649.3v0.2c0.4,0,0.7-0.2,0.8-0.6l-0.1-0.1C1175.6,648.9,1175.4,649.1,1175.3,649.3z
	 M1177.7,621.8v0.2l0.2,0.2h0.2V622l-0.2-0.2H1177.7z M1177.7,617.8c0.1,0.2,0.3,0.3,0.6,0.3l0.2-0.2v-0.1l-0.3-0.3h-0.2
	L1177.7,617.8z M1178.2,622.7L1178.2,622.7c0,0.5,0.3,0.9,0.8,1.3h0.1l0.2-0.2c0-0.5-0.3-0.8-0.8-1.2h-0.3V622.7z M1179.2,655.7v0.3
	h0.8v-0.1l-0.2-0.2H1179.2z M1180,617.7v0.3c0.3,0.5,0.6,0.7,1,0.7v-0.5l-0.5-0.5H1180z M1180.1,648.5v0.2h0.2l0.3-0.3v-0.3h-0.1
	L1180.1,648.5z M1182,639.4L1182,639.4l0.2,0.1c1.6-1.9,2.4-3.1,2.4-3.5v-0.1h-0.1C1183.3,636.9,1182.5,638,1182,639.4z
	 M1189.9,631.6L1189.9,631.6L1189.9,631.6c0.8-0.5,1.2-1.1,1.2-1.5C1190.3,630.6,1189.9,631.1,1189.9,631.6z M1196,623.3h0.2
	c0.3-0.2,0.5-0.4,0.6-0.7l-0.1-0.1C1196.2,622.8,1196,623,1196,623.3z M1196.1,651.9c0.1,0.3,0.3,0.5,0.6,0.6h0.6v-0.1
	c0-0.5-0.3-0.8-0.9-0.8L1196.1,651.9z M1197.7,653.4v0.2h0.4v-0.2H1197.7z M1198.8,648.9l-0.1,0.1v0.5c0,0.3,0.5,0.5,1.4,0.5h1
	l0.2-0.2L1198.8,648.9z M1199.6,653.5h2.7l1-0.1v-0.2l-0.5-0.1h-1.6C1200.1,653.1,1199.6,653.2,1199.6,653.5z M1200.5,618.8v0.3h0.1
	c0.4,0,0.8-0.3,1.2-0.8v-0.5h-0.3C1201.2,618,1200.9,618.3,1200.5,618.8z M1205,619.3v0.2l1.2,0.1l1.7-0.1v-0.3h-2L1205,619.3z
	 M1206.7,617.3v0.3l1.2,0.1h0.8v-0.2l-1.7-0.2H1206.7z M1207.3,656.2v0.3c0.7,0.2,1.3,0.3,1.8,0.3l0.1-0.1v-0.1c0-0.2-0.3-0.3-1-0.4
	H1207.3z M1207.4,652.7L1207.4,652.7l0.7,0.1l0.5-0.1v-0.2c0-0.2-0.1-0.2-0.3-0.2C1207.7,652.4,1207.4,652.6,1207.4,652.7z"/>
<path class="st8" d="M1238,596.8c1.2,0,2.2,0.3,2.9,0.9c-0.6,1.5-1.1,4.2-1.3,8.1l-0.7,7.3c0,0.4,1,0.6,3.1,0.6
	c6.3,0,9.5,0.3,9.5,0.8c0.2,0,0.5,0.2,1,0.5c-0.5,0.8-0.8,1.3-0.8,1.5v0.3l0.2,1.6l-1,3.5c0,0.3,0.4,0.9,1.2,1.6v0.1
	c-1.2,0.4-2.2,0.6-3.1,0.6c-0.9-0.1-1.3-0.2-1.3-0.4v-0.1l0.7-0.1h0.6l0.3-0.3v-0.2l-0.3-0.1l-5.4,0.1l-4.5-0.1
	c-0.2,0-0.5,1.5-0.8,4.5h-0.1l-1.1-1.2l-0.2,0.8v0.5c0.1,1.5,0.2,2.3,0.5,2.4c0.2,0,0.4-0.5,0.6-1.5V628h0.2l0.1,0.3l-0.6,7.6
	c0.5,8.5,1,12.7,1.4,12.7c0.2,1.7,0.9,2.5,2,2.5c0.7,0.3,1.4,0.5,2.2,0.5h1.4l4.7-0.2c0.2,0,0.4,1.4,0.6,4.3
	c0.2,1.7-0.7,2.5-2.8,2.5l-6.2,0.2c-3.5,0-6.3-0.9-8.5-2.8c-1.5-0.6-2.2-2.2-2.2-4.8c-0.2-2.1-0.4-6.4-0.6-12.8l1.3-7l0.2-4.7v-0.6
	c-0.3-2.2-1-3.3-1.9-3.3l-2.4-0.1h-2.8c-0.8,0-1.6,0.2-2.5,0.6c-0.5-0.1-1.2-0.8-2-2.1l1.6-7.1c0-0.2,3.2-0.3,9.7-0.4
	c0-0.7,0.4-1.6,1.2-2.6c0.2-8.3,0.5-12.4,0.8-12.4V598c0-0.1-0.1-0.2-0.3-0.2v-0.3C1232.8,597.3,1234.5,597.1,1238,596.8z
	 M1222,614.5c0,0.4,0.2,0.6,0.6,0.6h1.2c2,0,4-0.1,6.1-0.3v-0.1c0-0.3-1.3-0.5-3.9-0.5h-3.4C1222.2,614.3,1222,614.4,1222,614.5z
	 M1223,616.3v0.4c0,0.5,1.8,0.8,5.4,0.8c1.8,0,2.7-0.1,2.7-0.4c0-0.6-2.3-0.9-7-1h-0.9L1223,616.3z M1223.6,619.1
	c0,0.2,0.1,0.3,0.4,0.3l2,0.1l2.1-0.1l0.1-0.1v-0.1c-0.7-0.3-1.9-0.4-3.6-0.4h-0.7L1223.6,619.1z M1223.6,620.2v0.2
	c0,0.3,2,0.5,6,0.5l0.7-0.1v-0.1l-0.2-0.2L1223.6,620.2z M1231,637.7l0.3,2.2l-0.1,2.8l0.1,0.8h0.2c0.3,0,0.5-1.2,0.5-3.7v-1.9
	c0.2,0.2,0.2,0.3-0.1,0.3C1231.6,638.2,1231.3,638.1,1231,637.7z M1233.5,648v1.2l0.1,0.5h0.1l0.2-0.2v-1.3l-0.2-0.2H1233.5z
	 M1233.9,653.5v0.3c0.2,1.3,0.7,2,1.7,2h0.8l0.2-0.2v-0.1c0-0.2-0.5-0.4-1.5-0.6l-1-1.4H1233.9z M1234.6,624.4v0.6l0.2,0.2
	c0.2,0,0.3-0.2,0.3-0.6v-0.3l-0.1-0.5h-0.1C1234.7,623.9,1234.6,624.1,1234.6,624.4z M1234.8,625.9l-0.1,0.5v0.3l0.1,0.5h0.3
	l0.1-0.7v-0.4l-0.2-0.2L1234.8,625.9L1234.8,625.9z M1234.9,598.9v0.5h0.3v-0.3L1234.9,598.9L1234.9,598.9z M1234.9,631.5v0.7
	l0.2,0.2h0.2v-0.2l-0.1-0.7H1234.9z M1235.3,601.8c-0.1,0.4-0.2,1.1-0.2,2.1v0.3h0.2l0.2-1.4V602L1235.3,601.8z M1235.6,605.4
	l-0.3,7.9v0.1l0.2,0.2h0.2c0.3,0,0.5-0.7,0.5-2v-1.8l-0.1-4c-0.1-0.3-0.2-0.4-0.3-0.4H1235.6z M1236.1,644.1l-0.1,0.5v0.6
	c0,0.4,0.1,0.6,0.4,0.7h0.1c0.2,0,0.3-0.2,0.3-0.6c-0.1-0.8-0.3-1.2-0.5-1.2H1236.1z M1236.1,653.1L1236.1,653.1l-0.1,0.6
	c0.1,0.3,0.3,0.5,0.6,0.6h0.5v-0.1C1237.2,653.6,1236.8,653.2,1236.1,653.1z M1236.9,647.4l-0.3,1c0,1.2,0.3,1.9,0.8,2.2l0.2-0.3
	v-0.7C1237.4,648.3,1237.2,647.5,1236.9,647.4z M1237.2,625.5v0.2l0.3,0.3h0.1v-0.2L1237.2,625.5L1237.2,625.5z M1238.1,599.4
	L1238.1,599.4l0.2,2h0.2c0.6-0.7,0.9-1.2,0.9-1.7v-0.3l-0.3-0.3h-0.7L1238.1,599.4z M1240,617.1L1240,617.1c0,0.3,1,0.5,2.9,0.6
	l1.3-0.1l1.8,0.3h0.3c0.4,0,0.6-0.2,0.6-0.5h-0.1l-6-0.5h-0.6L1240,617.1z M1241.2,620.7v0.2c0.1,0.2,1,0.5,2.8,0.8h0.2v-0.1
	c-0.8-0.6-1.6-0.9-2.5-0.9H1241.2z M1245.9,614.7l-1-0.1h-1.3v0.3c1.2,0.3,2.2,0.5,3,0.5h1.8c0.1,0,0.2-0.1,0.2-0.3
	c-0.1-0.6-0.4-0.9-0.9-0.9h-0.8L1245.9,614.7z M1244.9,654.7l0.3,0.1c2-0.3,3-0.7,3-1.1l-0.2-0.2
	C1246,654,1244.9,654.4,1244.9,654.7z M1245.7,621.5c1.5,0.5,2.8,0.7,3.9,0.7l0.3-0.3v-0.5l-0.2-0.2h-1.8
	C1246.4,621.2,1245.7,621.3,1245.7,621.5z M1248.6,618.9L1248.6,618.9l0.3,0.4h0.3c0.5,0,0.8-0.2,1-0.5l-0.3-0.2h-1L1248.6,618.9z
	 M1248.9,615.2L1248.9,615.2l0.2,0.3c0.5,0,0.8-0.1,0.9-0.4V615h-0.9L1248.9,615.2z"/>
<path class="st8" d="M1264.8,616c0.5,0.3,1,0.5,1.6,0.5l1-0.5c7.3,0,10.9,0.2,10.9,0.6l0.1,0.5v1.4c0.4,1,0.6,2,0.6,3.1v1.2
	c-0.5,7.4-0.9,14.5-1.2,21.2c-0.2,0.3-0.3,0.8-0.3,1.6c0.1,0.3,0.4,0.4,0.7,0.4h0.3c2.9,0,4.3,0.3,4.3,1l-0.1,0.1v0.5
	c0.6,1.3,0.9,3.3,0.9,6l0.3,3.2l-0.2,0.2l-3.5,0.1h-8c-6,0-9-0.5-9-1.4c0-0.6-0.1-1.2-0.4-1.7c0.2-0.4,0.4-0.7,0.8-0.9h0.2
	c0.3,0.2,0.5,0.3,0.7,0.3h0.2c1.8,0,3.6-0.1,5.5-0.4v-0.2c-4.6-0.3-6.9-0.6-6.9-1l-0.1-0.7v-0.9l-0.2-2c0-0.6,2-0.9,6-0.9
	c0.5,0,0.8-1.2,0.8-3.6l0.9-21h-0.1c-2,0-2.7-0.2-2.1-0.6c-3.2,0-4.8-0.4-4.8-1.1c-0.2-0.1-0.3-0.3-0.3-0.6l0.4-1
	c0-0.2-0.2-0.5-0.5-0.8v-0.1c0.5-0.3,0.8-1.2,0.9-2.5l0.1-0.1h0.5V616z M1265,650.3L1265,650.3c0.4,0.5,2,0.7,5,0.8h0.5
	c0.5,0,0.8-0.1,0.8-0.3v-0.3c-2-0.3-3.9-0.4-5.8-0.4L1265,650.3z M1265.9,617.6v0.2h0.4c1.4,0,2.1-0.1,2.1-0.3l-0.2-0.2h-0.2
	C1266.6,617.3,1265.9,617.4,1265.9,617.6z M1266.2,618.7v0.2c0,0.2,0.4,0.3,1.1,0.3h0.9h0.3h2.5c0.8,0,1.3-0.1,1.3-0.3v-0.1
	c0-0.3-1.6-0.4-4.7-0.2L1266.2,618.7z M1275.6,600.3c1.8,0,3.3,0.9,4.4,2.8l0.5,2.7c-0.1,0.9-0.7,2.2-1.7,3.9c-0.7,0.7-1.8,1-3.2,1
	c-3.3,0-5.4-0.5-6.3-1.6c-0.8-1-1.2-2.5-1.1-4.4c-0.2,0-0.3-0.1-0.3-0.2v-0.1c1.6-2.5,3.2-3.7,5-3.7
	C1273.3,600.5,1274.2,600.4,1275.6,600.3z M1271.3,602.7L1271.3,602.7c1.8-0.2,2.7-0.4,2.7-0.6l-0.4-0.2
	C1272,602.1,1271.3,602.4,1271.3,602.7z M1271.7,641.1c0.1,0.4,0.2,0.6,0.3,0.6c0.2,0,0.2-0.2,0.3-0.7l-0.1-1.2
	c0.2-0.3,0.5-1.3,0.9-3.2v-0.5l-0.2-1.2c0.3-0.2,0.5-0.4,0.5-0.6c-0.2-0.6-0.3-1.2-0.3-1.7v-0.1c0.2,0,0.5-3,0.7-9
	c-0.2-0.4-0.3-0.6-0.4-0.6h-0.1c-0.7,0-1.2,2.6-1.3,7.9L1271.7,641.1z M1273.4,653.2h-1.2v0.3l1.2,0.1l2.3-0.2v-0.2h-0.4l-0.9-0.1
	L1273.4,653.2z M1272.8,605l0.4,0.1h0.1c0.7,0,1.1-0.2,1.2-0.6l-0.1-0.1h-0.9c-0.5,0-0.7,0.2-0.8,0.6H1272.8z M1273,651.1l0.3,0.3
	h0.1c0.5,0,0.7-0.2,0.7-0.7h-0.4C1273.3,650.7,1273.1,650.8,1273,651.1z M1273.8,645.9v0.4h0.3l0.3-0.3v-0.2l-0.2-0.2h-0.1
	L1273.8,645.9z M1273.9,644.4v0.5h0.2c0.3-0.1,0.4-0.4,0.4-0.9v-0.6h-0.2C1274.1,643.4,1274,643.7,1273.9,644.4z M1274,618.7v0.2
	c0.3,0,0.7,0.3,1.3,0.8h0.2c0.2,0,0.2-0.1,0.2-0.3h0.1c0.2,0,0.3,0.3,0.5,0.8h0.1l1.1-0.9v-0.4l-1.7-0.1h-1.2L1274,618.7z
	 M1274.4,623.2l0.4,1.3l-0.5,1.3c0.2,0.5,0.4,0.8,0.5,0.8h0.1l0.1-0.5v-0.5c0-2,0.3-2.9,0.9-2.9l0.2-0.3v-0.3l-0.2-0.2h-0.5
	C1274.7,621.9,1274.4,622.3,1274.4,623.2z M1275.1,636.8c-0.5,1.8-0.7,3.3-0.7,4.4h0.1c0.3,0,0.6-1.1,1-3.3v-0.6l-0.1-0.5
	L1275.1,636.8L1275.1,636.8z M1274.5,608.6v0.2h1.4l0.2-0.2l-0.2-0.2h-1.2L1274.5,608.6z M1275.5,623.9v0.4c0,0.3,0.1,0.6,0.4,0.7
	h0.2l0.3-0.3v-0.4c-0.1-0.2-0.3-0.4-0.6-0.5L1275.5,623.9z M1276.5,606.9v0.3h0.3c0.4,0,0.7-0.2,0.9-0.6v-0.3h-0.2
	C1277.2,606.3,1276.8,606.5,1276.5,606.9z M1276.5,617.2l0.3,0.3h0.1v-0.3l-0.2-0.2L1276.5,617.2z M1278.1,604.7v0.3h0.1l0.3-0.3
	v-0.3h-0.1L1278.1,604.7z M1279.9,651.1c0.1,0.7,0.5,1,1.4,1h0.3v-0.2l-0.2-0.3c0-0.1,0.2-0.2,0.7-0.4v-0.4c0-0.3-0.1-0.6-0.4-0.7
	h-0.3c-0.2,0-0.3,0.3-0.5,0.8L1279.9,651.1z M1280.3,647.6c0.3,0.2,0.9,0.3,1.7,0.4v-0.2c0-0.2-0.3-0.3-1-0.4h-0.5L1280.3,647.6z
	 M1280.3,653v0.2h0.1l0.3-0.3v-0.1h-0.2L1280.3,653z M1282.3,656.2v0.2h0.4l0.2-0.2v-0.1l-0.2-0.2h-0.1L1282.3,656.2z"/>
<path class="st8" d="M1296.7,597.1l3.3,0.8l5.2-0.2c1.3,0,2,0.4,2,1.2c-0.3,2-0.5,4.6-0.5,8.1v12.6l-0.1,12l0.1,3.2l-0.4,15.2
	c1.5,0.4,4.2,0.8,8.2,1l0.1,0.1v1.1c0,0.3,0.3,0.7,0.8,1.3c-0.6,1.3-1.3,3.2-2,5.6l-0.7,0.6h-0.2c-0.3-0.5-1-0.7-2-0.7l-13.1-1.8
	c-4,0-6-0.2-6-0.7c0.7-1.3,1.1-3.3,1.4-6.2h0.2v-0.1l0.7,0.1h0.8c0.4-0.2,1.2-0.4,2.3-0.6c0.5,0.3,0.9,0.4,1.2,0.4h0.9
	c0.5,0,0.8-0.5,0.8-1.6c0.2-1.8,0.5-7.7,0.8-17.5c-0.3-3.2-0.7-12-0.9-26.4c-0.3-0.3-0.5-0.5-0.8-0.5l-3.6,0.2
	c-0.6-0.1-0.9-0.3-0.9-0.6c0.3-4.1,0.6-6.2,1-6.2L1296.7,597.1z M1292.9,656l0.2,0.2h0.4l0.2-0.2l-0.3-0.3h-0.2L1292.9,656z
	 M1293.9,652v0.2l0.3,0.1l0.2-0.2l-0.1-0.3h-0.2L1293.9,652z M1295.5,601.2v0.6l0.3,0.3h1.6l0.5-0.1v-0.2l-1.4-0.7l-0.4-0.3h-0.2
	L1295.5,601.2z M1295.8,599v0.2c0,0.5,0.3,0.7,0.8,0.7h0.3c0.6,0,1.2-0.3,1.7-0.9v-0.1h-2.3L1295.8,599z M1296.2,651.8L1296.2,651.8
	c0,0.5,0.2,0.7,0.6,0.7h0.1v-0.6l-0.3-0.3h-0.2L1296.2,651.8z M1297.1,654.4L1297.1,654.4l0.2,0.3h1.2c0.9,0,1.3-0.1,1.3-0.3v-0.1
	c-0.6-0.2-1.3-0.2-2.2-0.2h-0.2L1297.1,654.4z M1297.9,652.7L1297.9,652.7l0.5,0.2h0.5l0.2-0.2v-0.2l-0.5-0.1h-0.1
	C1298.1,652.4,1297.9,652.5,1297.9,652.7z M1300.2,599.1l0.6,0.2h0.8l0.3-0.3v-0.1h-1.6L1300.2,599.1z M1301.2,646.3v0.3
	c0,0.4,0.1,0.6,0.3,0.6l0.4-0.4v-0.6c-0.1-0.7-0.2-1-0.4-1C1301.2,645.2,1301.2,645.6,1301.2,646.3z M1301.4,620.5v0.3l0.2,0.2
	l0.2-0.2v-0.4l-0.1-0.1c0-0.2,0.2-0.3,0.7-0.5v-0.2h-0.4C1301.6,619.8,1301.4,620.1,1301.4,620.5z M1301.7,611.9L1301.7,611.9
	l0.4,0.1v-0.3h-0.1L1301.7,611.9z M1302,607.5v0.3l0.2,0.2h0.1l0.2-0.2v-0.3l-0.2-0.2h-0.1L1302,607.5z M1302.6,630.7v0.2h0.1
	c0.3,0,0.5-1.1,0.5-3.2C1303,627.7,1302.8,628.7,1302.6,630.7z M1302.9,602L1302.9,602l0.2,0.3h0.3c0.6-0.5,1.2-0.8,1.8-1
	c0.3-0.4,0.4-0.7,0.4-0.9l-0.2-0.2h-0.2c-0.5,0-1,0.3-1.4,0.9C1303.2,601.3,1302.9,601.6,1302.9,602z M1304.4,634.4l-0.2,0.2l-0.1,5
	v6.7l0.1,3.1l0.1,0.1h0.6c0.2,0,0.2-0.2,0.3-0.7C1305.1,639.2,1304.9,634.4,1304.4,634.4z M1305.4,618.4l-0.2,1.6l0.1,1h0.1
	c0.2,0,0.3-0.4,0.3-1.1v-1.2L1305.4,618.4z M1305.2,621.6l-0.1,0.5v0.1h0.2l0.2-0.2v-0.4L1305.2,621.6L1305.2,621.6z M1305.2,617.3
	L1305.2,617.3l0.3,0.4h0.1v-0.2l-0.2-0.2H1305.2z M1307.9,653.8L1307.9,653.8c0,0.4,0.9,0.6,2.7,0.6h2.1l0.5-0.1v-0.2l-0.7-0.1
	L1307.9,653.8z M1309.9,656l0.3,0.2h1.6c0.5,0,0.8-0.1,0.8-0.3v-0.2l-0.5-0.1h-1.2C1310.2,655.7,1309.9,655.8,1309.9,656z
	 M1311.6,651.6L1311.6,651.6c0.2,0.4,0.6,0.6,1.4,0.6l0.4-0.3v-0.3l-0.5-0.1h-0.8L1311.6,651.6z M1311.7,657.6v0.3l0.5,0.1h0.2
	l0.5-0.1v-0.3l-0.5-0.1h-0.2L1311.7,657.6z"/>
<path class="st8" d="M1340.5,617c2.2,0,5,0.9,8.2,2.8c2.7,2,4.1,3.4,4.1,4.2c2.1,4.6,3.2,7.3,3.2,8.1l0.1,0.6
	c-0.8,1.8-1.2,3.1-1.2,3.8l-0.5,0.1h-6.9c-0.7,0-1.4,0.1-2.2,0.3c-7.7-0.6-13.1-0.9-16.1-0.9h-1.7c-0.7,1-1,1.6-1,2
	c0.4,0.7,0.6,1.6,0.6,2.8c0,2.1,0.3,3.3,0.9,3.6l0.1,0.4v0.1l-0.5-0.2v0.2l0.8,0.8c0,0.8,0.5,1.7,1.4,2.7c1.7,3.1,3.6,5,5.7,5.8
	c1.7,0.6,3.7,0.9,6,0.9c0.3,0,1.1-0.3,2.2-1c1-0.3,3.1-2.1,6-5.2v-0.4c0-0.1-0.3-0.2-1-0.3l-0.2-0.4c1.2-2.4,2.7-3.9,4.4-4.6
	c0.2,0.2,1.2,1,2.9,2.2c1.2,1.9,2.8,4,4.7,6.5v0.3c-1.7,2.2-3,3.3-3.7,3.3h-0.3c0-1.2-0.7-1.9-2.1-2c-0.3,0-1.5,0.9-3.5,2.7
	c-1.1,0.9-3.2,1.8-6.3,2.7c-3.6,0.7-6,1.1-7.4,1.1l-4.6-1.6c-2.5,0-4.9-1.4-7-4.1c-0.9-0.9-1.7-2.1-2.2-3.5c0-0.3-0.6-2.6-1.8-6.6
	c-0.3-1.7-0.5-3.2-0.5-4.4v-0.3c0-7.2,2.1-13.4,6.3-18.7c0.6-1.3,1.9-2.3,3.7-2.9c1.1-0.3,2.7-0.6,4.6-0.9
	C1336.3,616.8,1337.8,616.8,1340.5,617z M1322.5,637.3L1322.5,637.3l-0.1,0.3l0.1,0.1c-0.1,0.3-0.2,0.6-0.2,1.1v0.3
	c0,0.9,0.3,1.7,0.8,2.6h0.2C1323.3,639.2,1323,637.7,1322.5,637.3z M1322.5,634.4l-0.1,0.5c0,0.3,0.1,0.5,0.3,0.5
	c0.2,0,0.3-0.3,0.4-0.8l-0.3-0.2H1322.5z M1323.5,630.1c-0.4,0.4-0.8,1.5-1,3.2h0.1c0.3,0,0.8-0.9,1.4-2.8
	C1324,630.2,1323.8,630.1,1323.5,630.1z M1323.6,644.3v0.2l0.2,0.2h0.2v-0.2l-0.2-0.2H1323.6z M1324.5,645.7L1324.5,645.7l-0.1,0.2
	c0.3,0.9,0.6,1.3,0.9,1.3l0.1-0.1V647C1325.3,646.6,1325,646.2,1324.5,645.7z M1326.8,635.2L1326.8,635.2L1326.8,635.2l1.5-0.1V635
	l-0.3-0.3h-0.2C1327.2,634.6,1326.9,634.8,1326.8,635.2z M1326.9,625.5L1326.9,625.5l0.2,0.1l0.2-0.2v-0.1h-0.3L1326.9,625.5z
	 M1326.9,630.6v0.3l0.2,0.2h0.1c0.4-0.2,0.7-0.5,0.9-0.9V630h-0.3C1327.4,630,1327.1,630.2,1326.9,630.6z M1327.7,628.5v0.2
	c0,0.7,4.8,1.4,14.5,2l0.8,0.3l1-0.1c2.3,0.7,3.7,1.1,4.3,1.1c0,0.2,0.2,0.3,0.5,0.3c0.3-0.4,0.5-0.9,0.5-1.3v-1.5
	c0-0.7-1.3-2.3-4-4.7c-1.2-1.2-2.5-1.9-4.1-2.1l-2.7-0.4c-4.4,0.8-7.3,1.9-8.7,3.2C1329.2,626.5,1328.5,627.5,1327.7,628.5z
	 M1327.7,627.3L1327.7,627.3c0.3,0,0.4-0.2,0.4-0.6v-0.1C1327.9,626.7,1327.7,626.9,1327.7,627.3z M1328,654.7v0.3
	c0,0.3,0.5,0.6,1.4,0.9l0.3,0.3v-0.1c-0.7-0.8-1.1-1.3-1.4-1.4H1328z M1328.5,623.7v0.2h0.1c0.7-0.2,1.1-0.4,1.1-0.6v-0.1h-0.4
	C1329,623.2,1328.7,623.4,1328.5,623.7z M1328.9,634.6v0.4h0.4v-0.3l-0.1-0.1v-0.1L1328.9,634.6z M1329.9,620L1329.9,620l0.2,0.3
	h0.1c1.1-0.3,1.6-0.5,1.6-0.8V619l-0.3-0.3h-0.2C1330.3,619,1329.9,619.4,1329.9,620z M1330.9,633.8v0.2c1.3,0.3,4.1,0.5,8.5,0.7
	l0.1,0.1v0.1l-1.7,0.2c0,0.2,0.7,0.3,2.1,0.3c2.2,0,3.3-0.1,3.3-0.4C1343.2,634.5,1339.1,634.1,1330.9,633.8z M1331.7,631.1v0.2
	c1,0.7,2.9,1,5.5,1h0.7l1-0.1v-0.3C1336.5,631.4,1334.1,631.2,1331.7,631.1z M1331.9,623.2c0.5-0.4,1.6-0.9,3.2-1.4v-0.1l-0.1-0.1
	h-0.8C1332.7,621.9,1331.9,622.5,1331.9,623.2z M1333.1,618.8L1333.1,618.8c1.1,0,2.7-0.3,4.9-1c0.5,0,0.7-0.2,0.7-0.3l-0.2-0.2
	h-0.1c-1.5,0-3.2,0.4-5.2,1.2l-0.1,0.1V618.8z M1333.7,655L1333.7,655c0,0.3,0.6,0.6,1.7,0.8l0.1-0.1v-0.1
	C1334.7,655.2,1334.2,655,1333.7,655L1333.7,655z M1336.6,620.4L1336.6,620.4c0,0.3,1.1,0.6,3.3,0.9l0.1-0.1v-0.3
	c-0.4-0.6-1.1-0.9-2.1-0.9h-0.3C1336.9,620.1,1336.6,620.2,1336.6,620.4z M1338.2,655.9v0.2h0.3v-0.2H1338.2z M1341.3,657.9
	l-1.7-0.2h-0.3c-0.5,0-0.8,0.1-0.8,0.3v0.1l0.3,0.3h1.4c1.8,0,3.7-0.3,5.8-0.8v-0.1c-0.1-0.3-0.4-0.4-0.9-0.4h-0.4
	C1343.4,657.1,1342.3,657.4,1341.3,657.9z M1339.8,619.2v0.2c0,0.2,1.1,0.3,3.2,0.5l0.1-0.1v-0.2c0-0.2-0.3-0.3-1-0.4H1339.8z
	 M1341.4,620.9L1341.4,620.9c3,1.8,4.7,2.7,4.9,2.7h0.1l0.8-0.3l0.4,0.1l0.1-0.1v-0.1c-0.3-0.2-0.7-0.4-1.3-0.5l-1.6-0.7
	c-0.4-0.9-1.2-1.4-2.6-1.4h-0.2C1341.6,620.7,1341.4,620.8,1341.4,620.9z M1346.1,633.2v0.2h0.3v-0.2H1346.1z M1346.2,635.3
	c0,0.2,0.5,0.3,1.4,0.3l0.8-0.1v-0.1c0-0.3-0.5-0.4-1.6-0.4C1346.4,635.1,1346.2,635.2,1346.2,635.3z M1346.2,653.6h0.2
	c0.3-0.2,0.5-0.4,0.7-0.8l-0.1-0.1C1346.5,653,1346.2,653.3,1346.2,653.6z M1346.8,657.1c0.5,0,1-0.4,1.3-1.2h-0.2
	C1347.2,656.3,1346.8,656.7,1346.8,657.1z M1347.6,624.8c0.2,0.4,0.4,0.6,0.8,0.6h0.1l0.2-0.2v-0.5l-0.4-0.4
	C1347.8,624.3,1347.6,624.5,1347.6,624.8z M1348.7,651.1l0.1,0.1h0.1c0.5,0,0.9-0.4,1.1-1.1V650C1349.5,650,1349,650.3,1348.7,651.1
	z M1349.3,625.9c0.5,1.7,1,2.6,1.3,2.8h0.3l0.2-0.2c-0.4-1.7-0.9-2.5-1.4-2.5l-0.1-0.1H1349.3z M1350.6,646.5l0.2,0.2h0.3
	c0.3,0,0.5-0.1,0.6-0.3l-0.3-0.3h-0.1C1350.9,646,1350.7,646.2,1350.6,646.5z M1351,654h0.3c0.5-0.5,0.8-0.9,0.8-1.1h-0.1
	C1351.3,653.1,1351,653.5,1351,654z M1352.2,629.7v0.5l0.2,0.3c0.3-0.1,0.4-0.3,0.4-0.6v-0.2l-0.2-0.2h-0.2L1352.2,629.7z
	 M1352.5,651.8l0.2,0.2c0.8-0.3,1.2-0.6,1.2-1.1v-0.1h-0.1C1353,650.8,1352.6,651.1,1352.5,651.8z M1354.3,650.9L1354.3,650.9
	l0.3,0.1c0.3-0.2,0.5-0.4,0.5-0.8v-0.1h-0.2C1354.5,650.3,1354.3,650.6,1354.3,650.9z M1357.1,650.1L1357.1,650.1l-0.1,0.2
	c0.2,0.7,0.4,1,0.7,1h0.1l0.2-0.2V651C1357.9,650.4,1357.6,650.1,1357.1,650.1z"/>
<path class="st8" d="M1385,608.9c1.4,0,5.4,0.8,11.9,2.4c3.1,1.4,5,2.1,5.4,2.1c0.4-0.5,0.6-1.2,0.6-2.2v-0.1l-0.1-0.6
	c0-0.7,0.5-1,1.5-1c0.7-0.5,1.6-0.7,2.7-0.7c1.6,0,2.4,0.2,2.4,0.5l0.7,7.5v2.3c0,1.9-0.3,3.1-0.8,3.5c-0.5,0.5-0.9,0.7-1.2,0.7
	c-3-0.2-4.4-0.6-4.4-1.2c-0.5-1.3-1.4-2.2-2.8-2.8c-5.1-2.5-8.8-3.8-11.1-3.8l-2.2-0.1c-2.7,0-4.2,0.5-4.7,1.5c-0.7,0.9-1,2-1,3.5
	v0.1c0,2.9,1.5,5.3,4.6,7.3c3,1.2,5.6,1.8,7.9,1.8c0,0.5,1.2,1.1,3.6,1.8c0.5,0.8,1.5,1.2,3.1,1.2c1.7,0.7,4.1,2.7,7.1,6l0.3,0.4
	v0.2c0,0.1-0.2,0.2-0.5,0.2v0.1c0.7,1.5,1.1,2.4,1.1,2.8c0,4.8-0.8,7.9-2.3,9.1c-0.6,1.4-2.1,2.8-4.4,4.2c-2.6,2.3-5.1,3.5-7.7,3.5
	h-2.8c-4.2-0.7-6.3-1.2-6.3-1.6c-2.4-1.7-3.8-2.5-4.2-2.5c-2.6-1.3-4.4-2.6-5.5-3.9h-0.3c-0.7,1.8-1.2,2.8-1.6,2.8
	c-3.4-0.5-5.1-1.1-5.1-1.7c-0.3-0.7-0.5-3.1-0.6-7l0.8-5c0-1.8,0.2-2.7,0.7-2.7l5.1-0.6c0.4,0,0.7,1.5,1.1,4.4l2.3,4
	c0,0.2,2.4,1.8,7.1,4.8c1.2,1.3,2.9,2,5,2h2.8c2.8,0,4.7-0.9,5.8-2.8c1.3-1.3,2.2-3.3,2.7-5.8v-0.2c0-1.6-1.3-3.5-4-5.8
	c-1.2-1.3-2.7-2-4.6-2c-0.8-0.5-3.2-1-7.1-1.5l-6.5-3.3l-3.1-2.7c-1.3-2-2-3.5-2.1-4.3l0.1-1.3l-0.3-3.1c0-0.7,0.5-1.6,1.4-2.6
	c0-0.7,1.3-2.1,3.9-4.4c2.4-1.3,3.8-2.3,4.2-3.1L1385,608.9z M1369.8,646.4l0.1,2h0.1c0.3-0.3,0.5-1.6,0.5-3.9v-0.6l-0.2-0.2h-0.1
	C1370,643.7,1369.8,644.6,1369.8,646.4z M1372,650.5v0.3l0.3,0.3h0.1l0.2-0.2v-0.1l-0.3-0.3H1372z M1372.5,639.9v0.3l0.2,0.2
	l0.3-0.2l-0.1-0.3H1372.5z M1375.7,618.7c0.1,0.8,0.2,1.5,0.4,2.1h0.3v-0.1l-0.2-2.2h-0.3L1375.7,618.7z M1375.8,647.8v0.3
	c0.8,1,1.6,1.5,2.3,1.5h0.1v-0.2c-1.1-1.1-1.9-1.6-2.2-1.6H1375.8z M1376.4,616.7l-0.2,0.6v0.2l0.2,0.2l0.3-0.8v-0.1L1376.4,616.7z
	 M1377.6,626.3L1377.6,626.3l0.2,0.3h0.2v-0.3l-0.2-0.2L1377.6,626.3z M1377.8,619.5v0.2h0.2l0.3-0.3v-0.2h-0.2L1377.8,619.5z
	 M1378.8,615.9L1378.8,615.9l0.1,0.2l0.3-0.1v-0.3h-0.2L1378.8,615.9z M1379.2,626.6v0.2c0.4,1.2,0.7,1.7,1.1,1.7h0.3l0.4-0.4V628
	C1380.3,627.1,1379.7,626.6,1379.2,626.6L1379.2,626.6z M1379.3,617.1L1379.3,617.1l0.4,0.1c1.2-0.8,1.8-1.5,1.8-2l-0.1-0.1h-0.1
	C1380.7,615.1,1380,615.7,1379.3,617.1L1379.3,617.1z M1381.2,626L1381.2,626l0.2,0.3h0.8v-0.2c0-0.2-0.3-0.3-0.8-0.3L1381.2,626z
	 M1383.2,626.6L1383.2,626.6l-0.1,0.6l0.5,0.5h0.2l0.2-0.2v-0.4C1383.8,626.8,1383.5,626.6,1383.2,626.6z M1383.2,630.8
	L1383.2,630.8c-0.1,0.4,0.3,0.7,1,1l0.1-0.1C1384.4,631.4,1384,631.1,1383.2,630.8z M1383.8,654.9L1383.8,654.9
	c0,0.3,0.7,0.6,2.1,0.9l0.3,0.3h0.4c-0.1-0.7-0.3-1-0.5-1L1383.8,654.9z M1384.6,610.1v0.3c0,0.2,0.3,0.4,1,0.5
	c1.5-0.1,2.2-0.2,2.2-0.5v-0.3c0-0.4-0.8-0.6-2.3-0.6C1385.1,609.5,1384.8,609.7,1384.6,610.1z M1385.8,628.5l-0.1,0.1v0.1
	c0.7,0.7,1.7,1.2,3.1,1.7l0.2-0.3C1388.9,629.9,1387.9,629.3,1385.8,628.5z M1386.8,613.5c0.3,0.3,0.5,0.4,0.8,0.4
	c0.6,0,1.1-0.3,1.7-0.9l-0.4-0.4h-0.9C1387.2,612.6,1386.8,612.9,1386.8,613.5z M1387.9,657L1387.9,657l0.3,0.4h0.6v-0.1
	C1388.7,657.1,1388.5,657,1387.9,657L1387.9,657L1387.9,657z M1388.4,655.8v0.4h0.3V656L1388.4,655.8L1388.4,655.8z M1389.6,657.5
	c0.7,0.4,1.7,0.6,3,0.6h0.1l3.5-0.1v-0.2c-0.2-0.4-2-0.6-5.5-0.6C1390,657.2,1389.6,657.3,1389.6,657.5z M1390.2,614.8
	c0,0.4,0.9,0.6,2.8,0.7v-0.2c0-0.3-0.8-0.5-2.4-0.8h-0.1L1390.2,614.8z M1390.2,630.5c0,0.3,1.9,0.8,5.6,1.6l1,0.1h0.3v-0.1
	c-1.7-1.2-3.6-1.9-5.9-2.1C1390.6,630.3,1390.2,630.5,1390.2,630.5z M1391.1,632.9v0.3l1.3,0.4h0.9v-0.2
	C1392.3,633,1391.6,632.9,1391.1,632.9z M1397.1,657.2v0.2l0.2,0.2h0.3c1-0.1,1.5-0.2,1.5-0.4l-0.2-0.2h-1.6L1397.1,657.2z
	 M1397.7,613.4L1397.7,613.4c0,0.3,0.3,0.4,1,0.5h0.2v-0.1C1398.9,613.6,1398.5,613.5,1397.7,613.4z M1398.7,616.4L1398.7,616.4
	l-0.1,0.2c1.7,1,2.7,1.5,3.2,1.5V618C1401.7,617.7,1400.7,617.1,1398.7,616.4z M1399,634v0.2c0.2,0.3,1.7,1.1,4.3,2.4
	c1,1,1.8,1.4,2.4,1.4h0.1l0.2-0.2c-1.2-1.6-3.3-2.9-6.2-3.8L1399,634L1399,634z M1400.8,650.7v0.3h0.2c0.5-0.3,0.9-0.8,1.2-1.4
	l-0.2-0.2C1401.6,649.6,1401.2,650.1,1400.8,650.7z M1401.6,638.8v0.4c0,0.5,0.5,1.2,1.4,1.9h0.4v-0.6c0-0.7-0.6-1.2-1.7-1.7H1401.6
	z M1402.4,653.7L1402.4,653.7c0,0.2,0.1,0.3,0.3,0.3c0.7,0,1.6-0.8,2.7-2.5h-0.2L1402.4,653.7z M1402.5,615.9
	c0.7,0.5,1.6,0.9,2.6,1.1l0.1-0.1v-0.1c0-0.3-0.8-0.7-2.4-1.1h-0.1L1402.5,615.9z M1402.7,645.1v0.4l0.3,0.1l0.2-0.2l-0.1-0.3
	H1402.7z M1404.6,621.6c0.3,0.3,1.1,0.4,2.2,0.4l1.6-0.1v-0.3c-0.7-0.1-1.6-0.2-2.9-0.2h-0.7L1404.6,621.6z M1405.4,609.9v0.2
	c0.6,0.9,1.1,1.4,1.6,1.4c0.4,0,0.7-0.3,1-0.8v-0.3C1408,610,1407.1,609.9,1405.4,609.9z M1407,645.7v0.5l0.2,0.2h0.2
	c0.3-0.1,0.5-0.6,0.5-1.3h-0.3L1407,645.7z M1408.1,612.6l0.2,0.2h0.3v-0.4h-0.3L1408.1,612.6z"/>
</svg>
